<?xml version="1.0" encoding="UTF-8"?>
<svg id="b" data-name="Ebene 2" xmlns="http://www.w3.org/2000/svg" width="541.63" height="243.66" viewBox="0 0 541.63 243.66">
  <defs>
    <style>
      .d {
        fill: #fff;
      }
    </style>
  </defs>
  <g id="c" data-name="Ebene 1">
    <g>
      <g>
        <path class="d" d="M43.19,50.15c20.75,0,27.4,3.25,27.4,11.3v8.21h-27.4c-15.33,0-20.13,6.66-20.13,30.81s4.8,30.81,20.13,30.81h27.4v8.21c0,8.05-6.66,11.3-27.4,11.3C14.86,150.78,0,135.61,0,100.46S14.86,50.15,43.19,50.15Zm-3.56-4.8c-1.86,0-2.94-.46-4.8-2.63l-13-15.79c-.62-.77-.62-1.7-.62-2.32h8.98c2.01,0,2.94,.46,5.11,2.32l7.43,6.35,7.28-6.35c2.32-1.86,3.1-2.32,5.26-2.32h8.82c0,.62,0,1.55-.62,2.32l-13,15.79c-1.86,2.17-2.94,2.63-4.95,2.63h-5.88Z"/>
        <path class="d" d="M78.33,59.44c0-5.57,2.48-8.51,8.21-8.51h56.35v10.84c0,5.57-2.94,8.21-8.82,8.21h-33.29v20.59h36.38v17.8h-36.38v22.76h42.88v10.84c0,5.57-2.94,8.05-8.67,8.05h-48.46c-5.73,0-8.21-2.94-8.21-8.51V59.44Z"/>
        <path class="d" d="M183.14,50.15c19.97,0,31.43,2.17,31.43,10.99v8.52h-29.26c-8.67,0-12.08,2.63-12.08,7.59,0,13.47,46.6,11.15,46.6,44.28,0,15.79-9.75,29.26-38.08,29.26-17.8,0-32.51-2.48-32.51-10.99v-8.52h33.6c8.82,0,13.16-2.79,13.16-8.51,0-14.55-46.44-12.39-46.44-46.14,0-14.86,10.53-26.47,33.6-26.47Z"/>
        <path class="d" d="M252.81,96.75l28.8-41.65c2.32-3.56,3.56-4.18,6.5-4.18h20.75c0,1.39-.31,2.63-1.39,4.18l-31.89,43.81,33.44,46.91c.77,1.24,1.39,2.79,1.39,4.18h-19.82c-4.33,0-5.73-.31-8.52-4.49l-29.26-41.18v45.67h-22.45V59.44c0-5.57,2.48-8.51,8.21-8.51h14.24v45.83Z"/>
        <path class="d" d="M364.73,50.61c4.03,0,5.88,.46,6.81,3.87l25.23,91.81c.31,1.39,.46,2.79,.46,3.72h-17.8c-4.02,0-5.26-.15-6.19-3.56l-5.57-21.06h-27.09l-5.57,21.06c-.77,3.41-2.01,3.56-6.04,3.56h-17.8c0-.93,.15-2.17,.46-3.72l25.39-91.81c.93-3.41,2.79-3.87,6.81-3.87h20.9Zm-20.44,57.75h19.35l-9.29-34.52h-.77l-9.29,34.52Zm18.11-65.33c-2.01,2.17-3.1,2.32-5.11,2.32h-8.98c0-.62,0-1.55,.62-2.32l13-15.79c1.86-2.17,2.94-2.63,4.8-2.63h8.82c1.24,0,1.86,.46,1.86,1.08,0,.77-.31,1.39-1.55,2.79l-13.47,14.55Z"/>
      </g>
      <g>
        <path class="d" d="M426.17,123.39h88.43v-11.87h-88.26c-.07-1.37-.03-28.14-.21-40.51-.15-10.55,7.05-20.82,20.66-20.59,24.8,.41,49.63,.41,74.43-.02,10.69-.19,20.42,7.66,20.41,20.43,0,1.78-.01,3.96-.01,6.27h-88.51v11.59l88.51-.02c0,1.59,.03,28.4,0,40.87-.04,12.55-8.08,20.44-20.78,20.45-24.6,0-49.2,0-73.8,0-12.8,0-20.81-7.98-20.86-20.77,0-1.78,0-3.56,0-5.83"/>
        <path class="d" d="M484,38.03c-10.46,0-18.92-8.62-18.86-19.2C465.2,8.43,473.7-.02,484.07,0c10.37,.02,18.85,8.51,18.87,18.9,.02,10.56-8.47,19.14-18.94,19.13"/>
      </g>
      <g>
        <path class="d" d="M17.25,184.02c8.74,0,14.66,.27,14.66,4.64v2.64h-14.75c-4.1,0-6.56,1.73-6.56,4.28,0,8.56,23.68,6.1,23.68,21.49,0,7.47-4.83,13.39-18.67,13.39-8.1,0-15.57,0-15.57-4.19v-3.1H16.43c5.46,0,7.83-1.64,7.83-5.28,0-7.74-23.77-6.37-23.77-21.67,0-7.65,6.19-12.2,16.76-12.2Z"/>
        <path class="d" d="M50.31,243.66h-9.56v-59.19h5.01c3.37,0,4.55,1.82,4.55,4.01v1.28c2.73-3,7.01-5.74,12.38-5.74,11.47,0,16.67,8.92,16.67,23.22s-5.19,23.22-16.67,23.22c-5.37,0-9.65-2.73-12.38-5.65v18.85Zm9.02-52.09c-3.55,0-6.56,1.46-9.02,3.37v24.5c2.46,1.91,5.46,3.37,9.02,3.37,7.38,0,10.11-5.37,10.11-15.57s-2.73-15.66-10.11-15.66Z"/>
        <path class="d" d="M84.82,207.24c0-12.75,4.64-23.22,20.03-23.22s20.03,10.47,20.03,23.22-4.64,23.22-20.03,23.22-20.03-10.47-20.03-23.22Zm30.23,0c0-10.56-2.37-16.39-10.2-16.39s-10.11,5.83-10.11,16.39,2.28,16.39,10.11,16.39,10.2-5.74,10.2-16.39Z"/>
        <path class="d" d="M141.91,180.83c-1.18,0-1.82-.36-2.91-1.55l-7.65-8.92c-.46-.46-.46-1-.46-1.37h4.19c1.28,0,1.82,.27,3.1,1.37l5.01,4.28,5.1-4.28c1.27-1.09,1.82-1.37,3.01-1.37h4.19c0,.36,0,.91-.36,1.37l-7.74,8.92c-1.09,1.18-1.73,1.55-2.91,1.55h-2.55Zm-9.47,49.17v-45.53h5.01c3.1,0,4.37,2.28,4.55,5.74,3.73-4.83,8.47-6.19,12.11-6.19,1.64,0,3.28,.46,3.28,2.28v7.1h-2.28c-7.01,0-10.38,1.46-13.11,3.37v33.24h-9.56Z"/>
        <path class="d" d="M170.78,179.74h-9.56v-5.28c0-2.91,1.09-4.55,4.1-4.55h5.46v9.83Zm-9.56,4.74h5.37c3.01,0,4.19,1.64,4.19,4.55v40.98h-9.56v-45.53Z"/>
        <path class="d" d="M192.36,184.47h10.2v7.1h-10.2v26.5c0,3.55,.46,4.92,3.55,4.92h6.65v2.37c0,3.82-3.28,4.92-8.47,4.92-10.38,0-11.29-5.55-11.29-12.2v-26.5h-6.01v-5.28l6.01-1.82,3.46-7.29c1-1.91,1.73-2.73,3.46-2.73h2.64v10.02Z"/>
        <path class="d" d="M240.81,223.17v2.55c0,3.73-5.01,4.74-16.03,4.74-15.3,0-20.03-10.47-20.03-23.22s5.01-23.22,19.94-23.22c12.02,0,18.3,6.92,18.3,17.21,0,2.28,0,4.01-.46,8.56h-27.87c0,9.74,3.64,13.39,11.2,13.39h14.93Zm-7.47-19.76c.09-.82,.09-2.46,.09-3.46,0-4.1-1.73-9.11-8.65-9.11-6.37,0-9.74,3.64-10.11,12.57h18.67Z"/>
        <path class="d" d="M259.84,230h-9.56v-55.55c0-2.91,1.09-4.55,4.1-4.55h5.46v60.1Z"/>
        <path class="d" d="M269.86,230v-45.53h5.01c3.37,0,4.55,1.73,4.55,3.92v1.37c3.92-4.1,8.65-5.74,13.39-5.74,9.47,0,14.02,5.74,14.02,14.12v31.87h-9.56v-31.42c0-5.01-3.19-7.01-8.29-7.01-3.46,0-7.01,1.46-9.56,3.37v35.06h-9.56Z"/>
        <path class="d" d="M346.35,230c-3.28,0-4.55-1.73-4.55-3.92v-1.28c-3.92,4.1-9.02,5.65-13.3,5.65-8.65,0-14.02-5.01-14.02-12.75,0-11.38,12.48-14.48,27.32-15.12v-3.82c0-5.74-4.1-7.47-9.93-7.47h-14.02v-2.64c0-4.37,5.46-4.64,15.57-4.64,11.29,0,17.94,4.74,17.94,14.3v31.69h-5.01Zm-4.55-21.67c-12.48,.18-17.21,2.64-17.21,8.01,0,4.74,3.46,6.37,8.1,6.37,3.37,0,6.83-1.27,9.11-3.28v-11.11Z"/>
      </g>
    </g>
  </g>
</svg>