<?xml version="1.0" encoding="UTF-8" standalone="no"?>
<svg
   xmlns:dc="http://purl.org/dc/elements/1.1/"
   xmlns:cc="http://creativecommons.org/ns#"
   xmlns:rdf="http://www.w3.org/1999/02/22-rdf-syntax-ns#"
   xmlns:svg="http://www.w3.org/2000/svg"
   xmlns="http://www.w3.org/2000/svg"
   version="1.1"
   id="svg4136"
   viewBox="0 0 232.99999 64"
   height="64"
   width="233">
  <defs
     id="defs4138" />
  <metadata
     id="metadata4141">
    <rdf:RDF>
      <cc:Work
         rdf:about="">
        <dc:format>image/svg+xml</dc:format>
        <dc:type
           rdf:resource="http://purl.org/dc/dcmitype/StillImage" />
        <dc:title></dc:title>
      </cc:Work>
    </rdf:RDF>
  </metadata>
  <g
     transform="translate(0,-988.36219)"
     id="layer1">
    <g
       id="text42027"
       style="font-style:normal;font-weight:normal;font-size:40px;line-height:135.00000238%;font-family:sans-serif;letter-spacing:-0.98000002px;word-spacing:0px;fill:#ffffff;fill-opacity:1;stroke:none;stroke-width:1px;stroke-linecap:butt;stroke-linejoin:miter;stroke-opacity:1">
      <path
         id="path42197"
         style="font-style:normal;font-variant:normal;font-weight:bold;font-stretch:normal;font-size:18.75px;line-height:135.00000238%;font-family:'Open Sans';-inkscape-font-specification:'Open Sans Bold';letter-spacing:-0.5px;fill:#ffffff"
         d="m 65.901566,1018.3406 q 0,1.8127 -1.309205,2.8564 -1.300048,1.0437 -3.625488,1.0437 -2.142334,0 -3.790283,-0.8056 l 0,-2.6368 q 1.35498,0.6043 2.288818,0.8515 0.942993,0.2472 1.721192,0.2472 0.933838,0 1.428222,-0.3571 0.50354,-0.357 0.50354,-1.062 0,-0.3937 -0.219726,-0.6958 -0.219727,-0.3113 -0.650025,-0.5951 -0.421142,-0.2838 -1.730346,-0.9064 -1.226807,-0.5767 -1.84021,-1.1077 -0.613404,-0.5311 -0.979614,-1.236 -0.366211,-0.705 -0.366211,-1.648 0,-1.7761 1.19934,-2.7923 1.208497,-1.0163 3.33252,-1.0163 1.043701,0 1.986694,0.2472 0.952149,0.2472 1.986695,0.6958 l -0.915528,2.2065 q -1.071167,-0.4395 -1.776123,-0.6134 -0.695801,-0.174 -1.373291,-0.174 -0.805664,0 -1.235962,0.3754 -0.430298,0.3753 -0.430298,0.9796 0,0.3754 0.173951,0.6592 0.17395,0.2746 0.549316,0.5401 0.384522,0.2564 1.803589,0.9339 1.876831,0.8972 2.572632,1.8036 0.695801,0.8972 0.695801,2.2064 z" />
      <path
         id="path42199"
         style="font-style:normal;font-variant:normal;font-weight:bold;font-stretch:normal;font-size:18.75px;line-height:135.00000238%;font-family:'Open Sans';-inkscape-font-specification:'Open Sans Bold';letter-spacing:-0.5px;fill:#ffffff"
         d="m 71.92012,1020.016 q 0.732422,0 1.757813,-0.3204 l 0,2.0782 q -1.043701,0.4669 -2.563477,0.4669 -1.675415,0 -2.444458,-0.8423 -0.759888,-0.8514 -0.759888,-2.5451 l 0,-4.9347 -1.336669,0 0,-1.1811 1.538085,-0.9338 0.805665,-2.1606 1.785278,0 0,2.1789 2.8656,0 0,2.0966 -2.8656,0 0,4.9347 q 0,0.5951 0.32959,0.8789 0.338745,0.2838 0.888061,0.2838 z" />
      <path
         id="path42201"
         style="font-style:normal;font-variant:normal;font-weight:bold;font-stretch:normal;font-size:18.75px;line-height:135.00000238%;font-family:'Open Sans';-inkscape-font-specification:'Open Sans Bold';letter-spacing:-0.5px;fill:#ffffff"
         d="m 81.738113,1022.0576 -0.540161,-1.3916 -0.07324,0 q -0.704956,0.8881 -1.455688,1.236 -0.741578,0.3387 -1.940918,0.3387 -1.473999,0 -2.32544,-0.8423 -0.842285,-0.8422 -0.842285,-2.3986 0,-1.6297 1.135254,-2.3987 1.144409,-0.7782 3.442383,-0.8606 l 1.776123,-0.055 0,-0.4486 q 0,-1.5564 -1.593018,-1.5564 -1.226806,0 -2.883911,0.7416 l -0.924683,-1.886 q 1.766968,-0.9246 3.918457,-0.9246 2.059937,0 3.15857,0.8972 1.098633,0.8972 1.098633,2.7282 l 0,6.8207 -1.950074,0 z m -0.823974,-4.7424 -1.080322,0.037 q -1.217652,0.037 -1.812745,0.4395 -0.595092,0.4028 -0.595092,1.2268 0,1.181 1.35498,1.181 0.970459,0 1.547241,-0.5585 0.585938,-0.5584 0.585938,-1.4831 l 0,-0.8423 z m -3.103638,-6.6193 0,-0.2472 q 1.574707,-1.831 2.151489,-2.7557 l 3.131104,0 0,0.1923 q -0.476074,0.476 -1.629639,1.419 -1.144409,0.9339 -1.794433,1.3916 l -1.858521,0 z" />
      <path
         id="path42203"
         style="font-style:normal;font-variant:normal;font-weight:bold;font-stretch:normal;font-size:18.75px;line-height:135.00000238%;font-family:'Open Sans';-inkscape-font-specification:'Open Sans Bold';letter-spacing:-0.5px;fill:#ffffff"
         d="m 95.502029,1022.0576 -2.792358,0 0,-5.9784 q 0,-2.2156 -1.647949,-2.2156 -1.171875,0 -1.693726,0.7966 -0.52185,0.7965 -0.52185,2.5817 l 0,4.8157 -2.792359,0 0,-14.2456 2.792359,0 0,2.9022 q 0,0.3388 -0.06409,1.5931 l -0.06409,0.8239 0.146484,0 q 0.933838,-1.5014 2.966309,-1.5014 1.803589,0 2.737427,0.9704 0.933837,0.9705 0.933837,2.7832 l 0,6.6742 z" />
      <path
         id="path42205"
         style="font-style:normal;font-variant:normal;font-weight:bold;font-stretch:normal;font-size:18.75px;line-height:135.00000238%;font-family:'Open Sans';-inkscape-font-specification:'Open Sans Bold';letter-spacing:-0.5px;fill:#ffffff"
         d="m 107.34334,1022.0576 -2.79236,0 0,-5.9784 q 0,-1.1078 -0.39368,-1.6571 -0.39367,-0.5585 -1.25427,-0.5585 -1.17187,0 -1.69373,0.7874 -0.52185,0.7782 -0.52185,2.5909 l 0,4.8157 -2.792354,0 0,-10.2356 2.133174,0 0.37537,1.3092 0.15564,0 q 0.46692,-0.7416 1.28174,-1.1169 0.82397,-0.3845 1.86767,-0.3845 1.78528,0 2.70997,0.9704 0.92468,0.9613 0.92468,2.7832 l 0,6.6742 z" />
      <path
         id="path42207"
         style="font-style:normal;font-variant:normal;font-weight:bold;font-stretch:normal;font-size:18.75px;line-height:135.00000238%;font-family:'Open Sans';-inkscape-font-specification:'Open Sans Bold';letter-spacing:-0.5px;fill:#ffffff"
         d="m 113.9753,1013.6165 q -0.88807,0 -1.39161,0.5676 -0.50354,0.5585 -0.57678,1.593 l 3.91846,0 q -0.0183,-1.0345 -0.54016,-1.593 -0.52185,-0.5676 -1.40991,-0.5676 z m 0.39367,8.6242 q -2.47192,0 -3.86352,-1.3641 -1.3916,-1.3641 -1.3916,-3.8635 0,-2.5727 1.28173,-3.9734 1.2909,-1.4099 3.56141,-1.4099 2.1698,0 3.37829,1.2359 1.2085,1.236 1.2085,3.4149 l 0,1.355 -6.60095,0 q 0.0458,1.1902 0.70495,1.8585 0.65918,0.6684 1.84937,0.6684 0.92468,0 1.74865,-0.1923 0.82398,-0.1922 1.7212,-0.6134 l 0,2.1607 q -0.73243,0.3662 -1.56556,0.5401 -0.83313,0.1831 -2.03247,0.1831 z m 3.57971,-14.5477 0,0.2472 q -0.76904,0.769 -1.41906,1.5381 -0.64087,0.7599 -0.92469,1.2176 l -3.26843,0 q -0.2655,-0.4303 -0.75989,-1.0254 -0.49438,-0.6042 -1.58386,-1.7303 l 0,-0.2472 1.85852,0 q 1.34583,0.8514 2.09656,1.6113 0.76904,-0.7965 2.14233,-1.6113 l 1.85852,0 z" />
      <path
         id="path42209"
         style="font-style:normal;font-variant:normal;font-weight:bold;font-stretch:normal;font-size:18.75px;line-height:135.00000238%;font-family:'Open Sans';-inkscape-font-specification:'Open Sans Bold';letter-spacing:-0.5px;fill:#ffffff"
         d="m 124.64473,1020.016 q 0.73242,0 1.75781,-0.3204 l 0,2.0782 q -1.0437,0.4669 -2.56347,0.4669 -1.67542,0 -2.44446,-0.8423 -0.75989,-0.8514 -0.75989,-2.5451 l 0,-4.9347 -1.33667,0 0,-1.1811 1.53809,-0.9338 0.80566,-2.1606 1.78528,0 0,2.1789 2.8656,0 0,2.0966 -2.8656,0 0,4.9347 q 0,0.5951 0.32959,0.8789 0.33874,0.2838 0.88806,0.2838 z" />
      <path
         id="path42211"
         style="font-style:normal;font-variant:normal;font-weight:bold;font-stretch:normal;font-size:18.75px;line-height:135.00000238%;font-family:'Open Sans';-inkscape-font-specification:'Open Sans Bold';letter-spacing:-0.5px;fill:#ffffff"
         d="m 132.20137,1013.6165 q -0.88806,0 -1.3916,0.5676 -0.50354,0.5585 -0.57678,1.593 l 3.91845,0 q -0.0183,-1.0345 -0.54016,-1.593 -0.52185,-0.5676 -1.40991,-0.5676 z m 0.39368,8.6242 q -2.47193,0 -3.86353,-1.3641 -1.3916,-1.3641 -1.3916,-3.8635 0,-2.5727 1.28174,-3.9734 1.29089,-1.4099 3.5614,-1.4099 2.1698,0 3.3783,1.2359 1.20849,1.236 1.20849,3.4149 l 0,1.355 -6.60095,0 q 0.0458,1.1902 0.70496,1.8585 0.65918,0.6684 1.84936,0.6684 0.92468,0 1.74866,-0.1923 0.82397,-0.1922 1.72119,-0.6134 l 0,2.1607 q -0.73242,0.3662 -1.56555,0.5401 -0.83313,0.1831 -2.03247,0.1831 z" />
      <path
         id="path42213"
         style="font-style:normal;font-variant:normal;font-weight:bold;font-stretch:normal;font-size:18.75px;line-height:135.00000238%;font-family:'Open Sans';-inkscape-font-specification:'Open Sans Bold';letter-spacing:-0.5px;fill:#ffffff"
         d="m 150.07039,1019.0181 q 0,1.5747 -1.09863,2.3986 -1.08948,0.824 -3.26844,0.824 -1.11694,0 -1.90429,-0.1556 -0.78736,-0.1465 -1.474,-0.4395 l 0,-2.3071 q 0.7782,0.3662 1.74865,0.6134 0.97962,0.2472 1.7212,0.2472 1.51977,0 1.51977,-0.8789 0,-0.3296 -0.20141,-0.531 -0.20142,-0.2106 -0.69581,-0.4669 -0.49438,-0.2655 -1.31835,-0.6134 -1.18103,-0.4944 -1.73951,-0.9156 -0.54931,-0.4211 -0.80566,-0.9613 -0.24719,-0.5493 -0.24719,-1.3458 0,-1.3641 1.05285,-2.1057 1.06202,-0.7507 3.00293,-0.7507 1.84937,0 3.59803,0.8056 l -0.84229,2.0142 q -0.76904,-0.3296 -1.43738,-0.5402 -0.66833,-0.2105 -1.36413,-0.2105 -1.23597,0 -1.23597,0.6683 0,0.3754 0.39368,0.65 0.40283,0.2747 1.74866,0.8148 1.19934,0.4853 1.75781,0.9064 0.55847,0.4211 0.82398,0.9705 0.2655,0.5493 0.2655,1.3092 z" />
      <path
         id="path42215"
         style="font-style:normal;font-variant:normal;font-weight:bold;font-stretch:normal;font-size:18.75px;line-height:135.00000238%;font-family:'Open Sans';-inkscape-font-specification:'Open Sans Bold';letter-spacing:-0.5px;fill:#ffffff"
         d="m 151.64864,1009.1761 q 0,-1.3641 1.51977,-1.3641 1.51978,0 1.51978,1.3641 0,0.6501 -0.38452,1.0163 -0.37537,0.357 -1.13526,0.357 -1.51977,0 -1.51977,-1.3733 z m 2.91137,12.8815 -2.79236,0 0,-10.2356 2.79236,0 0,10.2356 z" />
      <path
         id="path42217"
         style="font-style:normal;font-variant:normal;font-weight:bold;font-stretch:normal;font-size:18.75px;line-height:135.00000238%;font-family:'Open Sans';-inkscape-font-specification:'Open Sans Bold';letter-spacing:-0.5px;fill:#ffffff"
         d="m 168.47395,1022.0576 -8.0841,0 0,-1.6479 4.74243,-6.4545 -4.45862,0 0,-2.1332 7.6355,0 0,1.8128 -4.61426,6.2896 4.77905,0 0,2.1332 z" />
      <path
         id="path42219"
         style="font-style:normal;font-variant:normal;font-weight:bold;font-stretch:normal;font-size:18.75px;line-height:135.00000238%;font-family:'Open Sans';-inkscape-font-specification:'Open Sans Bold';letter-spacing:-0.5px;fill:#ffffff"
         d="m 173.24739,1022.2407 q -1.80359,0 -2.83813,-1.4007 -1.02539,-1.4008 -1.02539,-3.8819 0,-2.5177 1.0437,-3.9184 1.05285,-1.4099 2.89306,-1.4099 1.93177,0 2.948,1.5014 l 0.0916,0 q -0.21057,-1.1444 -0.21057,-2.0416 l 0,-3.2776 2.80152,0 0,14.2456 -2.14234,0 -0.54016,-1.3275 -0.11902,0 q -0.95215,1.5106 -2.90222,1.5106 z m 0.97962,-2.2247 q 1.07116,0 1.56555,-0.6226 0.50354,-0.6225 0.54931,-2.1148 l 0,-0.3022 q 0,-1.6479 -0.51269,-2.362 -0.50354,-0.7141 -1.64795,-0.7141 -0.93384,0 -1.45569,0.7965 -0.5127,0.7873 -0.5127,2.298 0,1.5106 0.52186,2.2705 0.52185,0.7507 1.49231,0.7507 z" />
      <path
         id="path42221"
         style="font-style:normal;font-variant:normal;font-weight:bold;font-stretch:normal;font-size:18.75px;line-height:135.00000238%;font-family:'Open Sans';-inkscape-font-specification:'Open Sans Bold';letter-spacing:-0.5px;fill:#ffffff"
         d="m 187.8719,1022.0576 -0.54016,-1.3916 -0.0732,0 q -0.70496,0.8881 -1.45569,1.236 -0.74158,0.3387 -1.94092,0.3387 -1.474,0 -2.32544,-0.8423 -0.84228,-0.8422 -0.84228,-2.3986 0,-1.6297 1.13525,-2.3987 1.14441,-0.7782 3.44238,-0.8606 l 1.77613,-0.055 0,-0.4486 q 0,-1.5564 -1.59302,-1.5564 -1.22681,0 -2.88391,0.7416 l -0.92468,-1.886 q 1.76696,-0.9246 3.91845,-0.9246 2.05994,0 3.15857,0.8972 1.09864,0.8972 1.09864,2.7282 l 0,6.8207 -1.95008,0 z m -0.82397,-4.7424 -1.08032,0.037 q -1.21766,0.037 -1.81275,0.4395 -0.59509,0.4028 -0.59509,1.2268 0,1.181 1.35498,1.181 0.97046,0 1.54724,-0.5585 0.58594,-0.5584 0.58594,-1.4831 l 0,-0.8423 z" />
      <path
         id="path42223"
         style="font-style:normal;font-variant:normal;font-weight:bold;font-stretch:normal;font-size:18.75px;line-height:135.00000238%;font-family:'Open Sans';-inkscape-font-specification:'Open Sans Bold';letter-spacing:-0.5px;fill:#ffffff"
         d="m 197.90047,1011.6298 q 0.56762,0 0.94299,0.082 l -0.21057,2.6184 q -0.33875,-0.092 -0.82398,-0.092 -1.33667,0 -2.0874,0.6867 -0.74158,0.6866 -0.74158,1.9226 l 0,5.2093 -2.79235,0 0,-10.2356 2.11486,0 0.41199,1.7212 0.13733,0 q 0.47608,-0.8606 1.28174,-1.3824 0.81482,-0.531 1.76697,-0.531 z" />
      <path
         id="path42225"
         style="font-style:normal;font-variant:normal;font-weight:bold;font-stretch:normal;font-size:18.75px;line-height:135.00000238%;font-family:'Open Sans';-inkscape-font-specification:'Open Sans Bold';letter-spacing:-0.5px;fill:#ffffff"
         d="m 209.38472,1022.0576 -2.79236,0 0,-5.9784 q 0,-1.1078 -0.37536,-1.6571 -0.36622,-0.5585 -1.16272,-0.5585 -1.07117,0 -1.5564,0.7874 -0.48523,0.7874 -0.48523,2.5909 l 0,4.8157 -2.79236,0 0,-10.2356 2.13318,0 0.37537,1.3092 0.15564,0 q 0.41198,-0.7049 1.19018,-1.0986 0.7782,-0.4028 1.78528,-0.4028 2.29797,0 3.11279,1.5014 l 0.24719,0 q 0.41199,-0.7141 1.2085,-1.1078 0.80567,-0.3936 1.81275,-0.3936 1.7395,0 2.62756,0.8972 0.89722,0.888 0.89722,2.8564 l 0,6.6742 -2.80152,0 0,-5.9784 q 0,-1.1078 -0.37536,-1.6571 -0.36622,-0.5585 -1.16272,-0.5585 -1.02539,0 -1.53809,0.7325 -0.50354,0.7324 -0.50354,2.3254 l 0,5.1361 z" />
      <path
         id="path42227"
         style="font-style:normal;font-variant:normal;font-weight:bold;font-stretch:normal;font-size:18.75px;line-height:135.00000238%;font-family:'Open Sans';-inkscape-font-specification:'Open Sans Bold';letter-spacing:-0.5px;fill:#ffffff"
         d="m 224.64095,1022.0576 -0.54017,-1.3916 -0.0732,0 q -0.70495,0.8881 -1.45569,1.236 -0.74157,0.3387 -1.94091,0.3387 -1.474,0 -2.32544,-0.8423 -0.84229,-0.8422 -0.84229,-2.3986 0,-1.6297 1.13525,-2.3987 1.14441,-0.7782 3.44239,-0.8606 l 1.77612,-0.055 0,-0.4486 q 0,-1.5564 -1.59302,-1.5564 -1.2268,0 -2.88391,0.7416 l -0.92468,-1.886 q 1.76697,-0.9246 3.91846,-0.9246 2.05993,0 3.15857,0.8972 1.09863,0.8972 1.09863,2.7282 l 0,6.8207 -1.95007,0 z m -0.82398,-4.7424 -1.08032,0.037 q -1.21765,0.037 -1.81275,0.4395 -0.59509,0.4028 -0.59509,1.2268 0,1.181 1.35498,1.181 0.97046,0 1.54724,-0.5585 0.58594,-0.5584 0.58594,-1.4831 l 0,-0.8423 z" />
      <path
         id="path42229"
         style="font-style:normal;font-variant:normal;font-weight:normal;font-stretch:normal;font-size:18.75px;line-height:135.00000238%;font-family:'Open Sans';-inkscape-font-specification:'Open Sans';letter-spacing:-0.5px;fill:#ffffff"
         d="m 64.793777,1047.3701 0,-6.4911 q 0,-1.2268 -0.558471,-1.831 -0.558472,-0.6043 -1.748657,-0.6043 -1.574707,0 -2.307129,0.8515 -0.732422,0.8514 -0.732422,2.8106 l 0,5.2643 -1.519776,0 0,-10.0342 1.235962,0 0.247193,1.3733 0.07324,0 q 0.466919,-0.7415 1.309204,-1.1444 0.842285,-0.412 1.876831,-0.412 1.812744,0 2.728272,0.8789 0.915527,0.8698 0.915527,2.7924 l 0,6.546 -1.519776,0 z" />
      <path
         id="path42231"
         style="font-style:normal;font-variant:normal;font-weight:normal;font-stretch:normal;font-size:18.75px;line-height:135.00000238%;font-family:'Open Sans';-inkscape-font-specification:'Open Sans';letter-spacing:-0.5px;fill:#ffffff"
         d="m 75.097,1047.3701 -0.302124,-1.4282 -0.07324,0 q -0.750733,0.943 -1.501465,1.2817 -0.741577,0.3296 -1.85852,0.3296 -1.49231,0 -2.34375,-0.769 -0.842286,-0.7691 -0.842286,-2.1881 0,-3.0396 4.861451,-3.1861 l 1.70288,-0.055 0,-0.6226 q 0,-1.181 -0.512695,-1.7395 -0.50354,-0.5676 -1.620483,-0.5676 -1.254273,0 -2.838135,0.7691 l -0.466919,-1.1628 q 0.741577,-0.4028 1.620483,-0.6317 0.888062,-0.2289 1.776123,-0.2289 1.794434,0 2.65503,0.7966 0.869751,0.7965 0.869751,2.5543 l 0,6.8481 -1.126099,0 z m -3.433227,-1.0711 q 1.419067,0 2.224731,-0.7782 0.814819,-0.7782 0.814819,-2.179 l 0,-0.9064 -1.519775,0.064 q -1.812744,0.064 -2.618408,0.5676 -0.796509,0.4944 -0.796509,1.5473 0,0.824 0.494385,1.2543 0.50354,0.4303 1.400757,0.4303 z" />
      <path
         id="path42233"
         style="font-style:normal;font-variant:normal;font-weight:normal;font-stretch:normal;font-size:18.75px;line-height:135.00000238%;font-family:'Open Sans';-inkscape-font-specification:'Open Sans';letter-spacing:-0.5px;fill:#ffffff"
         d="m 85.336136,1044.6327 q 0,1.4007 -1.043701,2.1606 -1.043701,0.7599 -2.929688,0.7599 -1.995849,0 -3.112793,-0.6317 l 0,-1.4099 q 0.723267,0.3662 1.547241,0.5768 0.83313,0.2106 1.602173,0.2106 1.190186,0 1.831055,-0.3754 0.640869,-0.3845 0.640869,-1.1627 0,-0.586 -0.512695,-0.998 -0.50354,-0.4211 -1.977539,-0.9887 -1.400757,-0.5219 -1.99585,-0.9064 -0.585937,-0.3937 -0.878906,-0.8881 -0.283814,-0.4943 -0.283814,-1.181 0,-1.2268 0.997925,-1.9318 0.997925,-0.7141 2.737427,-0.7141 1.620483,0 3.167725,0.6592 l -0.540162,1.236 q -1.51062,-0.6226 -2.737426,-0.6226 -1.080323,0 -1.629639,0.3388 -0.549316,0.3387 -0.549316,0.9338 0,0.4028 0.201416,0.6866 0.210571,0.2839 0.668335,0.5402 0.457763,0.2564 1.757812,0.7416 1.785278,0.65 2.407837,1.3092 0.631714,0.6592 0.631714,1.6571 z m -6.573486,-11.6272 1.052856,0 q 1.043701,0.6775 2.005005,1.7303 1.190185,-1.1901 2.023315,-1.7303 l 1.089478,0 0,0.2289 -0.604248,0.6225 q -1.31836,1.355 -1.739502,2.1515 l -1.519776,0 q -0.210571,-0.3753 -0.67749,-0.9521 -0.466919,-0.5768 -1.629638,-1.8219 l 0,-0.2289 z" />
      <path
         id="path42235"
         style="font-style:normal;font-variant:normal;font-weight:normal;font-stretch:normal;font-size:18.75px;line-height:135.00000238%;font-family:'Open Sans';-inkscape-font-specification:'Open Sans';letter-spacing:-0.5px;fill:#ffffff"
         d="m 91.537796,1047.5532 q -2.224731,0 -3.515625,-1.355 -1.281738,-1.3549 -1.281738,-3.7628 0,-2.4261 1.190185,-3.8543 1.199341,-1.4283 3.213501,-1.4283 1.885987,0 2.984619,1.2451 1.098633,1.236 1.098633,3.2685 l 0,0.9613 -6.912231,0 q 0.04578,1.767 0.888061,2.6825 0.851441,0.9155 2.389527,0.9155 1.620483,0 3.204345,-0.6775 l 0,1.355 q -0.805664,0.3479 -1.52893,0.4944 -0.714112,0.1556 -1.730347,0.1556 z m -0.411987,-9.1278 q -1.208496,0 -1.931763,0.7874 -0.714111,0.7873 -0.842285,2.1789 l 5.245972,0 q 0,-1.4374 -0.64087,-2.1972 -0.640869,-0.7691 -1.831054,-0.7691 z" />
      <path
         id="path42237"
         style="font-style:normal;font-variant:normal;font-weight:normal;font-stretch:normal;font-size:18.75px;line-height:135.00000238%;font-family:'Open Sans';-inkscape-font-specification:'Open Sans';letter-spacing:-0.5px;fill:#ffffff"
         d="m 114.46968,1047.3701 0,-6.5277 q 0,-1.1993 -0.51269,-1.7944 -0.5127,-0.6043 -1.59302,-0.6043 -1.41907,0 -2.09656,0.8148 -0.67749,0.8149 -0.67749,2.5086 l 0,5.603 -1.51978,0 0,-6.5277 q 0,-1.1993 -0.51269,-1.7944 -0.5127,-0.6043 -1.60217,-0.6043 -1.42823,0 -2.09656,0.8606 -0.65918,0.8515 -0.65918,2.8015 l 0,5.2643 -1.51978,0 0,-10.0342 1.23597,0 0.24719,1.3733 0.0732,0 q 0.4303,-0.7324 1.2085,-1.1444 0.78735,-0.412 1.75781,-0.412 2.3529,0 3.07617,1.7029 l 0.0732,0 q 0.44861,-0.7873 1.30005,-1.2451 0.85144,-0.4578 1.94092,-0.4578 1.70288,0 2.54517,0.8789 0.85144,0.8698 0.85144,2.7924 l 0,6.546 -1.51978,0 z" />
      <path
         id="path42239"
         style="font-style:normal;font-variant:normal;font-weight:normal;font-stretch:normal;font-size:18.75px;line-height:135.00000238%;font-family:'Open Sans';-inkscape-font-specification:'Open Sans';letter-spacing:-0.5px;fill:#ffffff"
         d="m 127.27229,1042.3439 q 0,2.4536 -1.23596,3.836 -1.23596,1.3733 -3.41492,1.3733 -1.34582,0 -2.38952,-0.6317 -1.0437,-0.6317 -1.61133,-1.8127 -0.56763,-1.1811 -0.56763,-2.7649 0,-2.4536 1.22681,-3.8178 1.22681,-1.3733 3.40576,-1.3733 2.10571,0 3.34168,1.4008 1.24511,1.4007 1.24511,3.7903 z m -7.64465,0 q 0,1.9226 0.76904,2.9297 0.76905,1.007 2.26136,1.007 1.4923,0 2.26135,-0.9979 0.7782,-1.0071 0.7782,-2.9388 0,-1.9135 -0.7782,-2.9022 -0.76905,-0.998 -2.27967,-0.998 -1.4923,0 -2.25219,0.9796 -0.75989,0.9797 -0.75989,2.9206 z" />
      <path
         id="path42241"
         style="font-style:normal;font-variant:normal;font-weight:normal;font-stretch:normal;font-size:18.75px;line-height:135.00000238%;font-family:'Open Sans';-inkscape-font-specification:'Open Sans';letter-spacing:-0.5px;fill:#ffffff"
         d="m 134.09651,1037.1711 q 1.97754,0 3.06702,1.355 1.09863,1.3458 1.09863,3.8178 0,2.4719 -1.10779,3.8452 -1.09863,1.3641 -3.05786,1.3641 -0.97961,0 -1.79443,-0.357 -0.80567,-0.3662 -1.35498,-1.117 l -0.10987,0 -0.32043,1.2909 -1.08948,0 0,-14.2456 1.51978,0 0,3.4607 q 0,1.1627 -0.0732,2.0874 l 0.0732,0 q 1.06201,-1.5015 3.14941,-1.5015 z m -0.21972,1.2726 q -1.5564,0 -2.24305,0.8972 -0.68664,0.8881 -0.68664,3.003 0,2.1148 0.70495,3.0304 0.70496,0.9063 2.26136,0.9063 1.40075,0 2.0874,-1.0162 0.68664,-1.0254 0.68664,-2.9388 0,-1.9593 -0.68664,-2.9206 -0.68665,-0.9613 -2.12402,-0.9613 z" />
      <path
         id="path42243"
         style="font-style:normal;font-variant:normal;font-weight:normal;font-stretch:normal;font-size:18.75px;line-height:135.00000238%;font-family:'Open Sans';-inkscape-font-specification:'Open Sans';letter-spacing:-0.5px;fill:#ffffff"
         d="m 141.94612,1047.3701 -1.51977,0 0,-10.0342 1.51977,0 0,10.0342 z m -1.64795,-12.7533 q 0,-0.5218 0.25635,-0.7599 0.25635,-0.2472 0.64087,-0.2472 0.36621,0 0.63171,0.2472 0.26551,0.2472 0.26551,0.7599 0,0.5127 -0.26551,0.7691 -0.2655,0.2472 -0.63171,0.2472 -0.38452,0 -0.64087,-0.2472 -0.25635,-0.2564 -0.25635,-0.7691 z" />
      <path
         id="path42245"
         style="font-style:normal;font-variant:normal;font-weight:normal;font-stretch:normal;font-size:18.75px;line-height:135.00000238%;font-family:'Open Sans';-inkscape-font-specification:'Open Sans';letter-spacing:-0.5px;fill:#ffffff"
         d="m 146.20686,1047.3701 -1.51977,0 0,-14.2456 1.51977,0 0,14.2456 z" />
      <path
         id="path42247"
         style="font-style:normal;font-variant:normal;font-weight:normal;font-stretch:normal;font-size:18.75px;line-height:135.00000238%;font-family:'Open Sans';-inkscape-font-specification:'Open Sans';letter-spacing:-0.5px;fill:#ffffff"
         d="m 155.81429,1047.3701 0,-6.4911 q 0,-1.2268 -0.55848,-1.831 -0.55847,-0.6043 -1.74865,-0.6043 -1.57471,0 -2.30713,0.8515 -0.73242,0.8514 -0.73242,2.8106 l 0,5.2643 -1.51978,0 0,-10.0342 1.23596,0 0.24719,1.3733 0.0733,0 q 0.46692,-0.7415 1.3092,-1.1444 0.84229,-0.412 1.87683,-0.412 1.81275,0 2.72827,0.8789 0.91553,0.8698 0.91553,2.7924 l 0,6.546 -1.51977,0 z" />
      <path
         id="path42249"
         style="font-style:normal;font-variant:normal;font-weight:normal;font-stretch:normal;font-size:18.75px;line-height:135.00000238%;font-family:'Open Sans';-inkscape-font-specification:'Open Sans';letter-spacing:-0.5px;fill:#ffffff"
         d="m 161.46663,1047.3701 -1.51978,0 0,-10.0342 1.51978,0 0,10.0342 z m -1.58386,-11.5906 q 0.43945,-0.5676 0.94299,-1.3732 0.5127,-0.8057 0.80566,-1.4008 l 1.84937,0 0,0.1923 q -0.40283,0.595 -1.19934,1.4648 -0.79651,0.8697 -1.38245,1.3458 l -1.01623,0 0,-0.2289 z" />
      <path
         id="path42251"
         style="font-style:normal;font-variant:normal;font-weight:normal;font-stretch:normal;font-size:18.75px;line-height:135.00000238%;font-family:'Open Sans';-inkscape-font-specification:'Open Sans';letter-spacing:-0.5px;fill:#ffffff"
         d="m 174.74886,1047.3701 -0.30213,-1.4282 -0.0732,0 q -0.75073,0.943 -1.50147,1.2817 -0.74157,0.3296 -1.85852,0.3296 -1.49231,0 -2.34375,-0.769 -0.84228,-0.7691 -0.84228,-2.1881 0,-3.0396 4.86145,-3.1861 l 1.70288,-0.055 0,-0.6226 q 0,-1.181 -0.5127,-1.7395 -0.50354,-0.5676 -1.62048,-0.5676 -1.25427,0 -2.83813,0.7691 l -0.46692,-1.1628 q 0.74157,-0.4028 1.62048,-0.6317 0.88806,-0.2289 1.77612,-0.2289 1.79444,0 2.65503,0.7966 0.86975,0.7965 0.86975,2.5543 l 0,6.8481 -1.12609,0 z m -3.43323,-1.0711 q 1.41907,0 2.22473,-0.7782 0.81482,-0.7782 0.81482,-2.179 l 0,-0.9064 -1.51978,0.064 q -1.81274,0.064 -2.6184,0.5676 -0.79651,0.4944 -0.79651,1.5473 0,0.824 0.49438,1.2543 0.50354,0.4303 1.40076,0.4303 z" />
      <path
         id="path42253"
         style="font-style:normal;font-variant:normal;font-weight:normal;font-stretch:normal;font-size:18.75px;line-height:135.00000238%;font-family:'Open Sans';-inkscape-font-specification:'Open Sans';letter-spacing:-0.5px;fill:#ffffff"
         d="m 183.1844,1047.5532 q -0.97961,0 -1.79443,-0.357 -0.80567,-0.3662 -1.35498,-1.117 l -0.10986,0 q 0.10986,0.8789 0.10986,1.6663 l 0,4.129 -1.51978,0 0,-14.5386 1.23596,0 0.21058,1.3733 0.0732,0 q 0.58594,-0.8239 1.36413,-1.1902 0.7782,-0.3662 1.78528,-0.3662 1.99585,0 3.07617,1.3642 1.08948,1.3641 1.08948,3.8269 0,2.4719 -1.10779,3.8452 -1.09863,1.3641 -3.05786,1.3641 z m -0.21972,-9.1095 q -1.53809,0 -2.22474,0.8515 -0.68664,0.8514 -0.70495,2.7099 l 0,0.3388 q 0,2.1148 0.70495,3.0304 0.70496,0.9063 2.26136,0.9063 1.30005,0 2.03247,-1.0528 0.74157,-1.0529 0.74157,-2.9022 0,-1.8769 -0.74157,-2.8748 -0.73242,-1.0071 -2.06909,-1.0071 z" />
      <path
         id="path42255"
         style="font-style:normal;font-variant:normal;font-weight:normal;font-stretch:normal;font-size:18.75px;line-height:135.00000238%;font-family:'Open Sans';-inkscape-font-specification:'Open Sans';letter-spacing:-0.5px;fill:#ffffff"
         d="m 191.03401,1047.3701 -1.51977,0 0,-14.2456 1.51977,0 0,14.2456 z" />
      <path
         id="path42257"
         style="font-style:normal;font-variant:normal;font-weight:normal;font-stretch:normal;font-size:18.75px;line-height:135.00000238%;font-family:'Open Sans';-inkscape-font-specification:'Open Sans';letter-spacing:-0.5px;fill:#ffffff"
         d="m 195.29475,1047.3701 -1.51977,0 0,-10.0342 1.51977,0 0,10.0342 z m -1.64795,-12.7533 q 0,-0.5218 0.25635,-0.7599 0.25635,-0.2472 0.64087,-0.2472 0.36621,0 0.63172,0.2472 0.2655,0.2472 0.2655,0.7599 0,0.5127 -0.2655,0.7691 -0.26551,0.2472 -0.63172,0.2472 -0.38452,0 -0.64087,-0.2472 -0.25635,-0.2564 -0.25635,-0.7691 z" />
      <path
         id="path42259"
         style="font-style:normal;font-variant:normal;font-weight:normal;font-stretch:normal;font-size:18.75px;line-height:135.00000238%;font-family:'Open Sans';-inkscape-font-specification:'Open Sans';letter-spacing:-0.5px;fill:#ffffff"
         d="m 199.53719,1042.234 q 0.39367,-0.5585 1.19934,-1.4648 l 3.24096,-3.4333 1.80359,0 -4.06494,4.2756 4.34876,5.7586 -1.84021,0 -3.5431,-4.7424 -1.1444,0.9888 0,3.7536 -1.50147,0 0,-14.2456 1.50147,0 0,7.5531 q 0,0.5036 -0.0733,1.5564 l 0.0733,0 z" />
      <path
         id="path42261"
         style="font-style:normal;font-variant:normal;font-weight:normal;font-stretch:normal;font-size:18.75px;line-height:135.00000238%;font-family:'Open Sans';-inkscape-font-specification:'Open Sans';letter-spacing:-0.5px;fill:#ffffff"
         d="m 213.55745,1047.3701 -0.30212,-1.4282 -0.0732,0 q -0.75073,0.943 -1.50146,1.2817 -0.74158,0.3296 -1.85852,0.3296 -1.49231,0 -2.34375,-0.769 -0.84229,-0.7691 -0.84229,-2.1881 0,-3.0396 4.86145,-3.1861 l 1.70288,-0.055 0,-0.6226 q 0,-1.181 -0.51269,-1.7395 -0.50354,-0.5676 -1.62049,-0.5676 -1.25427,0 -2.83813,0.7691 l -0.46692,-1.1628 q 0.74158,-0.4028 1.62048,-0.6317 0.88807,-0.2289 1.77613,-0.2289 1.79443,0 2.65503,0.7966 0.86975,0.7965 0.86975,2.5543 l 0,6.8481 -1.1261,0 z m -3.43323,-1.0711 q 1.41907,0 2.22473,-0.7782 0.81482,-0.7782 0.81482,-2.179 l 0,-0.9064 -1.51977,0.064 q -1.81275,0.064 -2.61841,0.5676 -0.79651,0.4944 -0.79651,1.5473 0,0.824 0.49438,1.2543 0.50355,0.4303 1.40076,0.4303 z" />
      <path
         id="path42263"
         style="font-style:normal;font-variant:normal;font-weight:normal;font-stretch:normal;font-size:18.75px;line-height:135.00000238%;font-family:'Open Sans';-inkscape-font-specification:'Open Sans';letter-spacing:-0.5px;fill:#ffffff"
         d="m 221.33382,1047.5532 q -2.17896,0 -3.3783,-1.3366 -1.19018,-1.3459 -1.19018,-3.7995 0,-2.5177 1.20849,-3.891 1.21765,-1.3733 3.46069,-1.3733 0.72327,0 1.44654,0.1557 0.72326,0.1556 1.13525,0.3662 l -0.46692,1.2909 q -0.50354,-0.2014 -1.09863,-0.3296 -0.59509,-0.1373 -1.05286,-0.1373 -3.05786,0 -3.05786,3.9001 0,1.8494 0.74158,2.8381 0.75073,0.9888 2.21558,0.9888 1.25427,0 2.57263,-0.5402 l 0,1.3459 q -1.00708,0.5218 -2.53601,0.5218 z" />
      <path
         id="path42265"
         style="font-style:normal;font-variant:normal;font-weight:normal;font-stretch:normal;font-size:18.75px;line-height:135.00000238%;font-family:'Open Sans';-inkscape-font-specification:'Open Sans';letter-spacing:-0.5px;fill:#ffffff"
         d="m 229.99825,1047.5532 q -2.22474,0 -3.51563,-1.355 -1.28174,-1.3549 -1.28174,-3.7628 0,-2.4261 1.19019,-3.8543 1.19934,-1.4283 3.2135,-1.4283 1.88598,0 2.98462,1.2451 1.09863,1.236 1.09863,3.2685 l 0,0.9613 -6.91223,0 q 0.0458,1.767 0.88806,2.6825 0.85144,0.9155 2.38953,0.9155 1.62048,0 3.20434,-0.6775 l 0,1.355 q -0.80566,0.3479 -1.52893,0.4944 -0.71411,0.1556 -1.73034,0.1556 z m -0.41199,-9.1278 q -1.2085,0 -1.93176,0.7874 -0.71412,0.7873 -0.84229,2.1789 l 5.24597,0 q 0,-1.4374 -0.64087,-2.1972 -0.64087,-0.7691 -1.83105,-0.7691 z" />
    </g>
    <g
       style="opacity:0.5"
       transform="matrix(1.0872601,0,0,1.0872601,-0.7339208,-89.961226)"
       id="g42189">
      <path
         d="m 12.041488,1011.5029 c -1.089229,0 -1.936406,0.8472 -1.936406,1.9364 l 0,30.2564 c 0,1.0892 0.847177,1.9364 1.936406,1.9364 l 14.523042,0 c 1.089228,0 1.936405,-0.8472 1.936405,-1.9364 l 0,-30.2564 c 0,-1.0892 -0.847177,-1.9364 -1.936405,-1.9364 l -14.523042,0 z m 0,-1.6943 14.523042,0 c 2.05743,0 3.63076,1.5733 3.63076,3.6307 l 0,30.2564 c 0,2.0574 -1.57333,3.6307 -3.63076,3.6307 l -14.523042,0 c -2.0574314,0 -3.630761,-1.5733 -3.630761,-3.6307 l 0,-30.2564 c 0,-1.9364 1.694355,-3.6307 3.630761,-3.6307 z"
         class="st0"
         id="Rectangle-9"
         style="fill:#ffffff" />
      <path
         d="m 29.469138,1038.8547 -20.2112335,0 c -0.4841014,0 -0.7261521,0.363 -0.7261521,0.7261 0,0.4841 0.363076,0.7262 0.7261521,0.7262 l 20.2112335,0 c 0.484101,0 0.726152,-0.3631 0.726152,-0.7262 0,-0.3631 -0.363076,-0.7261 -0.726152,-0.7261 z"
         class="st0"
         id="Stroke-5156"
         style="fill:#ffffff" />
      <path
         d="m 29.469138,1014.6496 -20.2112335,0 c -0.4841014,0 -0.8471775,0.3631 -0.8471775,0.8472 0,0.4841 0.3630761,0.8471 0.7261521,0.8471 l 20.2112339,0 c 0.484101,0 0.726152,-0.363 0.726152,-0.8471 0,-0.4841 -0.242051,-0.8472 -0.605127,-0.8472 z"
         class="st0"
         id="Stroke-5157"
         style="fill:#ffffff" />
      <path
         d="m 16.277375,1013.8024 6.051267,0 c 0.363076,0 0.605127,-0.3631 0.605127,-0.7261 0,-0.4841 -0.242051,-0.8472 -0.605127,-0.8472 l -6.051267,0 c -0.363076,0 -0.605127,0.3631 -0.605127,0.8472 0,0.363 0.242051,0.7261 0.605127,0.7261 z"
         class="st0"
         id="Stroke-5158"
         style="fill:#ffffff" />
      <path
         d="m 19.666085,1044.3008 c -0.847178,0 -1.331279,-0.7261 -1.331279,-1.3313 0,-0.7261 0.726152,-1.3313 1.331279,-1.3313 0.847177,0 1.331278,0.7262 1.331278,1.3313 0,0.6052 -0.726152,1.3313 -1.331278,1.3313 z"
         class="st0"
         id="Stroke-5159"
         style="fill:#ffffff" />
    </g>
  </g>
  <style
     type="text/css"
     id="style42132">
	.st0{fill:#00497B;}
</style>
</svg>
