<?xml version="1.0" encoding="UTF-8" standalone="no"?>
<svg
   xmlns:dc="http://purl.org/dc/elements/1.1/"
   xmlns:cc="http://creativecommons.org/ns#"
   xmlns:rdf="http://www.w3.org/1999/02/22-rdf-syntax-ns#"
   xmlns:svg="http://www.w3.org/2000/svg"
   xmlns="http://www.w3.org/2000/svg"
   version="1.1"
   id="svg4136"
   viewBox="0 0 232.99999 60"
   height="60"
   width="233">
  <defs
     id="defs4138" />
  <metadata
     id="metadata4141">
    <rdf:RDF>
      <cc:Work
         rdf:about="">
        <dc:format>image/svg+xml</dc:format>
        <dc:type
           rdf:resource="http://purl.org/dc/dcmitype/StillImage" />
        <dc:title></dc:title>
      </cc:Work>
    </rdf:RDF>
  </metadata>
  <g
     transform="translate(0,-992.36219)"
     id="layer1">
    <g
       id="text42027"
       style="font-style:normal;font-weight:normal;font-size:40px;line-height:135.00000238%;font-family:sans-serif;letter-spacing:-0.98000002px;word-spacing:0px;fill:#ffffff;fill-opacity:1;stroke:none;stroke-width:1px;stroke-linecap:butt;stroke-linejoin:miter;stroke-opacity:1">
      <path
         id="path42065"
         style="font-style:normal;font-variant:normal;font-weight:bold;font-stretch:normal;font-size:18.75px;line-height:135.00000238%;font-family:'Open Sans';-inkscape-font-specification:'Open Sans Bold';letter-spacing:-0.5px;fill:#ffffff"
         d="m 65.636063,1008.6726 2.8656,0 -4.550171,13.385 -3.094482,0 -4.541016,-13.385 2.865601,0 2.5177,7.9651 q 0.210571,0.705 0.430298,1.6479 0.228882,0.9339 0.283813,1.3001 0.100708,-0.8423 0.686646,-2.948 l 2.536011,-7.9651 z" />
      <path
         id="path42067"
         style="font-style:normal;font-variant:normal;font-weight:bold;font-stretch:normal;font-size:18.75px;line-height:135.00000238%;font-family:'Open Sans';-inkscape-font-specification:'Open Sans Bold';letter-spacing:-0.5px;fill:#ffffff"
         d="m 71.700394,1016.9215 q 0,1.5198 0.494384,2.298 0.50354,0.7782 1.629639,0.7782 1.116943,0 1.602173,-0.7691 0.494385,-0.7782 0.494385,-2.3071 0,-1.5198 -0.494385,-2.2797 -0.494385,-0.7598 -1.620483,-0.7598 -1.116944,0 -1.611329,0.7598 -0.494384,0.7508 -0.494384,2.2797 z m 7.077026,0 q 0,2.4994 -1.318359,3.9093 -1.31836,1.4099 -3.671265,1.4099 -1.473999,0 -2.600098,-0.6408 -1.126098,-0.6501 -1.730346,-1.8586 -0.604248,-1.2085 -0.604248,-2.8198 0,-2.5085 1.309204,-3.9001 1.309204,-1.3916 3.68042,-1.3916 1.473999,0 2.600097,0.6408 1.126099,0.6409 1.730347,1.8402 0.604248,1.1994 0.604248,2.8107 z" />
      <path
         id="path42069"
         style="font-style:normal;font-variant:normal;font-weight:bold;font-stretch:normal;font-size:18.75px;line-height:135.00000238%;font-family:'Open Sans';-inkscape-font-specification:'Open Sans Bold';letter-spacing:-0.5px;fill:#ffffff"
         d="m 83.376907,1022.0576 -2.792358,0 0,-14.2456 2.792358,0 0,14.2456 z" />
      <path
         id="path42071"
         style="font-style:normal;font-variant:normal;font-weight:bold;font-stretch:normal;font-size:18.75px;line-height:135.00000238%;font-family:'Open Sans';-inkscape-font-specification:'Open Sans Bold';letter-spacing:-0.5px;fill:#ffffff"
         d="m 90.036331,1013.6165 q -0.888061,0 -1.391601,0.5676 -0.50354,0.5585 -0.576783,1.593 l 3.918457,0 q -0.01831,-1.0345 -0.540161,-1.593 -0.52185,-0.5676 -1.409912,-0.5676 z m 0.393677,8.6242 q -2.471924,0 -3.863525,-1.3641 -1.391602,-1.3641 -1.391602,-3.8635 0,-2.5727 1.281738,-3.9734 1.290894,-1.4099 3.561402,-1.4099 2.169799,0 3.378296,1.2359 1.208496,1.236 1.208496,3.4149 l 0,1.355 -6.600953,0 q 0.04578,1.1902 0.704957,1.8585 0.659179,0.6684 1.849365,0.6684 0.924682,0 1.748657,-0.1923 0.823975,-0.1922 1.721191,-0.6134 l 0,2.1607 q -0.732421,0.3662 -1.565551,0.5401 -0.83313,0.1831 -2.032471,0.1831 z" />
      <path
         id="path42073"
         style="font-style:normal;font-variant:normal;font-weight:bold;font-stretch:normal;font-size:18.75px;line-height:135.00000238%;font-family:'Open Sans';-inkscape-font-specification:'Open Sans Bold';letter-spacing:-0.5px;fill:#ffffff"
         d="m 95.569656,1026.562 q -1.071167,0 -1.84021,-0.2289 l 0,-2.1972 q 0.64087,0.1739 1.309205,0.1739 0.704956,0 1.02539,-0.3937 0.32959,-0.3936 0.32959,-1.1627 l 0,-10.9314 2.792358,0 0,11.3434 q 0,1.6296 -0.942993,2.5086 -0.942993,0.888 -2.67334,0.888 z m 0.704956,-17.3859 q 0,-1.3641 1.519776,-1.3641 1.519775,0 1.519775,1.3641 0,0.6501 -0.384521,1.0163 -0.375366,0.357 -1.135254,0.357 -1.519776,0 -1.519776,-1.3733 z" />
      <path
         id="path42075"
         style="font-style:normal;font-variant:normal;font-weight:bold;font-stretch:normal;font-size:18.75px;line-height:135.00000238%;font-family:'Open Sans';-inkscape-font-specification:'Open Sans Bold';letter-spacing:-0.5px;fill:#ffffff"
         d="m 105.91866,1020.016 q 0.73242,0 1.75781,-0.3204 l 0,2.0782 q -1.0437,0.4669 -2.56348,0.4669 -1.67541,0 -2.44446,-0.8423 -0.75988,-0.8514 -0.75988,-2.5451 l 0,-4.9347 -1.33667,0 0,-1.1811 1.53808,-0.9338 0.80567,-2.1606 1.78527,0 0,2.1789 2.8656,0 0,2.0966 -2.8656,0 0,4.9347 q 0,0.5951 0.32959,0.8789 0.33875,0.2838 0.88807,0.2838 z" />
      <path
         id="path42077"
         style="font-style:normal;font-variant:normal;font-weight:bold;font-stretch:normal;font-size:18.75px;line-height:135.00000238%;font-family:'Open Sans';-inkscape-font-specification:'Open Sans Bold';letter-spacing:-0.5px;fill:#ffffff"
         d="m 113.4753,1013.6165 q -0.88807,0 -1.39161,0.5676 -0.50354,0.5585 -0.57678,1.593 l 3.91846,0 q -0.0183,-1.0345 -0.54016,-1.593 -0.52185,-0.5676 -1.40991,-0.5676 z m 0.39367,8.6242 q -2.47192,0 -3.86352,-1.3641 -1.3916,-1.3641 -1.3916,-3.8635 0,-2.5727 1.28173,-3.9734 1.2909,-1.4099 3.56141,-1.4099 2.1698,0 3.37829,1.2359 1.2085,1.236 1.2085,3.4149 l 0,1.355 -6.60095,0 q 0.0458,1.1902 0.70495,1.8585 0.65918,0.6684 1.84937,0.6684 0.92468,0 1.74865,-0.1923 0.82398,-0.1922 1.7212,-0.6134 l 0,2.1607 q -0.73243,0.3662 -1.56556,0.5401 -0.83313,0.1831 -2.03247,0.1831 z" />
      <path
         id="path42079"
         style="font-style:normal;font-variant:normal;font-weight:bold;font-stretch:normal;font-size:18.75px;line-height:135.00000238%;font-family:'Open Sans';-inkscape-font-specification:'Open Sans Bold';letter-spacing:-0.5px;fill:#ffffff"
         d="m 133.65144,1022.0576 -2.79235,0 0,-5.9784 q 0,-1.1078 -0.39368,-1.6571 -0.39368,-0.5585 -1.25427,-0.5585 -1.17188,0 -1.69373,0.7874 -0.52185,0.7782 -0.52185,2.5909 l 0,4.8157 -2.79236,0 0,-10.2356 2.13318,0 0.37537,1.3092 0.15564,0 q 0.46691,-0.7416 1.28173,-1.1169 0.82398,-0.3845 1.86768,-0.3845 1.78528,0 2.70996,0.9704 0.92468,0.9613 0.92468,2.7832 l 0,6.6742 z" />
      <path
         id="path42081"
         style="font-style:normal;font-variant:normal;font-weight:bold;font-stretch:normal;font-size:18.75px;line-height:135.00000238%;font-family:'Open Sans';-inkscape-font-specification:'Open Sans Bold';letter-spacing:-0.5px;fill:#ffffff"
         d="m 142.54475,1022.0576 -0.54016,-1.3916 -0.0732,0 q -0.70496,0.8881 -1.45569,1.236 -0.74157,0.3387 -1.94092,0.3387 -1.47399,0 -2.32544,-0.8423 -0.84228,-0.8422 -0.84228,-2.3986 0,-1.6297 1.13525,-2.3987 1.14441,-0.7782 3.44239,-0.8606 l 1.77612,-0.055 0,-0.4486 q 0,-1.5564 -1.59302,-1.5564 -1.2268,0 -2.88391,0.7416 l -0.92468,-1.886 q 1.76697,-0.9246 3.91846,-0.9246 2.05993,0 3.15856,0.8972 1.09864,0.8972 1.09864,2.7282 l 0,6.8207 -1.95008,0 z m -0.82397,-4.7424 -1.08032,0.037 q -1.21765,0.037 -1.81275,0.4395 -0.59509,0.4028 -0.59509,1.2268 0,1.181 1.35498,1.181 0.97046,0 1.54724,-0.5585 0.58594,-0.5584 0.58594,-1.4831 l 0,-0.8423 z m -3.10364,-6.6193 0,-0.2472 q 1.57471,-1.831 2.15149,-2.7557 l 3.1311,0 0,0.1923 q -0.47607,0.476 -1.62963,1.419 -1.14441,0.9339 -1.79444,1.3916 l -1.85852,0 z" />
      <path
         id="path42083"
         style="font-style:normal;font-variant:normal;font-weight:bold;font-stretch:normal;font-size:18.75px;line-height:135.00000238%;font-family:'Open Sans';-inkscape-font-specification:'Open Sans Bold';letter-spacing:-0.5px;fill:#ffffff"
         d="m 156.02486,1022.0576 -2.79236,0 0,-5.9784 q 0,-1.1078 -0.37537,-1.6571 -0.36621,-0.5585 -1.16272,-0.5585 -1.07116,0 -1.55639,0.7874 -0.48523,0.7874 -0.48523,2.5909 l 0,4.8157 -2.79236,0 0,-10.2356 2.13318,0 0.37536,1.3092 0.15564,0 q 0.41199,-0.7049 1.19019,-1.0986 0.7782,-0.4028 1.78528,-0.4028 2.29797,0 3.11279,1.5014 l 0.24719,0 q 0.41199,-0.7141 1.2085,-1.1078 0.80566,-0.3936 1.81274,-0.3936 1.7395,0 2.62757,0.8972 0.89721,0.888 0.89721,2.8564 l 0,6.6742 -2.80151,0 0,-5.9784 q 0,-1.1078 -0.37537,-1.6571 -0.36621,-0.5585 -1.16272,-0.5585 -1.02539,0 -1.53808,0.7325 -0.50354,0.7324 -0.50354,2.3254 l 0,5.1361 z" />
      <path
         id="path42085"
         style="font-style:normal;font-variant:normal;font-weight:bold;font-stretch:normal;font-size:18.75px;line-height:135.00000238%;font-family:'Open Sans';-inkscape-font-specification:'Open Sans Bold';letter-spacing:-0.5px;fill:#ffffff"
         d="m 171.83394,1016.4912 1.21765,-1.5564 2.8656,-3.1128 3.14941,0 -4.06494,4.4403 4.31214,5.7953 -3.22266,0 -2.948,-4.1473 -1.19934,0.9613 0,3.186 -2.79236,0 0,-14.2456 2.79236,0 0,6.3538 -0.14648,2.3254 0.0366,0 z" />
      <path
         id="path42087"
         style="font-style:normal;font-variant:normal;font-weight:bold;font-stretch:normal;font-size:18.75px;line-height:135.00000238%;font-family:'Open Sans';-inkscape-font-specification:'Open Sans Bold';letter-spacing:-0.5px;fill:#ffffff"
         d="m 183.53792,1022.2407 q -1.80359,0 -2.83814,-1.4007 -1.02539,-1.4008 -1.02539,-3.8819 0,-2.5177 1.0437,-3.9184 1.05286,-1.4099 2.89307,-1.4099 1.93176,0 2.948,1.5014 l 0.0916,0 q -0.21057,-1.1444 -0.21057,-2.0416 l 0,-3.2776 2.80151,0 0,14.2456 -2.14233,0 -0.54016,-1.3275 -0.11902,0 q -0.95215,1.5106 -2.90222,1.5106 z m 0.97961,-2.2247 q 1.07117,0 1.56555,-0.6226 0.50354,-0.6225 0.54932,-2.1148 l 0,-0.3022 q 0,-1.6479 -0.51269,-2.362 -0.50354,-0.7141 -1.64795,-0.7141 -0.93384,0 -1.45569,0.7965 -0.5127,0.7873 -0.5127,2.298 0,1.5106 0.52185,2.2705 0.52185,0.7507 1.49231,0.7507 z" />
      <path
         id="path42089"
         style="font-style:normal;font-variant:normal;font-weight:bold;font-stretch:normal;font-size:18.75px;line-height:135.00000238%;font-family:'Open Sans';-inkscape-font-specification:'Open Sans Bold';letter-spacing:-0.5px;fill:#ffffff"
         d="m 190.19734,1011.822 3.05786,0 1.93177,5.7587 q 0.24719,0.7507 0.33874,1.7761 l 0.0549,0 q 0.10071,-0.943 0.39368,-1.7761 l 1.89514,-5.7587 2.99378,0 -4.33045,11.5448 q -0.59509,1.6022 -1.70288,2.3987 -1.09863,0.7965 -2.57263,0.7965 -0.72327,0 -1.41907,-0.1556 l 0,-2.2156 q 0.50354,0.119 1.09863,0.119 0.74158,0 1.2909,-0.4577 0.55847,-0.4487 0.86975,-1.3642 l 0.16479,-0.5035 -4.06494,-10.1624 z" />
      <path
         id="path42091"
         style="font-style:normal;font-variant:normal;font-weight:bold;font-stretch:normal;font-size:18.75px;line-height:135.00000238%;font-family:'Open Sans';-inkscape-font-specification:'Open Sans Bold';letter-spacing:-0.5px;fill:#ffffff"
         d="m 204.50142,1016.4912 1.21765,-1.5564 2.8656,-3.1128 3.14942,0 -4.06495,4.4403 4.31214,5.7953 -3.22266,0 -2.948,-4.1473 -1.19934,0.9613 0,3.186 -2.79236,0 0,-14.2456 2.79236,0 0,6.3538 -0.14648,2.3254 0.0366,0 z" />
      <path
         id="path42093"
         style="font-style:normal;font-variant:normal;font-weight:bold;font-stretch:normal;font-size:18.75px;line-height:135.00000238%;font-family:'Open Sans';-inkscape-font-specification:'Open Sans Bold';letter-spacing:-0.5px;fill:#ffffff"
         d="m 215.18916,1016.9215 q 0,1.5198 0.49439,2.298 0.50354,0.7782 1.62964,0.7782 1.11694,0 1.60217,-0.7691 0.49438,-0.7782 0.49438,-2.3071 0,-1.5198 -0.49438,-2.2797 -0.49439,-0.7598 -1.62048,-0.7598 -1.11695,0 -1.61133,0.7598 -0.49439,0.7508 -0.49439,2.2797 z m 7.07703,0 q 0,2.4994 -1.31836,3.9093 -1.31836,1.4099 -3.67126,1.4099 -1.474,0 -2.6001,-0.6408 -1.1261,-0.6501 -1.73035,-1.8586 -0.60425,-1.2085 -0.60425,-2.8198 0,-2.5085 1.30921,-3.9001 1.3092,-1.3916 3.68042,-1.3916 1.474,0 2.60009,0.6408 1.1261,0.6409 1.73035,1.8402 0.60425,1.1994 0.60425,2.8107 z" />
      <path
         id="path42095"
         style="font-style:normal;font-variant:normal;font-weight:bold;font-stretch:normal;font-size:18.75px;line-height:135.00000238%;font-family:'Open Sans';-inkscape-font-specification:'Open Sans Bold';letter-spacing:-0.5px;fill:#ffffff"
         d="m 226.86568,1022.0576 -2.79236,0 0,-14.2456 2.79236,0 0,14.2456 z" />
      <path
         id="path42097"
         style="font-style:normal;font-variant:normal;font-weight:bold;font-stretch:normal;font-size:18.75px;line-height:135.00000238%;font-family:'Open Sans';-inkscape-font-specification:'Open Sans Bold';letter-spacing:-0.5px;fill:#ffffff"
         d="m 229.16719,1009.1761 q 0,-1.3641 1.51978,-1.3641 1.51977,0 1.51977,1.3641 0,0.6501 -0.38452,1.0163 -0.37537,0.357 -1.13525,0.357 -1.51978,0 -1.51978,-1.3733 z m 2.91138,12.8815 -2.79236,0 0,-10.2356 2.79236,0 0,10.2356 z" />
      <path
         id="path42099"
         style="font-style:normal;font-variant:normal;font-weight:normal;font-stretch:normal;font-size:18.75px;line-height:135.00000238%;font-family:'Open Sans';-inkscape-font-specification:'Open Sans';letter-spacing:-0.5px;fill:#ffffff"
         d="m 64.793777,1047.3701 0,-6.4911 q 0,-1.2268 -0.558471,-1.831 -0.558472,-0.6043 -1.748657,-0.6043 -1.574707,0 -2.307129,0.8515 -0.732422,0.8514 -0.732422,2.8106 l 0,5.2643 -1.519776,0 0,-10.0342 1.235962,0 0.247193,1.3733 0.07324,0 q 0.466919,-0.7415 1.309204,-1.1444 0.842285,-0.412 1.876831,-0.412 1.812744,0 2.728272,0.8789 0.915527,0.8698 0.915527,2.7924 l 0,6.546 -1.519776,0 z" />
      <path
         id="path42101"
         style="font-style:normal;font-variant:normal;font-weight:normal;font-stretch:normal;font-size:18.75px;line-height:135.00000238%;font-family:'Open Sans';-inkscape-font-specification:'Open Sans';letter-spacing:-0.5px;fill:#ffffff"
         d="m 75.097,1047.3701 -0.302124,-1.4282 -0.07324,0 q -0.750733,0.943 -1.501465,1.2817 -0.741577,0.3296 -1.85852,0.3296 -1.49231,0 -2.34375,-0.769 -0.842286,-0.7691 -0.842286,-2.1881 0,-3.0396 4.861451,-3.1861 l 1.70288,-0.055 0,-0.6226 q 0,-1.181 -0.512695,-1.7395 -0.50354,-0.5676 -1.620483,-0.5676 -1.254273,0 -2.838135,0.7691 l -0.466919,-1.1628 q 0.741577,-0.4028 1.620483,-0.6317 0.888062,-0.2289 1.776123,-0.2289 1.794434,0 2.65503,0.7966 0.869751,0.7965 0.869751,2.5543 l 0,6.8481 -1.126099,0 z m -3.433227,-1.0711 q 1.419067,0 2.224731,-0.7782 0.814819,-0.7782 0.814819,-2.179 l 0,-0.9064 -1.519775,0.064 q -1.812744,0.064 -2.618408,0.5676 -0.796509,0.4944 -0.796509,1.5473 0,0.824 0.494385,1.2543 0.50354,0.4303 1.400757,0.4303 z" />
      <path
         id="path42103"
         style="font-style:normal;font-variant:normal;font-weight:normal;font-stretch:normal;font-size:18.75px;line-height:135.00000238%;font-family:'Open Sans';-inkscape-font-specification:'Open Sans';letter-spacing:-0.5px;fill:#ffffff"
         d="m 86.969315,1033.7928 q 1.831054,0 2.902221,0.8515 1.071167,0.8514 1.071167,2.3529 0,0.9888 -0.613403,1.8036 -0.613403,0.8148 -1.959229,1.4831 1.629639,0.7782 2.316285,1.6388 0.686645,0.8515 0.686645,1.9776 0,1.6662 -1.16272,2.6642 -1.162719,0.9887 -3.186035,0.9887 -2.142334,0 -3.295898,-0.9338 -1.153565,-0.943 -1.153565,-2.6642 0,-2.298 2.801514,-3.5797 -1.263428,-0.7141 -1.812744,-1.5381 -0.549317,-0.8331 -0.549317,-1.8585 0,-1.4557 1.071167,-2.3163 1.080323,-0.8698 2.883912,-0.8698 z m -2.893067,10.199 q 0,1.0987 0.759888,1.7121 0.769043,0.6134 2.151489,0.6134 1.364136,0 2.124024,-0.6409 0.759887,-0.6409 0.759887,-1.7578 0,-0.8881 -0.714111,-1.5747 -0.714111,-0.6958 -2.490234,-1.3459 -1.364136,0.586 -1.97754,1.3001 -0.613403,0.705 -0.613403,1.6937 z m 2.874756,-8.963 q -1.144409,0 -1.794434,0.5493 -0.650024,0.5493 -0.650024,1.4649 0,0.8423 0.540161,1.4465 0.540161,0.6043 1.99585,1.2085 1.309204,-0.5493 1.849365,-1.181 0.549316,-0.6317 0.549316,-1.474 0,-0.9247 -0.668335,-1.4649 -0.659179,-0.5493 -1.821899,-0.5493 z" />
      <path
         id="path42105"
         style="font-style:normal;font-variant:normal;font-weight:normal;font-stretch:normal;font-size:18.75px;line-height:135.00000238%;font-family:'Open Sans';-inkscape-font-specification:'Open Sans';letter-spacing:-0.5px;fill:#ffffff"
         d="m 101.6396,1040.6593 q 0,3.4699 -1.09863,5.1819 -1.089478,1.712 -3.341675,1.712 -2.160644,0 -3.286743,-1.7486 -1.126099,-1.7578 -1.126099,-5.1453 0,-3.4973 1.089478,-5.191 1.089477,-1.6938 3.323364,-1.6938 2.178955,0 3.305055,1.767 1.13525,1.767 1.13525,5.1178 z m -7.315061,0 q 0,2.9205 0.686646,4.2572 0.686645,1.3275 2.18811,1.3275 1.519775,0 2.197266,-1.3458 0.686649,-1.355 0.686649,-4.2389 0,-2.8839 -0.686649,-4.2206 -0.677491,-1.3458 -2.197266,-1.3458 -1.501465,0 -2.18811,1.3275 -0.686646,1.3184 -0.686646,4.2389 z" />
      <path
         id="path42107"
         style="font-style:normal;font-variant:normal;font-weight:normal;font-stretch:normal;font-size:18.75px;line-height:135.00000238%;font-family:'Open Sans';-inkscape-font-specification:'Open Sans';letter-spacing:-0.5px;fill:#ffffff"
         d="m 111.86958,1040.6593 q 0,3.4699 -1.09863,5.1819 -1.08948,1.712 -3.34167,1.712 -2.16065,0 -3.28675,-1.7486 -1.1261,-1.7578 -1.1261,-5.1453 0,-3.4973 1.08948,-5.191 1.08948,-1.6938 3.32337,-1.6938 2.17895,0 3.30505,1.767 1.13525,1.767 1.13525,5.1178 z m -7.31506,0 q 0,2.9205 0.68665,4.2572 0.68664,1.3275 2.18811,1.3275 1.51977,0 2.19726,-1.3458 0.68665,-1.355 0.68665,-4.2389 0,-2.8839 -0.68665,-4.2206 -0.67749,-1.3458 -2.19726,-1.3458 -1.50147,0 -2.18811,1.3275 -0.68665,1.3184 -0.68665,4.2389 z" />
      <path
         id="path42109"
         style="font-style:normal;font-variant:normal;font-weight:normal;font-stretch:normal;font-size:18.75px;line-height:135.00000238%;font-family:'Open Sans';-inkscape-font-specification:'Open Sans';letter-spacing:-0.5px;fill:#ffffff"
         d="m 126.39693,1047.3701 -8.79822,0 0,-1.3092 3.52478,-3.5431 q 1.61133,-1.6296 2.12402,-2.3254 0.5127,-0.6958 0.76905,-1.355 0.25634,-0.6592 0.25634,-1.4191 0,-1.0711 -0.65002,-1.6937 -0.65003,-0.6317 -1.80359,-0.6317 -0.83313,0 -1.58386,0.2747 -0.74158,0.2746 -1.65711,0.9979 l -0.80566,-1.0346 q 1.84936,-1.5381 4.02832,-1.5381 1.88599,0 2.95715,0.9705 1.07117,0.9613 1.07117,2.5909 0,1.2726 -0.71411,2.5177 -0.71411,1.2452 -2.67334,3.1495 l -2.92969,2.8656 0,0.073 6.88477,0 0,1.4099 z" />
      <path
         id="path42111"
         style="font-style:normal;font-variant:normal;font-weight:normal;font-stretch:normal;font-size:18.75px;line-height:135.00000238%;font-family:'Open Sans';-inkscape-font-specification:'Open Sans';letter-spacing:-0.5px;fill:#ffffff"
         d="m 136.70015,1040.6593 q 0,3.4699 -1.09863,5.1819 -1.08948,1.712 -3.34168,1.712 -2.16064,0 -3.28674,-1.7486 -1.1261,-1.7578 -1.1261,-5.1453 0,-3.4973 1.08948,-5.191 1.08948,-1.6938 3.32336,-1.6938 2.17896,0 3.30506,1.767 1.13525,1.767 1.13525,5.1178 z m -7.31506,0 q 0,2.9205 0.68664,4.2572 0.68665,1.3275 2.18811,1.3275 1.51978,0 2.19727,-1.3458 0.68664,-1.355 0.68664,-4.2389 0,-2.8839 -0.68664,-4.2206 -0.67749,-1.3458 -2.19727,-1.3458 -1.50146,0 -2.18811,1.3275 -0.68664,1.3184 -0.68664,4.2389 z" />
      <path
         id="path42113"
         style="font-style:normal;font-variant:normal;font-weight:normal;font-stretch:normal;font-size:18.75px;line-height:135.00000238%;font-family:'Open Sans';-inkscape-font-specification:'Open Sans';letter-spacing:-0.5px;fill:#ffffff"
         d="m 139.7524,1047.3701 5.54809,-11.9842 -7.29675,0 0,-1.4008 8.90808,0 0,1.2177 -5.47485,12.1673 -1.68457,0 z" />
      <path
         id="path42115"
         style="font-style:normal;font-variant:normal;font-weight:normal;font-stretch:normal;font-size:18.75px;line-height:135.00000238%;font-family:'Open Sans';-inkscape-font-specification:'Open Sans';letter-spacing:-0.5px;fill:#ffffff"
         d="m 161.45747,1047.3701 -8.79821,0 0,-1.3092 3.52478,-3.5431 q 1.61132,-1.6296 2.12402,-2.3254 0.5127,-0.6958 0.76904,-1.355 0.25635,-0.6592 0.25635,-1.4191 0,-1.0711 -0.65002,-1.6937 -0.65003,-0.6317 -1.80359,-0.6317 -0.83313,0 -1.58387,0.2747 -0.74157,0.2746 -1.6571,0.9979 l -0.80566,-1.0346 q 1.84936,-1.5381 4.02832,-1.5381 1.88598,0 2.95715,0.9705 1.07117,0.9613 1.07117,2.5909 0,1.2726 -0.71411,2.5177 -0.71412,1.2452 -2.67334,3.1495 l -2.92969,2.8656 0,0.073 6.88476,0 0,1.4099 z" />
      <path
         id="path42117"
         style="font-style:normal;font-variant:normal;font-weight:normal;font-stretch:normal;font-size:18.75px;line-height:135.00000238%;font-family:'Open Sans';-inkscape-font-specification:'Open Sans';letter-spacing:-0.5px;fill:#ffffff"
         d="m 171.7607,1040.6593 q 0,3.4699 -1.09864,5.1819 -1.08947,1.712 -3.34167,1.712 -2.16065,0 -3.28674,-1.7486 -1.1261,-1.7578 -1.1261,-5.1453 0,-3.4973 1.08947,-5.191 1.08948,-1.6938 3.32337,-1.6938 2.17895,0 3.30505,1.767 1.13526,1.767 1.13526,5.1178 z m -7.31507,0 q 0,2.9205 0.68665,4.2572 0.68664,1.3275 2.18811,1.3275 1.51977,0 2.19726,-1.3458 0.68665,-1.355 0.68665,-4.2389 0,-2.8839 -0.68665,-4.2206 -0.67749,-1.3458 -2.19726,-1.3458 -1.50147,0 -2.18811,1.3275 -0.68665,1.3184 -0.68665,4.2389 z" />
      <path
         id="path42119"
         style="font-style:normal;font-variant:normal;font-weight:normal;font-stretch:normal;font-size:18.75px;line-height:135.00000238%;font-family:'Open Sans';-inkscape-font-specification:'Open Sans';letter-spacing:-0.5px;fill:#ffffff"
         d="m 174.81294,1047.3701 5.5481,-11.9842 -7.29675,0 0,-1.4008 8.90808,0 0,1.2177 -5.47486,12.1673 -1.68457,0 z" />
    </g>
    <g
       style="opacity:0.5"
       id="g42121">
      <path
         stroke-miterlimit="10"
         d="m 12.058711,1025.3396 c 1.190431,-1.192 1.190431,-3.1241 0,-4.3176 l -3.238583,-3.2371 c -1.190431,-1.1904 -3.125645,-1.1904 -4.316076,0 l -1.776489,1.7765 c -1.539929,1.54 -1.778015,3.9437 -0.576901,5.7599 5.158534,7.7988 12.040141,14.6804 19.840517,19.8405 1.813118,1.1981 4.224504,0.96 5.758328,-0.5784 l 1.778016,-1.778 c 1.190431,-1.1905 1.190431,-3.1226 0,-4.3161 l -3.238583,-3.2371 c -1.191957,-1.1935 -3.124118,-1.1935 -4.316076,0 l -1.079018,1.079 c -3.549927,-2.9089 -7.006755,-6.3642 -9.914154,-9.9141 l 1.079019,-1.0775 z"
         id="path5817"
         style="fill:none;stroke:#ffffff;stroke-width:1.52619362;stroke-linecap:round;stroke-linejoin:round;stroke-miterlimit:10;stroke-opacity:1" />
      <path
         stroke-miterlimit="10"
         d="m 18.938792,1010.8224 c 9.694381,0 17.551226,7.8569 17.551226,17.5513"
         id="path5819"
         style="fill:none;stroke:#ffffff;stroke-width:1.52619362;stroke-linecap:round;stroke-linejoin:round;stroke-miterlimit:10;stroke-opacity:1" />
      <path
         stroke-miterlimit="10"
         d="m 18.938792,1016.9272 c 6.321493,0 11.446452,5.125 11.446452,11.4465"
         id="path5821"
         style="fill:none;stroke:#ffffff;stroke-width:1.52619362;stroke-linecap:round;stroke-linejoin:round;stroke-miterlimit:10;stroke-opacity:1" />
      <path
         stroke-miterlimit="10"
         d="m 18.938792,1023.032 c 2.950132,0 5.341677,2.39 5.341677,5.3417"
         id="path5823"
         style="fill:none;stroke:#ffffff;stroke-width:1.52619362;stroke-linecap:round;stroke-linejoin:round;stroke-miterlimit:10;stroke-opacity:1" />
    </g>
  </g>
</svg>
