<svg enable-background="new 0 0 24 24" height="24" viewBox="0 0 24 24" width="24" xmlns="http://www.w3.org/2000/svg"><path d="m14.8 12.3c.7-.7 1.2-1.7 1.2-2.8 0-2.2-1.8-4-4-4-1.2 0-2.2.5-3 1.3l1.4 1.4c.4-.4.9-.7 1.5-.7 1.1 0 2 .9 2 2 0 .6-.2 1.1-.6 1.4z" fill="#fff"/><path d="m18 13c.1 0 .1-.1 0 0 .2-.3.3-.5.4-.8.3-.7.5-1.5.5-2.4 0-.1 0-.2 0-.4 0-3.9-3.1-7-7-7-3.3.1-6.2 2.6-6.8 5.9l2.1-.1c.5-2.1 2.5-3.7 4.8-3.7 2.8 0 5 2.2 5 5 0 1.1-.4 2.2-1 3-1.2 1.6-2 2.7-2 4.9v.1c0 1.1-.9 2-2 2-.9 0-1.6-.6-1.9-1.4l-2 .4c.4 1.7 2 3 3.9 3 2.2 0 4-1.8 4-4 0-1.8.6-2.6 1.7-3.9.1-.2.2-.4.3-.6z" fill="#fff"/><g fill="none" stroke="#fff" stroke-miterlimit="10" stroke-width="2"><path d="m2 20.5 9-9"/><path d="m18.5 4 2-2"/></g></svg>