<?xml version="1.0" encoding="utf-8"?>
<!-- Generator: Adobe Illustrator 21.1.0, SVG Export Plug-In . SVG Version: 6.00 Build 0)  -->
<svg version="1.1" id="Layer_1" xmlns="http://www.w3.org/2000/svg" xmlns:xlink="http://www.w3.org/1999/xlink" x="0px" y="0px"
	 width="32px" height="32px" viewBox="0 0 32 32" style="enable-background:new 0 0 32 32;" xml:space="preserve">
<style type="text/css">
	.st0{fill:#0A77A9;}
</style>
<path id="ic_linkedin" class="st0" d="M1.5,10v20h6V10H1.5L1.5,10z M6.7,2.9C6.1,2.3,5.3,2,4.5,2c-1.6-0.1-2.9,1.2-3,2.8
	c0,0.1,0,0.2,0,0.2c0,0.8,0.3,1.6,0.8,2.1C2.9,7.7,3.7,8,4.5,8l0,0c0.8,0,1.6-0.3,2.2-0.9C7.2,6.6,7.5,5.8,7.5,5S7.2,3.4,6.7,2.9
	L6.7,2.9z M28.4,12.2C27,10.7,25,9.9,23,10c-0.8,0-1.5,0.1-2.3,0.3c-0.6,0.2-1.2,0.5-1.7,0.9c-0.8,0.6-1.4,1.3-1.9,2.1l0,0v-2.8
	h-6.5v0.9c0,0.6,0,2.6,0,5.8s0,7.5,0,12.8h6.6V19.1c0-0.5,0.1-1.1,0.2-1.6c0.3-0.7,0.7-1.2,1.3-1.7c0.6-0.5,1.3-0.7,2.1-0.7
	c1-0.1,1.9,0.4,2.5,1.2c0.6,1,0.9,2.1,0.8,3.2V30h6.6V18.8C30.5,15.9,29.8,13.7,28.4,12.2L28.4,12.2z"/>
</svg>
