<?xml version="1.0" encoding="UTF-8"?>
<svg width="512px" height="512px" viewBox="0 0 512 512" version="1.1" xmlns="http://www.w3.org/2000/svg" xmlns:xlink="http://www.w3.org/1999/xlink">
    <title>uk_r</title>
    <g id="uk_r" stroke="none" stroke-width="1" fill="none" fill-rule="evenodd">
        <g>
            <g id="Group" transform="translate(8.424523, 10.629556)" fill="#29337A" fill-rule="nonzero">
                <path d="M36.6619152,100.697585 C20.1533525,124.658943 7.60736362,151.563587 0,180.480865 L116.449519,180.480865 L36.6619152,100.697585 Z" id="Path"></path>
                <path d="M175.880561,0 C146.385003,8.58990035 119.068536,22.2967742 95.0142206,40.1748353 L175.880561,121.041175 L175.880561,0 Z" id="Path"></path>
                <path d="M101.02834,455.600878 C123.591015,471.389563 148.798649,483.612363 175.880561,491.498598 L175.880561,380.760547 L101.02834,455.600878 Z" id="Path"></path>
                <path d="M2.93788211,321.341395 C11.4023982,348.759466 24.3731802,374.196251 40.9498396,396.82378 L116.432224,321.341395 L2.93788211,321.341395 L2.93788211,321.341395 Z" id="Path"></path>
            </g>
            <g id="Group" transform="translate(3.726938, 5.253167)" fill="#F0F0F0" fill-rule="nonzero">
                <path d="M45.5825705,100.132275 C44.1514609,102.088701 42.7408884,104.073231 41.3584192,106.078298 L121.146023,185.861577 L4.69650397,185.861577 C2.80925519,193.044148 1.26897484,200.365073 0,207.786523 L153.245465,207.786523 L45.5825705,100.132275 Z" id="Path"></path>
                <path d="M99.7874683,456.753116 C101.735247,458.204763 103.737071,459.586151 105.724844,460.977267 L180.577065,386.133694 L180.577065,496.871745 C187.768282,498.974092 195.071914,500.788921 202.50201,502.248134 L202.50201,354.041817 L99.7874683,456.753116 Z" id="Path"></path>
                <path d="M1.94777909,304.792839 C3.53669988,312.221854 5.41205877,319.538456 7.63114339,326.717784 L121.126566,326.717784 L45.6441817,402.200169 C53.8536058,413.416653 62.956933,423.942442 72.8482351,433.675933 L201.730248,304.792839 L1.94777909,304.792839 L1.94777909,304.792839 Z" id="Path"></path>
                <path d="M180.578146,5.37638912 L180.578146,126.417565 L99.7107245,45.555548 C88.5623374,53.8460395 78.141395,63.0498902 68.4857288,73.0136126 L202.498767,207.026651 L202.498767,2.84217094e-14 C195.072994,1.46786016 187.769363,3.28701233 180.578146,5.37638912 Z" id="Path"></path>
            </g>
            <g id="Group" transform="translate(183.380375, 190.194359)" fill="#D32030" fill-rule="nonzero">
                <polygon id="Path" points="0.924708664 141.003749 0.156189833 141.776592 0.924708664 141.776592"></polygon>
                <polygon id="Path" points="22.0811349 119.851647 22.8485729 119.851647 22.8485729 119.079885"></polygon>
                <polygon id="Path" points="120.599628 22.8410066 119.860294 22.8410066 119.860294 23.5846648"></polygon>
                <polygon id="Path" points="1.68025671 0.92038507 0.924708664 0.160513427 0.924708664 0.92038507"></polygon>
                <polygon id="Path" points="22.8485729 22.0843776 22.8485729 22.8410066 23.6052018 22.8410066"></polygon>
            </g>
            <g id="Group" transform="translate(325.160209, 9.914001)" fill="#29337A" fill-rule="nonzero">
                <path d="M0.0010808985,381.484749 L13.7110809,395.194749 L13.7122783,395.191623 L75.8920453,457.37139 C53.0137477,473.143861 27.4353656,485.249924 0.0010808985,492.929708 L0.0010808985,492.929708 L0.0010808985,381.484749 Z" id="Combined-Shape"></path>
                <path d="M0,-2.84217094e-14 C29.8673873,8.36723526 57.5319034,21.9768282 81.9180544,39.8354332 L81.9180544,39.8354332 L14.0387097,107.714778 C14.0385346,107.714107 14.0383594,107.713436 14.0381843,107.712765 L0.0010808985,121.74376 L0.001,58.952 L0,58.9500422 Z" id="Combined-Shape"></path>
                <path d="M136.414795,399.030974 C153.509205,376.034859 166.832359,350.077082 175.486033,322.05695 L59.4407701,322.05695 L136.414795,399.030974 Z" id="Path"></path>
                <path d="M178.416349,181.200743 C170.64685,151.672758 157.724709,124.263334 140.695153,99.9258233 L59.4115859,181.200743 L178.416349,181.200743 Z" id="Path"></path>
            </g>
            <g id="Group" transform="translate(303.236345, 4.800270)" fill="#F0F0F0" fill-rule="nonzero">
                <path d="M56.6790745,305.245736 C56.6789669,305.247071 56.6788593,305.248406 56.6787517,305.249742 L203.088938,305.250059 C201.50434,312.680155 199.625739,320 197.414221,327.175004 L197.414221,327.175004 L81.3689579,327.175004 L158.342983,404.149029 C156.515183,406.602668 154.616045,408.987131 152.703935,411.38024 L152.703935,411.38024 L68.4986995,327.175004 L50.9070765,309.583381 C50.9072106,309.581978 50.9073448,309.580576 50.9074792,309.579175 L46.5737544,305.245736 Z" id="Combined-Shape"></path>
                <path d="M21.9249451,126.858571 L41.9766931,106.805742 C41.9772964,106.808072 41.9778998,106.810402 41.9785031,106.812732 L103.841919,44.949164 C105.795102,46.3802736 107.710454,47.8557001 109.622564,49.3386928 L109.622564,49.3386928 L33.3035636,125.66634 C33.3030317,125.664108 33.3025029,125.661873 33.3019772,125.659635 L0,158.961257 L9.09494702e-13,-2.84217094e-14 C7.43009627,1.39111637 14.7423746,3.09677419 21.9249451,5.10940719 L21.9249451,5.10940719 L21.9249451,126.858571 Z" id="Combined-Shape"></path>
                <path d="M0.743658166,208.235095 L44.4956582,164.484869 L44.4962675,164.482486 L136.050532,72.9368688 C145.751596,82.8843776 154.632258,93.6198615 162.623341,105.035231 L162.623341,105.035231 L81.3397737,186.31015 L200.344536,186.31015 C202.231785,193.497044 203.775308,200.813646 205.04104,208.235095 L205.04104,208.235095 L0.743658166,208.235095 Z" id="Combined-Shape"></path>
                <path d="M21.9292687,498.042358 C14.7423746,500.054991 7.43333896,501.769296 0.00432359399,503.151765 L0.00432359399,503.151765 L0.00432359399,473.664854 L0.00432359399,473.664854 L0.00540449248,308.698125 L50.0585712,358.748049 C50.0583401,358.749385 50.0581089,358.75072 50.0578778,358.752056 L128.726364,437.423408 C119.09772,446.541868 108.778382,454.94153 97.8202331,462.488363 L97.8202331,462.488363 L39.7633236,404.425125 L39.763013,404.427901 L21.9292687,386.594156 Z" id="Combined-Shape"></path>
            </g>
            <path d="M508.273062,213.035366 C510.682385,227.137848 512,241.60027 512,256.386962 C512,274.794663 510.019794,292.733255 506.325283,310.046006 L506.325283,310.046006 L349.805776,310.046006 L354.143422,314.383651 L371.733964,331.970951 L455.935957,416.18051 C448.546935,425.408141 440.532072,434.098564 431.958385,442.223678 L431.958385,442.223678 L345.29951,355.564803 C345.2998,355.563129 345.300089,355.561454 345.300378,355.559779 L303.240669,313.498396 L303.240669,489.415707 C303.24036,489.416042 303.24005,489.416377 303.239741,489.416712 L303.239588,507.952035 C287.920014,510.818578 272.147543,512.382638 255.995676,512.382638 L255.995676,512.382638 C251.735855,512.382638 247.483601,512.265901 243.227022,512.059449 C230.635636,511.428205 218.278804,509.880358 206.225705,507.503462 L206.225705,507.503462 L206.225705,359.294984 L103.515487,462.005202 C94.0035805,454.940449 85.0180713,447.219591 76.5784158,438.9291 L76.5784158,438.9291 L205.46151,310.046006 L5.67471711,310.046006 C1.98885323,292.733255 0,274.798987 0,256.386962 C0,241.60027 1.32626246,227.137848 3.72693802,213.039689 L3.72693802,213.039689 L156.971322,213.039689 L135.038811,191.114744 L49.3095085,105.385442 C56.3191353,95.8173282 63.978382,86.7637223 72.2126668,78.2667793 L72.2126668,78.2667793 L206.228948,212.279818 L206.228948,5.25424759 C218.283128,2.8773518 230.631312,1.32842425 243.222699,0.698260429 C247.486843,0.491808816 251.739098,0.382638068 255.995676,0.382638068 L255.995676,0.382638068 L257.665743,0.388206275 C273.24016,0.492042732 288.45353,2.04524632 303.240669,4.80459382 L303.240669,4.80459382 L303.24,23.3476381 L303.24175,23.3495693 L303.24175,163.764769 L347.264584,119.734369 C347.264981,119.736031 347.265379,119.737693 347.265776,119.739354 L412.854585,54.138963 C422.200034,61.3950346 431.036379,69.2726229 439.27823,77.737139 L439.27823,77.737139 L347.732613,169.282756 C347.732464,169.281758 347.732316,169.28076 347.732167,169.279762 L303.976761,213.035366 Z" id="Combined-Shape" fill="#E51D35" fill-rule="nonzero"></path>
            <g id="Group" transform="translate(243.222699, 0.000000)" fill="#D32030" fill-rule="nonzero">
                <path d="M0,0.698260429 C4.26522547,0.491808816 8.51748016,0.382638068 12.7729775,0.382638068 C8.49261949,0.382638068 4.23279851,0.491808816 0,0.698260429 Z" id="Path"></path>
                <path d="M12.7729775,512.382638 C8.51639926,512.382638 4.26414457,512.265901 0.00756628948,512.059449 C4.2403648,512.273467 8.49261949,512.382638 12.7729775,512.382638 Z" id="Path"></path>
            </g>
            <g id="Group" transform="translate(345.299510, 213.035366)"></g>
            <g id="Group" transform="translate(325.161290, 56.240230)"></g>
            <g id="Group" transform="translate(303.240669, 313.498396)"></g>
        </g>
    </g>
</svg>