<?xml version="1.0" encoding="UTF-8" standalone="no"?>
<svg
   xmlns:dc="http://purl.org/dc/elements/1.1/"
   xmlns:cc="http://creativecommons.org/ns#"
   xmlns:rdf="http://www.w3.org/1999/02/22-rdf-syntax-ns#"
   xmlns:svg="http://www.w3.org/2000/svg"
   xmlns="http://www.w3.org/2000/svg"
   xmlns:sodipodi="http://sodipodi.sourceforge.net/DTD/sodipodi-0.dtd"
   xmlns:inkscape="http://www.inkscape.org/namespaces/inkscape"
   width="24"
   height="24"
   id="svg2"
   version="1.1"
   inkscape:version="0.91 r13725"
   sodipodi:docname="Flag_of_Ukraine.svg">
  <metadata
     id="metadata12">
    <rdf:RDF>
      <cc:Work
         rdf:about="">
        <dc:format>image/svg+xml</dc:format>
        <dc:type
           rdf:resource="http://purl.org/dc/dcmitype/StillImage" />
        <dc:title></dc:title>
      </cc:Work>
    </rdf:RDF>
  </metadata>
  <defs
     id="defs10" />
  <sodipodi:namedview
     pagecolor="#ffffff"
     bordercolor="#666666"
     borderopacity="1"
     objecttolerance="10"
     gridtolerance="10"
     guidetolerance="10"
     inkscape:pageopacity="0"
     inkscape:pageshadow="2"
     inkscape:window-width="1840"
     inkscape:window-height="1057"
     id="namedview8"
     showgrid="false"
     inkscape:zoom="13.350176"
     inkscape:cx="19.122322"
     inkscape:cy="17.18505"
     inkscape:window-x="72"
     inkscape:window-y="-8"
     inkscape:window-maximized="1"
     inkscape:current-layer="svg2" />
  <g
     id="g4179"
     transform="matrix(0.03009169,0,0,0.03009169,0.03822844,0.26294331)">
    <g
       transform="translate(-194.91526,-1.6952706)"
       id="g4174">
      <g
         id="g4170"
         transform="matrix(0.95744687,0,0,0.95744687,64.262498,17.093351)">
        <path
           id="rect4"
           d="M 554.23633,3.390625 A 398.30508,398.30508 0 0 0 156.01562,400 l 796.4668,0 A 398.30508,398.30508 0 0 0 554.23633,3.390625 Z"
           style="fill:#005bbb"
           inkscape:connector-curvature="0" />
        <path
           id="rect6"
           d="m 156.01562,400 a 398.30508,398.30508 0 0 0 -0.084,1.69531 A 398.30508,398.30508 0 0 0 554.23828,800 398.30508,398.30508 0 0 0 952.54297,401.69531 398.30508,398.30508 0 0 0 952.48242,400 l -796.4668,0 z"
           style="fill:#ffd500"
           inkscape:connector-curvature="0" />
      </g>
    </g>
  </g>
</svg>
