<?xml version="1.0" encoding="UTF-8" standalone="no"?>
<svg
   xmlns:dc="http://purl.org/dc/elements/1.1/"
   xmlns:cc="http://creativecommons.org/ns#"
   xmlns:rdf="http://www.w3.org/1999/02/22-rdf-syntax-ns#"
   xmlns:svg="http://www.w3.org/2000/svg"
   xmlns="http://www.w3.org/2000/svg"
   xmlns:sodipodi="http://sodipodi.sourceforge.net/DTD/sodipodi-0.dtd"
   xmlns:inkscape="http://www.inkscape.org/namespaces/inkscape"
   width="233"
   height="64"
   viewBox="0 0 232.99999 64"
   id="svg4136"
   version="1.1"
   inkscape:version="0.91 r13725"
   sodipodi:docname="handicap.svg">
  <sodipodi:namedview
     pagecolor="#ffffff"
     bordercolor="#666666"
     borderopacity="1"
     objecttolerance="10"
     gridtolerance="10"
     guidetolerance="10"
     inkscape:pageopacity="0"
     inkscape:pageshadow="2"
     inkscape:window-width="1920"
     inkscape:window-height="1057"
     id="namedview25"
     showgrid="false"
     inkscape:zoom="3.3648069"
     inkscape:cx="107.92298"
     inkscape:cy="35.474379"
     inkscape:window-x="-8"
     inkscape:window-y="-8"
     inkscape:window-maximized="1"
     inkscape:current-layer="svg4136" />
  <defs
     id="defs4138" />
  <metadata
     id="metadata4141">
    <rdf:RDF>
      <cc:Work
         rdf:about="">
        <dc:format>image/svg+xml</dc:format>
        <dc:type
           rdf:resource="http://purl.org/dc/dcmitype/StillImage" />
        <dc:title></dc:title>
      </cc:Work>
    </rdf:RDF>
  </metadata>
  <style
     id="style42132"
     type="text/css">
	.st0{fill:#00497B;}
</style>
  <g
     id="text8811"
     style="font-style:normal;font-weight:normal;font-size:40px;line-height:125%;font-family:sans-serif;letter-spacing:0px;word-spacing:0px;fill:#ffffff;fill-opacity:1;stroke:none;stroke-width:1px;stroke-linecap:butt;stroke-linejoin:miter;stroke-opacity:1">
    <path
       id="path8836"
       style="font-style:normal;font-variant:normal;font-weight:normal;font-stretch:normal;font-size:18.75px;font-family:'open sans';-inkscape-font-specification:'open sans';fill:#ffffff"
       d="m 57.17659,20.310425 3.781128,0 q 2.664184,0 3.85437,0.796509 1.190186,0.796508 1.190186,2.5177 0,1.190185 -0.668335,1.968384 -0.65918,0.769043 -1.931763,0.997924 l 0,0.09155 q 3.048706,0.521851 3.048706,3.204346 0,1.794433 -1.217651,2.801513 -1.208497,1.007081 -3.387452,1.007081 l -4.669189,0 0,-13.38501 z m 1.556396,5.731201 2.563477,0 q 1.647949,0 2.371216,-0.512695 0.723266,-0.521851 0.723266,-1.748658 0,-1.126098 -0.805664,-1.620483 -0.805664,-0.50354 -2.563476,-0.50354 l -2.288819,0 0,4.385376 z m 0,1.318359 0,5.007935 2.792359,0 q 1.620483,0 2.435303,-0.622559 0.823974,-0.631714 0.823974,-1.968383 0,-1.245118 -0.842285,-1.831055 -0.83313,-0.585938 -2.545166,-0.585938 l -2.664185,0 z" />
    <path
       id="path8838"
       style="font-style:normal;font-variant:normal;font-weight:normal;font-stretch:normal;font-size:18.75px;font-family:'open sans';-inkscape-font-specification:'open sans';fill:#ffffff"
       d="m 75.276566,33.695435 -0.302124,-1.428223 -0.07324,0 q -0.750732,0.942993 -1.501465,1.281738 -0.741577,0.32959 -1.85852,0.32959 -1.49231,0 -2.34375,-0.769043 -0.842285,-0.769043 -0.842285,-2.18811 0,-3.039551 4.86145,-3.186035 l 1.702881,-0.05493 0,-0.622559 q 0,-1.18103 -0.512695,-1.739502 -0.50354,-0.567627 -1.620484,-0.567627 -1.254272,0 -2.838135,0.769043 l -0.466919,-1.162719 q 0.741578,-0.402832 1.620484,-0.631714 0.888061,-0.228882 1.776123,-0.228882 1.794434,0 2.655029,0.796509 0.869751,0.796509 0.869751,2.554321 l 0,6.848145 -1.126098,0 z m -3.433228,-1.071167 q 1.419067,0 2.224731,-0.778199 0.81482,-0.778198 0.81482,-2.178955 l 0,-0.906372 -1.519776,0.06409 q -1.812744,0.06409 -2.618408,0.567627 -0.796509,0.494385 -0.796509,1.547241 0,0.823975 0.494385,1.254273 0.50354,0.430298 1.400757,0.430298 z" />
    <path
       id="path8840"
       style="font-style:normal;font-variant:normal;font-weight:normal;font-stretch:normal;font-size:18.75px;font-family:'open sans';-inkscape-font-specification:'open sans';fill:#ffffff"
       d="m 86.409378,33.695435 0,-6.491089 q 0,-1.226807 -0.558472,-1.831055 -0.558471,-0.604248 -1.748657,-0.604248 -1.574707,0 -2.307129,0.85144 -0.732422,0.851441 -0.732422,2.810669 l 0,5.264283 -1.519775,0 0,-10.03418 1.235962,0 0.247192,1.373291 0.07324,0 q 0.466919,-0.741577 1.309205,-1.144409 0.842285,-0.411988 1.876831,-0.411988 1.812744,0 2.728271,0.878907 0.915527,0.869751 0.915527,2.792358 l 0,6.546021 -1.519775,0 z" />
    <path
       id="path8842"
       style="font-style:normal;font-variant:normal;font-weight:normal;font-stretch:normal;font-size:18.75px;font-family:'open sans';-inkscape-font-specification:'open sans';fill:#ffffff"
       d="m 92.543411,28.559326 q 0.393677,-0.558472 1.199341,-1.464844 l 3.240967,-3.433227 1.803589,0 -4.064942,4.275513 4.348755,5.758667 -1.84021,0 -3.543091,-4.742432 -1.144409,0.988769 0,3.753663 -1.501465,0 0,-14.245606 1.501465,0 0,7.553101 q 0,0.50354 -0.07324,1.556396 l 0.07324,0 z" />
    <path
       id="path8844"
       style="font-style:normal;font-variant:normal;font-weight:normal;font-stretch:normal;font-size:18.75px;font-family:'open sans';-inkscape-font-specification:'open sans';fill:#ffffff"
       d="m 107.06367,33.695435 -0.30212,-1.428223 -0.0732,0 q -0.75073,0.942993 -1.50147,1.281738 -0.74157,0.32959 -1.85852,0.32959 -1.49231,0 -2.34375,-0.769043 -0.84228,-0.769043 -0.84228,-2.18811 0,-3.039551 4.86145,-3.186035 l 1.70288,-0.05493 0,-0.622559 q 0,-1.18103 -0.5127,-1.739502 -0.50354,-0.567627 -1.62048,-0.567627 -1.25427,0 -2.83813,0.769043 l -0.46692,-1.162719 q 0.74157,-0.402832 1.62048,-0.631714 0.88806,-0.228882 1.77612,-0.228882 1.79444,0 2.65503,0.796509 0.86975,0.796509 0.86975,2.554321 l 0,6.848145 -1.1261,0 z m -3.43322,-1.071167 q 1.41906,0 2.22473,-0.778199 0.81482,-0.778198 0.81482,-2.178955 l 0,-0.906372 -1.51978,0.06409 q -1.81274,0.06409 -2.61841,0.567627 -0.7965,0.494385 -0.7965,1.547241 0,0.823975 0.49438,1.254273 0.50354,0.430298 1.40076,0.430298 z" />
    <path
       id="path8846"
       style="font-style:normal;font-variant:normal;font-weight:bold;font-stretch:normal;font-family:'open sans';-inkscape-font-specification:'open sans Bold';fill:#ffffff"
       d="m 62.495804,46.705078 q 1.812744,0 2.838135,1.419068 1.02539,1.409912 1.02539,3.87268 0,2.536011 -1.062011,3.927612 -1.052857,1.391602 -2.874756,1.391602 -1.803589,0 -2.82898,-1.309204 l -0.192261,0 -0.466919,1.126099 -2.133178,0 0,-14.245606 2.792358,0 0,3.314209 q 0,0.631714 -0.109863,2.023316 l 0.109863,0 q 0.979614,-1.519776 2.902222,-1.519776 z m -0.897217,2.233887 q -1.034546,0 -1.51062,0.640869 -0.476074,0.631714 -0.494385,2.096558 l 0,0.302124 q 0,1.647949 0.48523,2.36206 0.494384,0.714111 1.556396,0.714111 0.860596,0 1.364136,-0.787353 0.512695,-0.796509 0.512695,-2.307129 0,-1.51062 -0.512695,-2.261352 -0.512695,-0.759888 -1.400757,-0.759888 z" />
    <path
       id="path8848"
       style="font-style:normal;font-variant:normal;font-weight:bold;font-stretch:normal;font-family:'open sans';-inkscape-font-specification:'open sans Bold';fill:#ffffff"
       d="m 72.90535,48.691772 q -0.888062,0 -1.391602,0.567627 -0.50354,0.558472 -0.576782,1.593018 l 3.918457,0 q -0.01831,-1.034546 -0.540161,-1.593018 -0.521851,-0.567627 -1.409912,-0.567627 z m 0.393676,8.624268 q -2.471923,0 -3.863525,-1.364136 -1.391601,-1.364135 -1.391601,-3.863525 0,-2.572632 1.281738,-3.973389 1.290893,-1.409912 3.561401,-1.409912 2.1698,0 3.378296,1.235962 1.208496,1.235962 1.208496,3.414917 l 0,1.35498 -6.600952,0 q 0.04578,1.190186 0.704956,1.858521 0.65918,0.668335 1.849365,0.668335 0.924683,0 1.748658,-0.192261 0.823974,-0.192261 1.721191,-0.613403 l 0,2.160644 q -0.732422,0.366211 -1.565552,0.540162 -0.83313,0.183105 -2.032471,0.183105 z" />
    <path
       id="path8850"
       style="font-style:normal;font-variant:normal;font-weight:bold;font-stretch:normal;font-family:'open sans';-inkscape-font-specification:'open sans Bold';fill:#ffffff"
       d="m 86.885452,57.132935 -8.084106,0 0,-1.64795 4.742431,-6.454467 -4.458618,0 0,-2.133179 7.635498,0 0,1.812744 -4.614257,6.289673 4.779052,0 0,2.133179 z" />
    <path
       id="path8852"
       style="font-style:normal;font-variant:normal;font-weight:bold;font-stretch:normal;font-family:'open sans';-inkscape-font-specification:'open sans Bold';fill:#ffffff"
       d="m 99.483109,46.705078 q 1.812741,0 2.838131,1.419068 1.02539,1.409912 1.02539,3.87268 0,2.536011 -1.06201,3.927612 -1.05285,1.391602 -2.874754,1.391602 -1.803589,0 -2.828979,-1.309204 l -0.192261,0 -0.466919,1.126099 -2.133179,0 0,-14.245606 2.792359,0 0,3.314209 q 0,0.631714 -0.109863,2.023316 l 0.109863,0 q 0.979614,-1.519776 2.902222,-1.519776 z m -0.897217,2.233887 q -1.034546,0 -1.51062,0.640869 -0.476075,0.631714 -0.494385,2.096558 l 0,0.302124 q 0,1.647949 0.485229,2.36206 0.494385,0.714111 1.556397,0.714111 0.860596,0 1.364136,-0.787353 0.512691,-0.796509 0.512691,-2.307129 0,-1.51062 -0.512691,-2.261352 -0.512696,-0.759888 -1.400757,-0.759888 z" />
    <path
       id="path8854"
       style="font-style:normal;font-variant:normal;font-weight:bold;font-stretch:normal;font-family:'open sans';-inkscape-font-specification:'open sans Bold';fill:#ffffff"
       d="m 112.15401,57.132935 -0.54016,-1.391602 -0.0733,0 q -0.70495,0.888062 -1.45568,1.235962 -0.74158,0.338745 -1.94092,0.338745 -1.474,0 -2.32544,-0.842285 -0.84229,-0.842285 -0.84229,-2.398682 0,-1.629638 1.13526,-2.398681 1.14441,-0.778199 3.44238,-0.860596 l 1.77612,-0.05493 0,-0.448608 q 0,-1.556397 -1.59302,-1.556397 -1.2268,0 -2.88391,0.741578 l -0.92468,-1.885987 q 1.76697,-0.924682 3.91846,-0.924682 2.05993,0 3.15857,0.897216 1.09863,0.897217 1.09863,2.728272 l 0,6.820679 -1.95007,0 z m -0.82398,-4.742432 -1.08032,0.03662 q -1.21765,0.03662 -1.81274,0.439453 -0.5951,0.402832 -0.5951,1.226807 0,1.18103 1.35498,1.18103 0.97046,0 1.54724,-0.558472 0.58594,-0.558471 0.58594,-1.483154 l 0,-0.842285 z" />
    <path
       id="path8856"
       style="font-style:normal;font-variant:normal;font-weight:bold;font-stretch:normal;font-family:'open sans';-inkscape-font-specification:'open sans Bold';fill:#ffffff"
       d="m 122.68257,46.705078 q 0.56763,0 0.94299,0.0824 l -0.21057,2.618408 q -0.33874,-0.09155 -0.82397,-0.09155 -1.33667,0 -2.0874,0.686646 -0.74158,0.686645 -0.74158,1.922607 l 0,5.209351 -2.79236,0 0,-10.235596 2.11487,0 0.41199,1.721191 0.13733,0 q 0.47607,-0.860595 1.28173,-1.382446 0.81482,-0.531006 1.76697,-0.531006 z" />
    <path
       id="path8858"
       style="font-style:normal;font-variant:normal;font-weight:bold;font-stretch:normal;font-family:'open sans';-inkscape-font-specification:'open sans Bold';fill:#ffffff"
       d="m 125.38338,44.251465 q 0,-1.364136 1.51977,-1.364136 1.51978,0 1.51978,1.364136 0,0.650024 -0.38452,1.016235 -0.37537,0.357056 -1.13526,0.357056 -1.51977,0 -1.51977,-1.373291 z m 2.91137,12.88147 -2.79235,0 0,-10.235596 2.79235,0 0,10.235596 z" />
    <path
       id="path8860"
       style="font-style:normal;font-variant:normal;font-weight:bold;font-stretch:normal;font-family:'open sans';-inkscape-font-specification:'open sans Bold';fill:#ffffff"
       d="m 135.45418,48.691772 q -0.88806,0 -1.3916,0.567627 -0.50354,0.558472 -0.57679,1.593018 l 3.91846,0 q -0.0183,-1.034546 -0.54016,-1.593018 -0.52185,-0.567627 -1.40991,-0.567627 z m 0.39367,8.624268 q -2.47192,0 -3.86352,-1.364136 -1.3916,-1.364135 -1.3916,-3.863525 0,-2.572632 1.28174,-3.973389 1.29089,-1.409912 3.5614,-1.409912 2.1698,0 3.37829,1.235962 1.2085,1.235962 1.2085,3.414917 l 0,1.35498 -6.60095,0 q 0.0458,1.190186 0.70495,1.858521 0.65918,0.668335 1.84937,0.668335 0.92468,0 1.74866,-0.192261 0.82397,-0.192261 1.72119,-0.613403 l 0,2.160644 q -0.73242,0.366211 -1.56555,0.540162 -0.83313,0.183105 -2.03248,0.183105 z m -2.005,-11.5448 0,-0.247192 q 1.57471,-1.831055 2.15149,-2.755737 l 3.1311,0 0,0.19226 q -0.47607,0.476075 -1.62964,1.419068 -1.14441,0.933838 -1.79443,1.391601 l -1.85852,0 z" />
    <path
       id="path8862"
       style="font-style:normal;font-variant:normal;font-weight:bold;font-stretch:normal;font-family:'open sans';-inkscape-font-specification:'open sans Bold';fill:#ffffff"
       d="m 148.02437,46.705078 q 0.56763,0 0.94299,0.0824 l -0.21057,2.618408 q -0.33874,-0.09155 -0.82397,-0.09155 -1.33667,0 -2.08741,0.686646 -0.74157,0.686645 -0.74157,1.922607 l 0,5.209351 -2.79236,0 0,-10.235596 2.11487,0 0.41198,1.721191 0.13733,0 q 0.47608,-0.860595 1.28174,-1.382446 0.81482,-0.531006 1.76697,-0.531006 z" />
  </g>
  <g
     style="fill:#ffffff"
     transform="matrix(0.01479592,0,0,0.01479592,155.27863,42.668079)"
     id="g8821">
    <path
       style="fill:#ffffff"
       d="m 990,10 0,490 -65.3,0 0,-370.3 -609.9,609.8 -46.2,-46.2 618,-618 -386.6,0 0,-65.3 490,0 z m -261.3,914.7 -653.4,0 0,-653.4 429.5,0 0,-65.3 -494.8,0 0,784 784,0 0,-504 -65.3,0 0,438.7 0,0 z"
       id="path8823" />
  </g>
  <style
     id="style4154"
     type="text/css">
	.st0{fill:#A3B5C9;}
</style>
  <g
     id="g4173"
     transform="matrix(0.89858599,0,0,0.93197591,1.5233262,16.914716)"
     style="fill:#ffffff;fill-opacity:0.43042073">
    <g
       id="g4156"
       style="fill:#ffffff;fill-opacity:0.43042073" />
    <g
       id="g4158"
       style="fill:#ffffff;fill-opacity:0.43042073">
      <path
         id="path4160"
         d="M 28.6,31.2 C 28.9,32 29,33 29,34 29,39.5 24.6,44 19,44 13.4,44 9,39.5 9,34 9,31.2 10.2,28.6 12,26.8 L 11.5,24.7 C 8.8,26.8 7,30.2 7,34 c 0,6.6 5.4,12 12,12 6.6,0 12,-5.4 12,-12 0,-1 -0.1,-2 -0.4,-3 l -2,0.2 z"
         class="st0"
         inkscape:connector-curvature="0"
         style="fill:#ffffff;fill-opacity:0.43042073" />
      <path
         id="path4162"
         d="m 20,10 c 2.2,0 4,-1.8 4,-4 0,-2.2 -1.8,-4 -4,-4 -2.2,0 -4,1.8 -4,4 0,2.2 1.8,4 4,4 z m 0,-6 c 1.1,0 2,0.9 2,2 0,1.1 -0.9,2 -2,2 -1.1,0 -2,-0.9 -2,-2 0,-1.1 0.9,-2 2,-2 z"
         class="st0"
         inkscape:connector-curvature="0"
         style="fill:#ffffff;fill-opacity:0.43042073" />
      <path
         id="path4164"
         d="M 42,39.8 C 41.9,39.3 41.3,38.9 40.8,39.1 L 37.6,39.9 35,26.9 C 34.9,26.4 34.4,26 33.9,26.1 L 24.8,27 22,12.9 c -0.1,-0.5 -0.5,-0.8 -1,-0.8 l -4,0 c -0.4,0 -0.7,0.2 -0.9,0.6 l -3,6 C 13,18.8 13,19 13,19.2 l 1.6,8 c 0.1,0.5 0.6,0.9 1.2,0.8 0.5,-0.1 0.9,-0.6 0.8,-1.2 L 15,19.2 17.5,14 20.1,14 23,28.2 c 0.1,0.5 0.6,0.9 1.1,0.8 l 9.1,-0.9 2.6,13.1 c 0.1,0.3 0.2,0.5 0.4,0.6 0.2,0.1 0.3,0.2 0.5,0.2 0.1,0 0.2,0 0.2,0 l 4.2,-1 c 0.7,-0.2 1,-0.7 0.9,-1.2 z"
         class="st0"
         inkscape:connector-curvature="0"
         style="fill:#ffffff;fill-opacity:0.43042073" />
    </g>
  </g>
</svg>
