<?xml version="1.0" encoding="utf-8"?>
<!-- Generator: Adobe Illustrator 21.1.0, SVG Export Plug-In . SVG Version: 6.00 Build 0)  -->
<svg version="1.1" id="Layer_1" xmlns="http://www.w3.org/2000/svg" xmlns:xlink="http://www.w3.org/1999/xlink" x="0px" y="0px"
	 width="32px" height="32px" viewBox="0 0 32 32" style="enable-background:new 0 0 32 32;" xml:space="preserve">
<style type="text/css">
	.st0{fill:#0A77A9;}
</style>
<path id="ic_tw" class="st0" d="M31.9,5.9c-1.2,0.5-2.5,0.9-3.8,1C29.5,6,30.6,4.7,31,3.2c-1.3,0.8-2.7,1.3-4.1,1.6
	c-1.2-1.4-3-2.1-4.8-2.1c-3.7,0-6.6,3.1-6.5,6.7l0,0c0,0.5,0.1,1,0.2,1.5C10.5,10.6,5.6,8,2.3,3.9c-1.7,3.1-0.9,7,2,9
	c-1,0-2.1-0.3-3-0.9v0.1c0,3.2,2.2,5.9,5.2,6.6c-0.6,0.1-1.1,0.2-1.7,0.2c-0.4,0-0.8,0-1.2-0.1c0.8,2.7,3.3,4.6,6.1,4.7
	c-2.3,1.9-5.2,2.9-8.1,2.9c-0.5,0-1.1,0-1.6-0.1c3,2,6.5,3,10,3c12,0,18.6-10.2,18.6-19.1c0-0.3,0-0.6,0-0.9
	C29.9,8.4,31,7.2,31.9,5.9z"/>
</svg>
