<svg xmlns="http://www.w3.org/2000/svg" height="81.043" width="555" viewBox="0 0 555 81.043"><path d="M486 39.403l16.86-9.66c1.5-.87.65-1.77-.38-1.77v-.38h12v.41a16 16 0 0 0-5.64 2.24l-15.17 8.56 17.67 13.55c1.33 1 2.49 2 4 2.14v.39h-12L486 41.073v10.61a2.52 2.52 0 0 0 2.78 2.78v.39h-13v-.38a2.52 2.52 0 0 0 2.78-2.78v-20.94a2.52 2.52 0 0 0-2.78-2.75v-.38h13v.38a2.52 2.52 0 0 0-2.78 2.75z" fill="#fff"/><path d="M555 47.073c0 4.71-4.42 7.72-15 7.78h-20.58v-.38a2.52 2.52 0 0 0 2.78-2.78v-20.94a2.52 2.52 0 0 0-2.78-2.75v-.38h21.76c9 0 12.16 2.91 12.16 6.29 0 4.56-4.86 6.12-9.38 6.54 4.76 0 11 1.55 11 6.65m-9.74-12.32c0-3.74-4.41-4.23-8.92-4.2a60.63 60.63 0 0 0-6.67.36v8s2.67.12 4.45.12c9-.07 11.14-1.21 11.14-4.32m-7.06 17c3.85 0 8.6-.6 8.6-4.76 0-5.71-9.78-5.11-17.13-4.67v7.29c0 1 1.25 2 2.71 2.07 1.72.07 5.82.08 5.82.08" fill="#fff"/><path d="M33.62 26.353c0 6.11-5 9.7-14.54 9.7H0V.713h18.07c9.29 0 13.84 3.78 13.84 9.29a8.35 8.35 0 0 1-4.75 7.67c4 1.41 6.46 4.44 6.46 8.73M9.89 7.933v6.81h6.87c3.33 0 5-1.16 5-3.43 0-2.27-1.72-3.38-5-3.38zm13.64 17.31c0-2.42-1.82-3.58-5.26-3.58H9.89v7.17h8.38c3.44 0 5.26-1.16 5.26-3.59" fill="#fff"/><path d="M38.32 20.303V.713h10v19.29c0 6.06 2.52 8.48 6.71 8.48 4.19 0 6.67-2.43 6.67-8.48V.713h9.84v19.59c0 10.55-6.16 16.45-16.61 16.45s-16.61-5.9-16.61-16.45" fill="#fff"/><path d="M78.48.713h16.71c11.71 0 19.74 6.81 19.74 17.67 0 10.86-8 17.67-19.74 17.67H78.48zm16.31 27.36c6 0 10-3.58 10-9.69 0-6.11-4-9.7-10-9.7h-6.31v19.39z" fill="#fff"/><path d="M118.08 18.383c0-10.6 8.33-18.38 19.64-18.38s19.64 7.78 19.64 18.38c0 10.6-8.36 18.37-19.64 18.37-11.28 0-19.64-7.75-19.64-18.37m29.18 0c0-6.11-4.19-10.1-9.54-10.1-5.35 0-9.54 4-9.54 10.1s4.19 10.09 9.54 10.09c5.35 0 9.54-4 9.54-10.09" fill="#fff"/><path d="M162.09 20.303V.713h10v19.29c0 6.06 2.52 8.48 6.72 8.48 4.2 0 6.66-2.42 6.66-8.48V.713h9.84v19.59c0 10.55-6.16 16.45-16.61 16.45s-16.6-5.9-16.6-16.45" fill="#fff"/><path d="M200.15 18.383c0-10.76 8.23-18.38 19.44-18.38 6.51 0 11.76 2.37 15.19 6.67l-6.36 5.75a10.42 10.42 0 0 0-8.33-4.14c-5.8 0-9.84 4-9.84 10.1s4 10.09 9.84 10.09a10.42 10.42 0 0 0 8.33-4.14l6.36 5.76c-3.43 4.29-8.68 6.66-15.19 6.66-11.21 0-19.44-7.62-19.44-18.37" fill="#fff"/><path transform="translate(0 .003)" fill="#fff" d="M264.4 36.05l-15.59-18.83v18.83h-9.8V.71h8.23l15.6 18.83V.71h9.79v35.34z"/><path d="M277.86 18.383c0-10.6 8.33-18.38 19.64-18.38s19.64 7.78 19.64 18.38c0 10.6-8.33 18.37-19.64 18.37s-19.64-7.75-19.64-18.37m29.18 0c0-6.11-4.19-10.1-9.54-10.1-5.35 0-9.54 4-9.54 10.1s4.19 10.09 9.54 10.09c5.35 0 9.54-4 9.54-10.09" fill="#fff"/><path d="M319.81 32.873l3.28-7.37a22.27 22.27 0 0 0 11.66 3.5c4.14 0 5.76-1.16 5.76-2.88 0-5.6-20.1-1.51-20.1-14.64 0-6.33 5.15-11.48 15.65-11.48a26.49 26.49 0 0 1 12.83 3.08l-3.08 7.42a20.85 20.85 0 0 0-9.81-2.72c-4.18 0-5.7 1.41-5.7 3.18 0 5.4 20 1.36 20 14.38 0 6.16-5.15 11.41-15.65 11.41-5.8 0-11.56-1.56-14.89-3.88" fill="#fff"/><path transform="translate(0 .003)" fill="#fff" d="M351.67.71h31.65v7.92h-10.8v27.42h-9.99V8.63h-10.86z"/><path d="M164.25 75.843l5.46-6.46c1.86 2.42 3.83 3.68 6.11 3.68 2.87 0 4.44-1.76 4.44-5.15v-15.19H168v-7.72h22.11v22.31c0 9.19-4.74 13.73-13.63 13.73-5.15 0-9.54-1.82-12.27-5.2" fill="#fff"/><path  d="M194.63 77.153l3.29-7.37a22.28 22.28 0 0 0 11.66 3.49c4.14 0 5.75-1.17 5.75-2.88 0-5.61-20.09-1.52-20.09-14.64 0-6.31 5.15-11.46 15.65-11.46a26.45 26.45 0 0 1 12.82 3.08l-3.08 7.42a20.83 20.83 0 0 0-9.79-2.73c-4.19 0-5.71 1.42-5.71 3.18 0 5.4 20.05 1.37 20.05 14.39 0 6.16-5.18 11.37-15.65 11.37-5.81 0-11.56-1.56-14.9-3.89" fill="#fff"/><path transform="translate(0 .003)" fill="#fff" d="M226.5 45h31.65v7.92h-10.8v27.41h-10V52.92H226.5z"/><path transform="translate(0 .003)" fill="#fff" d="M261.43 80.33V44.99h27.71v7.73h-17.82v5.95h15.7v7.48h-15.7v6.46h18.48v7.72z"/><path transform="translate(0 .003)" fill="#fff" d="M320.88 80.33l-15.09-35.34h10.8l9.6 23.03 9.79-23.03h9.89l-15.14 35.34z"/><path transform="translate(0 .003)" fill="#fff" d="M360.04 80.33V67.51l-13.48-22.52h10.55l8.38 14.04 8.38-14.04h9.69l-13.53 22.67v12.67z"/><path fill="#fff" d="M400.73 12.453h57.38v57.38h-57.38z"/><path fill="#e3002c" d="M402.11 13.833h54.62v27.75h-54.62z"/><path fill="#1a1a18" d="M402.11 41.143h54.62v27.31h-54.62z"/><path fill="#fff" d="M413.82 41.143h31.2v2.61h-31.2z"/></svg>
