<svg xmlns="http://www.w3.org/2000/svg" width="270" height="58.36"><path style="fill:#004f7d;fill-opacity:1;fill-rule:nonzero;stroke:none" d="M0 0c5.751 0 7.655-1.039 7.655-3.417v-2.638H0c-3.763 0-4.671-1.644-4.671-8.001 0-6.357.908-8.001 4.671-8.001h7.655v-2.638c0-2.38-1.904-3.417-7.655-3.417-7.655 0-11.808 4.194-11.808 14.056C-11.808-4.196-7.655 0 0 0m-1.039 1.253c-.518 0-.82.13-1.297.736l-3.46 4.497c-.173.217-.173.476-.173.65h2.681c.564 0 .779-.131 1.385-.65L-.13 4.844l1.773 1.642c.605.519.822.65 1.383.65h2.682c0-.174 0-.433-.172-.65L2.074 1.989c-.474-.606-.778-.736-1.296-.736h-1.817z" transform="matrix(.87886 0 0 -.87886 12.854 12.073)"/><path style="fill:#004f7d;fill-opacity:1;fill-rule:nonzero;stroke:none" d="M0 0c0 1.644.735 2.465 2.378 2.465h15.137V-.952c0-1.642-.82-2.42-2.465-2.42H6.92v-4.975h9.082v-5.622H6.92v-5.407h10.812v-3.416c0-1.643-.821-2.422-2.466-2.422H2.378C.735-25.214 0-24.392 0-22.749V0z" transform="matrix(.87886 0 0 -.87886 21.485 14.43)"/><path style="fill:#004f7d;fill-opacity:1;fill-rule:nonzero;stroke:none" d="M0 0c5.751 0 8.736-.65 8.736-3.331v-2.724H.865c-2.12 0-2.724-.563-2.724-1.687 0-3.329 12.022-2.638 12.022-11.98 0-4.455-2.552-8.39-10.337-8.39-5.103 0-9.125.822-9.125 3.33v2.725H0c1.902 0 2.81.605 2.81 1.946 0 3.633-11.979 2.941-11.979 12.542C-9.169-3.331-6.358 0 0 0" transform="matrix(.87886 0 0 -.87886 47.145 12.073)"/><path style="fill:#004f7d;fill-opacity:1;fill-rule:nonzero;stroke:none" d="m0 0 6.921 11.417c.648 1.125 1.037 1.255 1.946 1.255h6.487c0-.433-.087-.779-.347-1.211L7.051-.691l8.347-13.106c.215-.345.388-.778.388-1.211H9.515c-1.298 0-1.686.087-2.422 1.255L0-2.378v-12.63h-6.92v25.214c0 1.645.735 2.466 2.379 2.466H0V0z" transform="matrix(.87886 0 0 -.87886 64.822 23.4)"/><path style="fill:#004f7d;fill-opacity:1;fill-rule:nonzero;stroke:none" d="M0 0c1.168 0 1.729-.13 1.99-1.125l6.444-25.56c.086-.39.13-.778.13-1.081H2.898c-1.169 0-1.513.087-1.73 1.038l-1.342 5.536h-6.444l-1.252-5.536c-.216-.951-.564-1.038-1.731-1.038h-5.622c0 .303.043.65.129 1.081l6.444 25.56C-8.39-.13-7.827 0-6.66 0H0zm-5.579-16.002h4.281l-2.074 8.865h-.174l-2.033-8.865zm4.455 18.035c-.563-.606-.822-.65-1.383-.65h-2.681c0 .174 0 .433.17.65l3.461 4.498c.476.605.779.735 1.298.735h2.637c.303 0 .477-.13.477-.304 0-.216-.087-.346-.433-.777l-3.546-4.152z" transform="matrix(.87886 0 0 -.87886 92.459 12.187)"/><path style="fill:#004f7d;fill-opacity:1;fill-rule:nonzero;stroke:none" d="M0 0c1.903 0 3.203-.043 3.203-.996v-.561H-.064c-.975 0-1.602-.433-1.602-1.126 0-2.249 5.451-1.601 5.451-5.235 0-1.773-1.166-3.114-4.218-3.114-1.774 0-3.418 0-3.418.928v.607h3.634c1.298 0 1.905.453 1.905 1.428 0 2.054-5.431 1.644-5.431 5.278C-3.743-1.06-2.336 0 0 0" transform="matrix(.87886 0 0 -.87886 5.864 44.473)"/><path style="fill:#004f7d;fill-opacity:1;fill-rule:nonzero;stroke:none" d="M0 0h-1.948v14.062h.975c.691 0 .973-.369.973-.909v-.347c.605.714 1.579 1.364 2.812 1.364 2.553 0 3.741-2.098 3.741-5.517 0-3.418-1.188-5.516-3.741-5.516C1.579 3.137.605 3.785 0 4.5V0zm2.163 12.612c-.844 0-1.601-.388-2.163-.909V5.647c.562-.52 1.319-.91 2.163-.91 1.688 0 2.379 1.385 2.379 3.916 0 2.532-.691 3.959-2.379 3.959" transform="matrix(.87886 0 0 -.87886 12.232 56.926)"/><path style="fill:#004f7d;fill-opacity:1;fill-rule:nonzero;stroke:none" d="M0 0c0 3.029.995 5.517 4.391 5.517C7.81 5.517 8.783 3.029 8.783 0c0-3.028-.973-5.517-4.392-5.517C.995-5.517 0-3.028 0 0m6.77 0c0 2.661-.519 4.067-2.379 4.067-1.838 0-2.379-1.406-2.379-4.067 0-2.66.541-4.067 2.379-4.067C6.251-4.067 6.77-2.66 6.77 0" transform="matrix(.87886 0 0 -.87886 19.207 49.321)"/><path style="fill:#004f7d;fill-opacity:1;fill-rule:nonzero;stroke:none" d="M0 0c-.259 0-.389.064-.648.368l-1.731 2.055c-.087.109-.087.239-.087.326h.866c.281 0 .411-.045.692-.326L.259 1.341 1.45 2.423c.281.281.411.326.692.326h.865c0-.087 0-.217-.087-.326L1.189.368C.93.064.801 0 .542 0H0zm-2.12-11.746V-.93h.974c.649 0 .931-.518.974-1.341.843 1.125 1.968 1.45 2.791 1.45.367 0 .756-.086.756-.542v-1.383h-.54c-1.58 0-2.379-.391-3.007-.909v-8.091H-2.12z" transform="matrix(.87886 0 0 -.87886 30.403 43.75)"/><path style="fill:#004f7d;fill-opacity:1;fill-rule:nonzero;stroke:none" d="M0 0h-1.948v1.233c0 .649.239 1.018.888 1.018H0V0zm-1.948-1.211h1.039c.67 0 .909-.367.909-1.018v-9.798h-1.948v10.816z" transform="matrix(.87886 0 0 -.87886 35.878 43.504)"/><path style="fill:#004f7d;fill-opacity:1;fill-rule:nonzero;stroke:none" d="M0 0h2.336v-1.449H0v-6.598c0-.931.108-1.277.801-1.277h1.535v-.498c0-.843-.779-1.037-1.86-1.037-2.207 0-2.422 1.211-2.422 2.812v6.598h-1.363v1.081L-1.946 0l.691 1.73c.216.456.368.649.758.649H0V0z" transform="matrix(.87886 0 0 -.87886 40.097 44.568)"/><path style="fill:#004f7d;fill-opacity:1;fill-rule:nonzero;stroke:none" d="M0 0v-.497c0-.844-1.147-1.039-3.526-1.039-3.375 0-4.413 2.488-4.413 5.516 0 3.03 1.104 5.517 4.39 5.517 2.661 0 4.046-1.644 4.046-4.023 0-.499 0-.953-.108-1.991h-6.296C-5.907.974-5.063 0-3.31 0H0zm-1.493 4.824c.021.194.021.627.021.888 0 1.037-.411 2.335-2.054 2.335-1.493 0-2.294-.95-2.381-3.223h4.414z" transform="matrix(.87886 0 0 -.87886 49.66 52.82)"/><path style="fill:#004f7d;fill-opacity:1;fill-rule:nonzero;stroke:none" d="M0 0h-1.947v13.261c0 .648.238 1.017.887 1.017H0V0z" transform="matrix(.87886 0 0 -.87886 53.365 54.074)"/><path style="fill:#004f7d;fill-opacity:1;fill-rule:nonzero;stroke:none" d="M0 0v10.816h.973c.692 0 .974-.368.974-.887v-.368a3.989 3.989 0 0 0 3.028 1.364c2.098 0 3.137-1.298 3.137-3.31V0H6.187v7.529c0 1.276-.736 1.816-1.969 1.816-.822 0-1.665-.388-2.271-.908V0H0z" transform="matrix(.87886 0 0 -.87886 55.455 54.074)"/><path style="fill:#004f7d;fill-opacity:1;fill-rule:nonzero;stroke:none" d="M0 0c-.692 0-.953.368-.953.907v.348A4.086 4.086 0 0 0-3.98-.108c-1.948 0-3.159 1.189-3.159 3.007 0 2.726 2.855 3.418 6.186 3.569v1.017c0 1.472-.994 1.882-2.314 1.882h-3.115v.562c0 .953 1.125.996 3.396.996 2.489 0 3.959-1.082 3.959-3.353V0H0zm-.953 5.234c-2.964-.064-4.153-.713-4.153-2.097 0-1.19.843-1.622 1.947-1.622.821 0 1.644.367 2.206.887v2.832z" transform="matrix(.87886 0 0 -.87886 70.473 54.074)"/><path style="fill:#e41f25;fill-opacity:1;fill-rule:nonzero;stroke:none" d="M0 0c1.381 0 2.592-.516 3.597-1.542C4.604-2.564 5.118-3.81 5.118-5.218c0-1.441-.503-2.672-1.509-3.694C2.603-9.937 1.381-10.45 0-10.45c-1.409 0-2.624.513-3.61 1.538-1.003 1.022-1.505 2.253-1.505 3.694 0 1.408.502 2.642 1.49 3.662C-2.624-.525-1.409 0 0 0m16.987-20.695v3.173c0 3-2.432 5.44-5.436 5.44h-23.106a5.439 5.439 0 0 1-5.435-5.44v-11.952H8.787v-1.811H-16.99v-3.172a5.435 5.435 0 0 1 5.435-5.436h23.106a5.436 5.436 0 0 1 5.436 5.436v11.951H-8.787v1.811h25.774z" transform="matrix(.87886 0 0 -.87886 121.382 1.53)"/><path style="fill:#fff;fill-opacity:1;fill-rule:nonzero;stroke:none" d="M253.485 25.684c2.431-.195 4.524-1.146 5.573-3.243a4.84 4.84 0 0 0 .489-1.96v-1.202l-4.89-3.205v.748s.494.342.864.608c.474.342.585.837.49 1.471-.215 1.424-1.28 1.961-2.129 1.996-.793.032-1.525-.224-2.137-.666-2.36-1.695-2.096-6.1.59-9.837 1.212-1.688 3.35-3.38 4.525-3.791.249-.398.654-1.167.908-1.595-.564.135-1.2.314-1.875.547a2.055 2.055 0 0 0-.29-3.267h-2.18a2.059 2.059 0 0 0 1.09 3.803l.008-.001c-1.726.75-3.552 1.854-5.01 3.469-4.441 4.913-5.073 11.334-1.584 14.488 1.06.958 2.392 1.494 3.857 1.637h1.701"/><path style="fill:#ec1b41;fill-opacity:1;fill-rule:nonzero;stroke:none" d="M267.625 4.502a1.264 1.264 0 0 1-.93.386c-.363 0-.673-.129-.927-.386a1.27 1.27 0 0 1-.38-.93c0-.36.128-.668.383-.923s.563-.382.925-.382c.363 0 .672.127.929.382.255.254.384.562.384.924s-.129.673-.384.93m-1.728-1.724c-.219.22-.33.484-.33.796 0 .313.11.58.328.801.22.22.486.33.8.33.313 0 .58-.11.799-.33.22-.22.33-.488.33-.801 0-.312-.11-.577-.33-.796a1.088 1.088 0 0 0-.799-.332c-.31 0-.578.11-.798.332m.776.073c.18 0 .31.017.393.052.15.061.225.183.225.364 0 .13-.048.225-.142.285a.543.543 0 0 1-.208.07.348.348 0 0 1 .247.14c.053.076.078.15.078.222v.105l.003.106a.255.255 0 0 0 .012.075l.01.017h-.236l-.004-.014-.003-.016-.005-.046V4.1c0-.164-.046-.273-.137-.326-.054-.03-.15-.046-.285-.046h-.202v.561h-.251V2.852zm.273.233a.677.677 0 0 0-.308-.053h-.218v.515h.23c.108 0 .189-.011.243-.033.1-.038.15-.112.15-.221 0-.103-.032-.173-.097-.208M264.695 2.283h-9.1a2.055 2.055 0 0 1 .298 3.272 20.13 20.13 0 0 1 1.875-.546c-.254.428-.658 1.197-.908 1.593-1.176.412-3.313 2.105-4.525 3.792-2.686 3.737-2.95 8.142-.59 9.838.613.44 1.344.697 2.137.665.85-.034 1.914-.572 2.128-1.995.096-.635-.015-1.13-.49-1.473a65.93 65.93 0 0 0-.864-.606v-.748l4.89 3.203v1.202a4.84 4.84 0 0 1-.488 1.96c-1.049 2.098-3.142 3.049-5.573 3.244h11.21V2.283"/><path style="fill:#ec1b41;fill-opacity:1;fill-rule:nonzero;stroke:none" d="M249.51 9.558c1.459-1.614 3.286-2.719 5.011-3.468h-.007a2.058 2.058 0 0 1-1.082-3.807h-12.137v23.4h10.489c-1.465-.142-2.796-.678-3.857-1.635-3.49-3.155-2.857-9.576 1.584-14.49"/><path style="fill:#ed1c2e;fill-opacity:1;fill-rule:nonzero;stroke:none" d="M200.874 13.922c0-3.728 1.746-7.05 4.465-9.19a11.633 11.633 0 0 0-7.224-2.5c-6.456 0-11.69 5.235-11.69 11.69 0 6.456 5.234 11.69 11.69 11.69 2.727 0 5.236-.934 7.224-2.5a11.67 11.67 0 0 1-4.465-9.19"/><path style="fill:#f79220;fill-opacity:1;fill-rule:nonzero;stroke:none" d="m223.768 20.712-.136.313-.136-.313h-.118v.454h.084v-.342l.127.295h.087l.127-.296v.343h.085v-.454zm-.866.002v.076h.152v.376h.083v-.376h.152v-.076h-.387"/><path style="fill:#f25623;fill-opacity:1;fill-rule:nonzero;stroke:none" d="M205.339 4.732a11.668 11.668 0 0 0-4.465 9.19 11.67 11.67 0 0 0 4.465 9.191 11.67 11.67 0 0 0 4.465-9.19c0-3.73-1.746-7.05-4.465-9.191"/><path style="fill:#f79220;fill-opacity:1;fill-rule:nonzero;stroke:none" d="M224.252 13.922c0 6.456-5.233 11.69-11.689 11.69-2.727 0-5.236-.934-7.224-2.5a11.67 11.67 0 0 0 4.465-9.19 11.67 11.67 0 0 0-4.465-9.19 11.633 11.633 0 0 1 7.224-2.5c6.456 0 11.69 5.235 11.69 11.69"/><path style="fill:none;stroke:#040606;stroke-width:.51740026;stroke-linecap:butt;stroke-linejoin:miter;stroke-miterlimit:10;stroke-dasharray:none;stroke-opacity:1" d="M232.443 2.266V25.58"/><path style="fill:#040606;fill-opacity:1;fill-rule:nonzero;stroke:none" d="M195.368 35.949c.418 0 .8.064 1.148.192a2.448 2.448 0 0 1 1.469 1.398c.137.333.206.703.206 1.111v4.186h-1.063V39c0-.647-.17-1.148-.51-1.505-.34-.356-.82-.534-1.443-.534-.285 0-.552.047-.802.143-.25.094-.468.231-.656.409a1.931 1.931 0 0 0-.445.653 2.17 2.17 0 0 0-.165.862v3.808h-1.062V39c0-.647-.169-1.148-.506-1.505-.338-.356-.818-.534-1.44-.534-.285 0-.553.047-.803.143-.25.094-.468.231-.655.409a1.943 1.943 0 0 0-.446.653c-.11.256-.165.544-.165.862v3.808h-1.068v-6.752h1.055v.962c.138-.199.294-.37.47-.51s.364-.254.564-.342c.2-.088.404-.15.613-.188.209-.038.418-.057.627-.057.594 0 1.11.124 1.547.373.438.25.766.599.985 1.045.132-.262.296-.482.491-.662.195-.182.404-.328.627-.44.224-.11.458-.192.703-.242.245-.05.486-.074.724-.074M206.996 42.836h-1.062V41.83c-.271.347-.61.623-1.016.83-.407.207-.89.31-1.452.31-.475 0-.918-.088-1.329-.263a3.25 3.25 0 0 1-1.07-.732 3.408 3.408 0 0 1-.712-1.111 3.73 3.73 0 0 1-.26-1.408c0-.504.086-.971.26-1.402.173-.43.41-.8.712-1.112a3.243 3.243 0 0 1 1.07-.73 3.339 3.339 0 0 1 1.33-.264c.56 0 1.044.104 1.451.313.406.21.745.484 1.016.827v-1.005h1.062zm-3.4-5.89c-.362 0-.691.065-.988.197-.297.131-.552.31-.763.539a2.441 2.441 0 0 0-.492.798c-.117.304-.175.63-.175.977 0 .351.058.679.175.983.116.305.281.57.495.799.214.228.47.407.766.538.298.131.625.196.981.196.352 0 .675-.064.97-.193a2.29 2.29 0 0 0 1.254-1.325 2.75 2.75 0 0 0 .18-.998c0-.357-.06-.689-.18-.995a2.4 2.4 0 0 0-.495-.796 2.314 2.314 0 0 0-.76-.527 2.407 2.407 0 0 0-.969-.192M214.026 37.517a2.759 2.759 0 0 0-.4-.224 4.603 4.603 0 0 0-1.14-.353 3.897 3.897 0 0 0-.67-.058 2.65 2.65 0 0 0-.656.075c-.196.05-.363.12-.503.21a.96.96 0 0 0-.325.336.879.879 0 0 0-.114.442c0 .285.118.502.354.649.235.147.576.247 1.023.299l.799.1c.717.095 1.274.294 1.67.599.398.304.596.732.596 1.283 0 .324-.07.613-.21.87-.14.256-.339.475-.596.656-.256.18-.567.32-.933.417a4.782 4.782 0 0 1-1.234.146c-.218 0-.448-.014-.688-.043a4.976 4.976 0 0 1-1.451-.413 3.711 3.711 0 0 1-.677-.406l.492-.799c.128.1.268.194.42.281.152.089.323.167.514.236.19.069.4.122.631.16.23.038.489.057.774.057.57 0 1.023-.092 1.357-.278.336-.185.504-.456.504-.813a.765.765 0 0 0-.346-.652c-.231-.164-.586-.274-1.066-.332l-.806-.092c-.765-.095-1.329-.305-1.69-.627-.361-.324-.541-.737-.541-1.241 0-.319.064-.605.192-.86.128-.254.31-.469.545-.644a2.54 2.54 0 0 1 .852-.403c.333-.093.701-.14 1.106-.14.532 0 1.03.068 1.493.204.464.136.86.312 1.187.53l-.463.828M221.113 37.047h-2.917v3.407c0 .267.034.494.1.685.067.19.16.347.278.47.12.124.261.215.425.275.164.06.343.09.538.09.261 0 .513-.045.756-.133.242-.088.463-.203.663-.346l.5.807c-.258.194-.551.354-.882.48-.33.126-.704.19-1.123.19-.366 0-.691-.051-.976-.15a1.84 1.84 0 0 1-.728-.46 2.03 2.03 0 0 1-.456-.781 3.504 3.504 0 0 1-.157-1.105v-3.43h-1.475v-.962h1.475v-2.146h1.062v2.146h2.917v.963M225.804 35.949c.457 0 .878.085 1.266.256.387.171.72.41 1.002.716.28.307.5.674.659 1.102a4.133 4.133 0 0 1 .224 1.81h-5.411c.038.367.126.687.264.96.138.274.314.502.527.689.214.185.458.324.732.416.272.093.561.14.865.14.418 0 .808-.075 1.167-.225a3.33 3.33 0 0 0 .973-.624l.57.727a3.806 3.806 0 0 1-1.33.831c-.23.083-.467.141-.71.174-.242.034-.486.05-.733.05-.5 0-.958-.084-1.377-.253a3.107 3.107 0 0 1-1.08-.716 3.276 3.276 0 0 1-.706-1.11 3.873 3.873 0 0 1-.253-1.429c0-.518.084-.991.253-1.422.169-.43.403-.8.702-1.108.3-.31.654-.55 1.063-.724a3.38 3.38 0 0 1 1.333-.26m-.02.947a2.26 2.26 0 0 0-.853.154 2.016 2.016 0 0 0-.663.428 2.277 2.277 0 0 0-.464.656 2.869 2.869 0 0 0-.246.837h4.336a2.773 2.773 0 0 0-.225-.855 2.16 2.16 0 0 0-.45-.656 1.909 1.909 0 0 0-.641-.418 2.15 2.15 0 0 0-.795-.146M234.017 35.949c.243 0 .465.017.667.053.202.035.394.094.574.175l-.257 1.048a2.1 2.1 0 0 0-.56-.203 2.824 2.824 0 0 0-.608-.068c-.267 0-.51.05-.732.15-.22.1-.41.24-.57.424a1.994 1.994 0 0 0-.374.663c-.09.258-.135.548-.135.866v3.779h-1.063v-6.752h1.055v.948c.233-.347.52-.614.863-.802a2.338 2.338 0 0 1 1.14-.281M239.572 35.949c.504 0 .971.09 1.4.27.43.181.798.445 1.102.792l-.684.72a3.032 3.032 0 0 0-.838-.577 2.394 2.394 0 0 0-1.009-.207 2.328 2.328 0 0 0-2.2 1.504 2.717 2.717 0 0 0-.181 1.006c0 .365.06.702.182 1.008.12.307.289.572.502.795a2.31 2.31 0 0 0 1.697.713c.372 0 .715-.073 1.03-.22.316-.149.596-.339.839-.571l.662.727c-.309.347-.677.61-1.104.791-.428.18-.894.271-1.398.271-.518 0-.993-.089-1.423-.267a3.28 3.28 0 0 1-1.104-.738 3.302 3.302 0 0 1-.714-1.116 3.795 3.795 0 0 1-.253-1.393c0-.5.085-.964.253-1.391.169-.428.407-.799.714-1.112.306-.314.674-.56 1.104-.738.43-.179.905-.267 1.423-.267M250.16 42.836h-1.063V41.83c-.27.347-.61.623-1.016.83-.406.207-.89.31-1.451.31a3.35 3.35 0 0 1-1.33-.263 3.25 3.25 0 0 1-1.07-.732 3.408 3.408 0 0 1-.712-1.111 3.73 3.73 0 0 1-.26-1.408c0-.504.087-.971.26-1.402.174-.43.411-.8.713-1.112a3.243 3.243 0 0 1 1.07-.73 3.34 3.34 0 0 1 1.329-.264c.561 0 1.045.104 1.451.313.407.21.745.484 1.016.827v-1.005h1.063zm-3.401-5.89c-.361 0-.69.065-.988.197-.297.131-.551.31-.763.539a2.441 2.441 0 0 0-.492.798 2.71 2.71 0 0 0-.174.977c0 .351.058.679.174.983.116.305.282.57.496.799.214.228.47.407.766.538.298.131.624.196.98.196.352 0 .675-.064.97-.193a2.288 2.288 0 0 0 1.255-1.325c.119-.31.179-.642.179-.998 0-.357-.06-.689-.18-.995a2.405 2.405 0 0 0-.494-.796 2.311 2.311 0 0 0-.76-.527 2.407 2.407 0 0 0-.97-.192M255.713 35.949c.242 0 .465.017.667.053.202.035.393.094.574.175l-.257 1.048a2.113 2.113 0 0 0-.56-.203 2.83 2.83 0 0 0-.61-.068c-.265 0-.509.05-.73.15-.221.1-.412.24-.57.424-.16.182-.284.404-.375.663-.09.258-.135.548-.135.866v3.779h-1.063v-6.752h1.055v.948a2.47 2.47 0 0 1 .863-.802 2.339 2.339 0 0 1 1.141-.281M261.146 35.949c.562 0 1.045.104 1.451.313.407.21.746.484 1.017.827v-4.52h1.062v10.267h-1.062V41.83c-.271.347-.61.623-1.017.83-.406.207-.89.31-1.45.31-.476 0-.92-.088-1.33-.263a3.247 3.247 0 0 1-1.07-.732 3.393 3.393 0 0 1-.712-1.112c-.174-.43-.261-.9-.261-1.407 0-.504.087-.971.26-1.402.174-.43.412-.8.713-1.112a3.255 3.255 0 0 1 1.07-.731 3.356 3.356 0 0 1 1.33-.263m.128.998c-.361 0-.69.064-.988.196-.296.131-.552.31-.763.539a2.432 2.432 0 0 0-.491.798c-.117.304-.175.63-.175.977 0 .351.058.679.175.983.116.305.281.57.495.799.214.228.47.407.766.538.297.131.624.196.98.196.353 0 .676-.064.97-.193.295-.128.549-.303.76-.527a2.4 2.4 0 0 0 .495-.798c.12-.31.18-.642.18-.998 0-.357-.06-.689-.18-.995a2.406 2.406 0 0 0-.495-.796 2.287 2.287 0 0 0-.76-.527 2.403 2.403 0 0 0-.97-.192"/><path style="fill:#040606;fill-opacity:1;fill-rule:nonzero;stroke:none" d="M179.01 50.264a.068.068 0 0 0-.026.006c-.003 0-.007 0-.011.002l-.01.003-.01.002-.008.004-.012.008.006.008-.012.012-.01.013-.004.006h-.004v.01l-.006.012h.002v.002l-.002.004-.002.006c0 .003-.004.007-.004.007a.068.068 0 0 0-.002.018v.012a.068.068 0 0 0 .002.017l.002.008V57.58a.068.068 0 0 0 .002.013l.004.01a.068.068 0 0 0 .002.004.068.068 0 0 0 0 .002.068.068 0 0 0 .002.004.068.068 0 0 0 0 .002v.002a.068.068 0 0 0 .002.002.068.068 0 0 0 0 .002.068.068 0 0 0 0 .002.068.068 0 0 0 .002.002.068.068 0 0 0 0 .002.068.068 0 0 0 .002.002.068.068 0 0 0 .002.002.068.068 0 0 0 0 .002.068.068 0 0 0 .002.002.068.068 0 0 0 .002.004.068.068 0 0 0 .002.002.068.068 0 0 0 .002.002.068.068 0 0 0 .002.002.068.068 0 0 0 0 .002.068.068 0 0 0 .002.002.068.068 0 0 0 .002.002.068.068 0 0 0 0 .002l.002.002.002.002a.068.068 0 0 0 0 .002h.002l.006.008a.068.068 0 0 0 .006.004.068.068 0 0 0 .004.002.068.068 0 0 0 .002.002.068.068 0 0 0 .002 0 .068.068 0 0 0 .002.002.068.068 0 0 0 .002.002.068.068 0 0 0 .002 0 .068.068 0 0 0 .002.002.068.068 0 0 0 .002 0 .068.068 0 0 0 .002.002.068.068 0 0 0 .002 0 .068.068 0 0 0 .002.002.068.068 0 0 0 .002 0 .068.068 0 0 0 .002.002.068.068 0 0 0 .002 0 .068.068 0 0 0 .002 0 .068.068 0 0 0 .002.002.068.068 0 0 0 .004 0 .068.068 0 0 0 .002.002.068.068 0 0 0 .002 0 .068.068 0 0 0 .002 0 .068.068 0 0 0 .004.002.068.068 0 0 0 .014.002H179.392a.068.068 0 0 0 .014-.002l.01-.004.006-.002a.068.068 0 0 0 .006-.002.068.068 0 0 0 .002 0 .068.068 0 0 0 .002 0 .068.068 0 0 0 .004-.004.068.068 0 0 0 .002-.002.068.068 0 0 0 .002 0h.002l.002-.002h.002l.002-.002h.002l.002-.002a.068.068 0 0 0 .002-.002.068.068 0 0 0 .004-.002v-.002h.002l.008-.006a.068.068 0 0 0 .002-.002.068.068 0 0 0 .002 0l.006-.006.002-.002a.068.068 0 0 0 .004-.008.068.068 0 0 0 .004-.006.068.068 0 0 0 .002-.002.068.068 0 0 0 .002-.002v-.002l.002-.002a.068.068 0 0 0 0-.002.068.068 0 0 0 0-.002h.002v-.002a.068.068 0 0 0 .002-.002.068.068 0 0 0 0-.002.068.068 0 0 0 .002-.002.068.068 0 0 0 0-.002.068.068 0 0 0 0-.002.068.068 0 0 0 .002-.002.068.068 0 0 0 0-.002.068.068 0 0 0 0-.002.068.068 0 0 0 .002-.002.068.068 0 0 0 0-.002.068.068 0 0 0 0-.002.068.068 0 0 0 .002-.004.068.068 0 0 0 .002-.013V56.875c.042.054.079.11.127.16a2.282 2.282 0 0 0 1.06.626c.21.058.431.086.665.086.347 0 .674-.064.978-.19a2.391 2.391 0 0 0 1.317-1.316 2.56 2.56 0 0 0 .193-.998c0-.348-.066-.671-.187-.971a.068.068 0 0 0 0-.004v-.002a.068.068 0 0 0-.004-.014.068.068 0 0 0-.002-.006 2.375 2.375 0 0 0-1.316-1.322 2.53 2.53 0 0 0-.98-.19 2.412 2.412 0 0 0-1.244.332 2.238 2.238 0 0 0-.48.384c-.048.05-.085.108-.127.162V50.377a.068.068 0 0 0-.002-.014c0-.003-.003-.006-.004-.01a.068.068 0 0 0-.004-.013.068.068 0 0 0 0-.002.068.068 0 0 0-.002-.002.068.068 0 0 0-.006-.008l-.004-.004a.068.068 0 0 0 0-.002v-.002a.068.068 0 0 0-.002 0 .068.068 0 0 0 0-.002v-.002a.068.068 0 0 0-.004-.004.068.068 0 0 0 0-.002.068.068 0 0 0-.004-.006.068.068 0 0 0-.002 0l-.002-.003a.068.068 0 0 0 0-.002l-.006-.006-.002-.002a.068.068 0 0 0-.006-.004.068.068 0 0 0-.002 0 .068.068 0 0 0-.004-.004.068.068 0 0 0-.004-.002.068.068 0 0 0-.002-.002.068.068 0 0 0-.002 0 .068.068 0 0 0-.002 0 .068.068 0 0 0-.002-.002.068.068 0 0 0-.002-.002.068.068 0 0 0-.002 0 .068.068 0 0 0 0-.002.068.068 0 0 0-.002 0 .068.068 0 0 0-.002 0 .068.068 0 0 0-.002 0 .068.068 0 0 0-.002-.002.068.068 0 0 0-.002 0 .068.068 0 0 0-.002-.002.068.068 0 0 0-.004 0 .068.068 0 0 0-.004-.002.068.068 0 0 0-.006-.002.068.068 0 0 0-.014-.002H179.011zm18.324 0a.068.068 0 0 0-.025.006c-.003 0-.007 0-.012.002l-.01.003-.01.002-.008.004-.012.008.006.008-.012.012-.01.013-.004.006h-.004v.01l-.006.012h.002v.002a.039.039 0 0 0-.002.004l-.002.006-.004.007a.068.068 0 0 0-.002.014.068.068 0 0 0 0 .004v.012a.068.068 0 0 0 .002.017l.002.008V57.58a.068.068 0 0 0 .002.013l.004.01.002.004.002.008a.068.068 0 0 0 0 .002.068.068 0 0 0 .002.004.068.068 0 0 0 0 .002.068.068 0 0 0 .002.002.068.068 0 0 0 0 .002.068.068 0 0 0 .002.002.068.068 0 0 0 .002.002.068.068 0 0 0 0 .002.068.068 0 0 0 .002.002.068.068 0 0 0 .002.004.068.068 0 0 0 .002.002.068.068 0 0 0 .002.002.068.068 0 0 0 0 .002.068.068 0 0 0 .002 0 .068.068 0 0 0 0 .002.068.068 0 0 0 .002.002.068.068 0 0 0 .002.002v.002a.068.068 0 0 0 .002 0l.002.003a.068.068 0 0 0 .002.004l.008.008a.068.068 0 0 0 .006.004.068.068 0 0 0 .002 0 .068.068 0 0 0 .004.004.068.068 0 0 0 .004.002.068.068 0 0 0 .002.002.068.068 0 0 0 .004.002.068.068 0 0 0 .002.002.068.068 0 0 0 .014.004.068.068 0 0 0 .004.002.068.068 0 0 0 .002 0 .068.068 0 0 0 .002 0 .068.068 0 0 0 .002.002.068.068 0 0 0 .004 0 .068.068 0 0 0 .002 0 .068.068 0 0 0 .012.002H197.716a.068.068 0 0 0 .014-.002l.01-.004.006-.002a.068.068 0 0 0 .006-.002.068.068 0 0 0 .002 0 .068.068 0 0 0 .006-.002.068.068 0 0 0 .002-.002.068.068 0 0 0 .006-.004.068.068 0 0 0 .004-.002.068.068 0 0 0 .002-.002.068.068 0 0 0 .002 0 .068.068 0 0 0 0-.002.068.068 0 0 0 .002 0 .068.068 0 0 0 .002-.002.068.068 0 0 0 .002-.002h.002l.002-.002a.068.068 0 0 0 .004-.004.068.068 0 0 0 .006-.002l.006-.006.002-.002a.068.068 0 0 0 .004-.008.068.068 0 0 0 .004-.005.068.068 0 0 0 .002-.002.068.068 0 0 0 .002-.002.068.068 0 0 0 0-.002l.002-.002a.068.068 0 0 0 0-.002.068.068 0 0 0 0-.002h.002v-.002a.068.068 0 0 0 .002-.002.068.068 0 0 0 0-.002.068.068 0 0 0 .002-.002.068.068 0 0 0 0-.002.068.068 0 0 0 0-.002.068.068 0 0 0 .002-.002.068.068 0 0 0 0-.002.068.068 0 0 0 0-.002.068.068 0 0 0 .002-.002.068.068 0 0 0 0-.002.068.068 0 0 0 0-.002.068.068 0 0 0 .002-.004.068.068 0 0 0 .002-.014V55.41h.674l2.175 2.23.01.012.002.004.002.004a.068.068 0 0 0 .006.004h.002a.068.068 0 0 0 0 .002.068.068 0 0 0 .004.002.068.068 0 0 0 .002.002.068.068 0 0 0 .004.002.068.068 0 0 0 .002.002.068.068 0 0 0 .004.002.068.068 0 0 0 .006.004.068.068 0 0 0 .002 0 .068.068 0 0 0 .014.006.068.068 0 0 0 .004.002.068.068 0 0 0 .002 0 .068.068 0 0 0 .004.002.068.068 0 0 0 .004 0 .068.068 0 0 0 .002 0 .068.068 0 0 0 .012.002H201.242a.068.068 0 0 0 .013-.002l.01-.004.006-.002a.068.068 0 0 0 .012-.004.068.068 0 0 0 .002-.002.068.068 0 0 0 .002-.002.068.068 0 0 0 .004-.002.068.068 0 0 0 .008-.004.068.068 0 0 0 .002 0 .068.068 0 0 0 .002-.002.068.068 0 0 0 .002-.002.068.068 0 0 0 .002-.002.068.068 0 0 0 .004-.002.068.068 0 0 0 .004-.002.068.068 0 0 0 .002-.002.068.068 0 0 0 .002-.002.068.068 0 0 0 .002-.002.068.068 0 0 0 .002 0l.002-.002.002-.002.002-.002a.068.068 0 0 0 .004-.008.068.068 0 0 0 .004-.006l.002-.002a.068.068 0 0 0 .002-.002.068.068 0 0 0 0-.002l.002-.002a.068.068 0 0 0 0-.002.068.068 0 0 0 0-.002h.002v-.002a.068.068 0 0 0 .002-.002.068.068 0 0 0 0-.002.068.068 0 0 0 .002-.002.068.068 0 0 0 0-.002.068.068 0 0 0 0-.002.068.068 0 0 0 .002-.002.068.068 0 0 0 0-.004.068.068 0 0 0 .002-.003.068.068 0 0 0 0-.002.068.068 0 0 0 .002-.004.068.068 0 0 0 .002-.014v-.035a.068.068 0 0 0-.002-.006.068.068 0 0 0 0-.002.068.068 0 0 0-.006-.02.068.068 0 0 0-.002 0 .068.068 0 0 0 0-.002v-.002a.068.068 0 0 0-.002-.002.068.068 0 0 0 0-.002v-.002a.068.068 0 0 0-.002-.002.068.068 0 0 0 0-.002.068.068 0 0 0-.002-.002V57.5a.068.068 0 0 0 0-.002.068.068 0 0 0-.002-.002.068.068 0 0 0-.004-.006.068.068 0 0 0-.002-.004.068.068 0 0 0-.002 0l-.002-.002v-.002a.068.068 0 0 0-.002-.002.068.068 0 0 0-.002-.004h-.002a.068.068 0 0 0-.002-.003l-2.3-2.358 2.228-2.09h-.02a.068.068 0 0 0 .041-.017.116.116 0 0 0 .008-.008.068.068 0 0 0 .004-.006.068.068 0 0 0 .002-.004.068.068 0 0 0 .002-.002v-.002a.068.068 0 0 0 .002-.002.068.068 0 0 0 .002-.002.068.068 0 0 0 .002-.004.068.068 0 0 0 .002-.002.068.068 0 0 0 .004-.01s.002 0 .002-.002a.068.068 0 0 0 .004-.015l.002-.006a.068.068 0 0 0 .002-.014v-.025a.068.068 0 0 0-.002-.014l-.004-.012-.002-.004a.068.068 0 0 0 0-.002l-.002-.002a.068.068 0 0 0 0-.002l-.002-.004a.068.068 0 0 0 0-.002v-.002a.068.068 0 0 0 0-.002.068.068 0 0 0-.002 0 .068.068 0 0 0 0-.002.068.068 0 0 0 0-.002.068.068 0 0 0-.002 0 .068.068 0 0 0 0-.002.068.068 0 0 0 0-.002.068.068 0 0 0-.002 0 .068.068 0 0 0 0-.002.068.068 0 0 0-.002 0 .068.068 0 0 0 0-.002.068.068 0 0 0 0-.002.068.068 0 0 0-.002-.002.068.068 0 0 0-.002-.004.068.068 0 0 0-.002 0l-.002-.002v-.002a.068.068 0 0 0-.002-.002.068.068 0 0 0-.002-.003.068.068 0 0 0-.002-.004l-.002-.002-.002-.002-.002-.002-.002-.002-.002-.002-.002-.002a.068.068 0 0 0-.006-.004h-.002s0-.002-.002-.002a.068.068 0 0 0-.002-.002.068.068 0 0 0-.002-.002.068.068 0 0 0-.004-.002.068.068 0 0 0-.002-.002.068.068 0 0 0-.01-.004.068.068 0 0 0-.021-.006h-.006v-.002a.068.068 0 0 0-.014-.002H200.72a.068.068 0 0 0-.014.002c-.004 0-.006.003-.01.004l-.006.002-.004.002h-.004a.068.068 0 0 0-.002 0 .068.068 0 0 0 0 .002.068.068 0 0 0-.002 0 .068.068 0 0 0-.002.002.068.068 0 0 0-.002 0 .068.068 0 0 0-.002.002.068.068 0 0 0-.002.002.068.068 0 0 0-.002 0 .068.068 0 0 0-.002.002.068.068 0 0 0-.002 0 .068.068 0 0 0-.002 0 .068.068 0 0 0-.002.002.068.068 0 0 0 0 .002.068.068 0 0 0-.002 0 .068.068 0 0 0-.002 0 .068.068 0 0 0 0 .002.068.068 0 0 0-.002 0 .068.068 0 0 0-.004.002.068.068 0 0 0 0 .002.068.068 0 0 0-.004.002.068.068 0 0 0-.004.006.068.068 0 0 0-.02.035v-.018l-2.107 1.994h-.683V50.373a.068.068 0 0 0-.002-.013l-.004-.01a.068.068 0 0 0-.004-.014.068.068 0 0 0 0-.002.068.068 0 0 0-.008-.01.068.068 0 0 0-.002-.002.068.068 0 0 0 0-.002v-.004a.068.068 0 0 0-.002 0 .068.068 0 0 0-.002 0 .068.068 0 0 0 .002-.002.068.068 0 0 0-.002 0v-.002a.068.068 0 0 0-.004-.004l-.004-.007a.068.068 0 0 0-.002-.002.068.068 0 0 0-.002-.002.068.068 0 0 0 0-.002h-.002c-.002-.002-.002-.005-.004-.006l-.002-.002a.068.068 0 0 0-.006-.004.068.068 0 0 0-.002 0 .068.068 0 0 0-.004-.004.068.068 0 0 0-.004-.002.068.068 0 0 0-.002-.002.068.068 0 0 0-.002 0 .068.068 0 0 0-.002 0 .068.068 0 0 0-.002-.002.068.068 0 0 0-.002-.002.068.068 0 0 0-.002 0 .068.068 0 0 0 0-.002.068.068 0 0 0-.002 0 .068.068 0 0 0-.002 0 .068.068 0 0 0-.002 0 .068.068 0 0 0-.002-.002.068.068 0 0 0-.002 0 .068.068 0 0 0-.002-.002.068.068 0 0 0-.004 0 .068.068 0 0 0-.004-.002.068.068 0 0 0-.006-.002.068.068 0 0 0-.014-.002H197.335zm23.33 0a.068.068 0 0 0-.025.006c-.003 0-.007 0-.012.002l-.01.003-.01.002-.008.004-.012.008.006.008-.011.012-.01.013-.004.006h-.004v.01l-.006.012h.002v.002a.041.041 0 0 0-.002.004.135.135 0 0 1-.002.006l-.004.007a.068.068 0 0 0-.002.014.068.068 0 0 0 0 .004v.012a.068.068 0 0 0 .002.015l.002.008V57.58a.068.068 0 0 0 .002.013c0 .004.003.007.004.01a.068.068 0 0 0 .002.004.068.068 0 0 0 0 .002.068.068 0 0 0 .002.004.068.068 0 0 0 0 .002v.002a.068.068 0 0 0 .002.002.068.068 0 0 0 0 .002.068.068 0 0 0 0 .002.068.068 0 0 0 .002.002.068.068 0 0 0 0 .002.068.068 0 0 0 .002.002.068.068 0 0 0 .002.002.068.068 0 0 0 0 .002.068.068 0 0 0 .002.002.068.068 0 0 0 .002.004.068.068 0 0 0 .002.002.068.068 0 0 0 .002.002.068.068 0 0 0 .002.002.068.068 0 0 0 0 .002.068.068 0 0 0 .002.002.068.068 0 0 0 .002.002.068.068 0 0 0 0 .002l.002.002a.068.068 0 0 0 .002.002.068.068 0 0 0 0 .002h.002l.004.006.002.002a.068.068 0 0 0 .006.004h.002l.002.002a.068.068 0 0 0 .002.002.068.068 0 0 0 .002.002.068.068 0 0 0 .004.002.068.068 0 0 0 .002.002.068.068 0 0 0 .004.002.068.068 0 0 0 .002.002.068.068 0 0 0 .002 0 .068.068 0 0 0 .002.002.068.068 0 0 0 .002 0 .068.068 0 0 0 .004.002.068.068 0 0 0 .004 0 .068.068 0 0 0 .004.002.068.068 0 0 0 .002 0 .068.068 0 0 0 .002 0 .068.068 0 0 0 .002.002.068.068 0 0 0 .004 0 .068.068 0 0 0 .002 0 .068.068 0 0 0 .011.002H221.046a.068.068 0 0 0 .014-.002l.01-.004.004-.002.006-.002a.068.068 0 0 0 .002 0 .068.068 0 0 0 .002 0 .068.068 0 0 0 .006-.002.068.068 0 0 0 .002-.002.068.068 0 0 0 .002 0 .068.068 0 0 0 .002-.002.068.068 0 0 0 .002-.002.068.068 0 0 0 .002 0 .068.068 0 0 0 .002-.002.068.068 0 0 0 .002-.002.068.068 0 0 0 .002 0 .068.068 0 0 0 .002-.002.068.068 0 0 0 .002-.002.068.068 0 0 0 .004-.002l.002-.002a.068.068 0 0 0 .002 0 .068.068 0 0 0 .002-.002l.002-.002a.068.068 0 0 0 .002-.002.068.068 0 0 0 .008-.014l.002-.002-.002.006.006-.006c.002-.002 0-.003.002-.006h.002a.068.068 0 0 0 .002-.002.068.068 0 0 0 .002-.002v-.002l.002-.002a.068.068 0 0 0 0-.002.068.068 0 0 0 0-.002h.002v-.002a.068.068 0 0 0 .002-.002.068.068 0 0 0 0-.002.068.068 0 0 0 .002-.002.068.068 0 0 0 0-.002.068.068 0 0 0 0-.002.068.068 0 0 0 .002-.002.068.068 0 0 0 0-.002.068.068 0 0 0 0-.002.068.068 0 0 0 .002-.004.068.068 0 0 0 0-.002.068.068 0 0 0 .002-.004.068.068 0 0 0 .002-.013V55.41h.676l2.176 2.23.01.012c0 .001 0 .003.002.004l.002.004a.068.068 0 0 0 .006.003h.002a.068.068 0 0 0 0 .002.068.068 0 0 0 .004.002.068.068 0 0 0 .002.002.068.068 0 0 0 .004.002.068.068 0 0 0 .002.002.068.068 0 0 0 .002 0 .068.068 0 0 0 .002.002.068.068 0 0 0 .002 0 .068.068 0 0 0 .002.002.068.068 0 0 0 .004.002.068.068 0 0 0 .002.002.068.068 0 0 0 .004 0 .068.068 0 0 0 .002.002.068.068 0 0 0 .002 0 .068.068 0 0 0 .002 0 .068.068 0 0 0 0 .002.068.068 0 0 0 .002 0 .068.068 0 0 0 .002 0 .068.068 0 0 0 .002 0 .068.068 0 0 0 .004.002.068.068 0 0 0 .006.002.068.068 0 0 0 .013.002H224.574a.068.068 0 0 0 .014-.002c.004 0 .006-.002.01-.003l.006-.002a.068.068 0 0 0 .008-.002.068.068 0 0 0 .002 0 .068.068 0 0 0 .008-.006.068.068 0 0 0 .002 0 .068.068 0 0 0 .002-.002.068.068 0 0 0 .002 0 .068.068 0 0 0 .002-.002.068.068 0 0 0 .002 0 .068.068 0 0 0 0-.002.068.068 0 0 0 .002 0 .068.068 0 0 0 .002-.002.068.068 0 0 0 .002-.002l.002-.002a.068.068 0 0 0 .008-.004.068.068 0 0 0 .002-.002.068.068 0 0 0 .002-.002.068.068 0 0 0 .002-.002.068.068 0 0 0 .002 0l.002-.002.002-.002.002-.002a.068.068 0 0 0 .004-.008.068.068 0 0 0 .004-.006l.002-.002a.068.068 0 0 0 .002-.002.068.068 0 0 0 0-.002l.002-.002a.068.068 0 0 0 .002-.004.068.068 0 0 0 0-.002.068.068 0 0 0 .002-.002v-.002a.068.068 0 0 0 .002-.002.068.068 0 0 0 0-.002.068.068 0 0 0 0-.002.068.068 0 0 0 .002-.002.068.068 0 0 0 0-.002.068.068 0 0 0 0-.002.068.068 0 0 0 .002-.004.068.068 0 0 0 0-.002.068.068 0 0 0 .002-.004.068.068 0 0 0 .002-.013V57.546a.068.068 0 0 0-.002-.007.068.068 0 0 0 0-.006.068.068 0 0 0-.006-.012.068.068 0 0 0 0-.002.068.068 0 0 0 0-.002h-.002v-.002a.068.068 0 0 0-.002-.002.068.068 0 0 0 0-.002v-.002a.068.068 0 0 0-.002-.002.068.068 0 0 0 0-.002.068.068 0 0 0-.002-.002V57.5a.068.068 0 0 0 0-.002.068.068 0 0 0-.002-.002.068.068 0 0 0-.004-.006.068.068 0 0 0-.002-.004.068.068 0 0 0-.002 0l-.002-.002v-.002a.068.068 0 0 0-.002-.002h-.004v-.002c-.001-.001 0-.005-.002-.006l-2.303-2.357 2.229-2.09h-.02a.068.068 0 0 0 .041-.018l.008-.007a.068.068 0 0 0 .004-.006.068.068 0 0 0 .002-.004.068.068 0 0 0 .002-.002v-.002a.068.068 0 0 0 .002-.002.068.068 0 0 0 .002-.002.068.068 0 0 0 0-.002.068.068 0 0 0 .002-.002.068.068 0 0 0 .006-.012l.002-.004.002-.006a.068.068 0 0 0 .002-.008l.002-.005a.068.068 0 0 0 .002-.014V52.904a.068.068 0 0 0-.002-.014l-.004-.011-.002-.006-.002-.002a.068.068 0 0 0-.002-.006.068.068 0 0 0 0-.004.068.068 0 0 0-.002-.002.068.068 0 0 0 0-.002.068.068 0 0 0-.002-.002.068.068 0 0 0-.002-.004.068.068 0 0 0-.002-.002.068.068 0 0 0 0-.004.068.068 0 0 0-.002-.004l-.002-.002a.068.068 0 0 0-.004-.006.068.068 0 0 0-.002 0 .068.068 0 0 0-.002-.003.068.068 0 0 0-.002-.004l-.002-.002-.002-.002-.002-.002-.002-.002-.002-.002-.002-.002a.068.068 0 0 0-.006-.004h-.002s0-.002-.002-.002a.068.068 0 0 0-.002-.002.068.068 0 0 0-.008-.006.068.068 0 0 0-.01-.004.068.068 0 0 0-.021-.006h-.006v-.002a.068.068 0 0 0-.014-.002H224.053a.068.068 0 0 0-.014.002c-.004 0-.006.003-.01.004l-.006.002-.004.002h-.004a.068.068 0 0 0-.002 0 .068.068 0 0 0 0 .002.068.068 0 0 0-.002 0 .068.068 0 0 0-.002.002.068.068 0 0 0-.002 0 .068.068 0 0 0-.002.002.068.068 0 0 0-.002.002.068.068 0 0 0-.002 0 .068.068 0 0 0-.004.002.068.068 0 0 0-.004.002.068.068 0 0 0 0 .002.068.068 0 0 0-.002 0 .068.068 0 0 0-.002.002.068.068 0 0 0-.002 0 .068.068 0 0 0 0 .002.068.068 0 0 0-.004.002v.002h-.002s0 .003-.002.004h-.002l-.002.002-.002.002-2.127 2.01h-.683V50.374a.068.068 0 0 0-.002-.013l-.004-.01a.068.068 0 0 0-.002-.004.068.068 0 0 0 0-.002.068.068 0 0 0-.002-.008.068.068 0 0 0 0-.002.068.068 0 0 0-.002 0 .068.068 0 0 0 0-.002.068.068 0 0 0-.002-.002.068.068 0 0 0 0-.002.068.068 0 0 0-.002-.002.068.068 0 0 0 0-.002.068.068 0 0 0-.002 0 .068.068 0 0 0 0-.002.068.068 0 0 0-.004-.004.068.068 0 0 0 0-.002.068.068 0 0 0-.002-.002l-.002-.002v-.002a.068.068 0 0 0-.002-.002.068.068 0 0 0 0-.002.068.068 0 0 0-.002-.002.068.068 0 0 0 0-.002h-.002l-.004-.003v-.004h-.002c-.002-.003-.003-.006-.006-.008a.068.068 0 0 0-.006-.004.068.068 0 0 0-.002 0 .068.068 0 0 0-.004-.004.068.068 0 0 0-.006-.004.068.068 0 0 0-.002 0 .068.068 0 0 0-.002 0 .068.068 0 0 0-.002-.002.068.068 0 0 0-.002-.002.068.068 0 0 0-.002 0 .068.068 0 0 0 0-.002.068.068 0 0 0-.002 0 .068.068 0 0 0-.002 0 .068.068 0 0 0-.002 0 .068.068 0 0 0-.002-.002.068.068 0 0 0-.002 0 .068.068 0 0 0-.002-.002.068.068 0 0 0-.004 0 .068.068 0 0 0-.004-.002.068.068 0 0 0-.006-.002.068.068 0 0 0-.014-.002H220.666zm-41.705.02a.03.03 0 0 1 .002.005l.025.057-.033-.041c.003-.005.003-.01.004-.012a.068.068 0 0 0-.006.01l-.004-.004-.002-.004v-.002l.014-.01zm18.324 0a.03.03 0 0 1 .002.005l.026.057-.034-.041c.003-.005.003-.01.004-.012a.068.068 0 0 0-.006.01l-.004-.004-.002-.004v-.002l.014-.01zm.455 0c.012-.002.033.025.024.02a4.284 4.284 0 0 1-.016.044l-.008-.065zm22.875.001.002.004.002.002.01.024a.068.068 0 0 0-.017-.016c0-.003 0-.005.002-.006a.068.068 0 0 0-.004.006.068.068 0 0 0-.006-.004h-.002v-.002l.013-.008zm-41.658.03.022.027h.002l-.004.015-.006-.011.008-.004-.012-.002-.01-.026zm18.324 0 .022.027h.002l-.004.015-.006-.011.008-.004-.012-.002-.01-.026zm23.33 0 .022.027h.002l-.004.015-.006-.011.008-.004-.012-.002-.01-.026zm15.532.093c-.286 0-.543.035-.772.108a2.263 2.263 0 0 0-1.04.672c-.116.134-.214.27-.296.404a.068.068 0 0 0-.004.002l-.002.002a.068.068 0 0 0 0 .002.068.068 0 0 0-.004.004v.002l-.002.002a.068.068 0 0 0-.002.002.068.068 0 0 0-.002.002v.002a.068.068 0 0 0-.002.002.068.068 0 0 0 0 .002.068.068 0 0 0-.002 0 .068.068 0 0 0 0 .002.068.068 0 0 0-.004.008.068.068 0 0 0-.002.002.068.068 0 0 0 0 .002.068.068 0 0 0-.002.003.068.068 0 0 0-.002.008.068.068 0 0 0-.002.012v.006a.073.073 0 0 0 0 .01V51.692a.068.068 0 0 0 .002.014.068.068 0 0 0 .002.004.068.068 0 0 0 0 .002.068.068 0 0 0 .002.002.068.068 0 0 0 0 .002.068.068 0 0 0 0 .002.068.068 0 0 0 .002.004.068.068 0 0 0 0 .004.068.068 0 0 0 .002.002.068.068 0 0 0 0 .002.068.068 0 0 0 .002.002.068.068 0 0 0 0 .002.068.068 0 0 0 .002.002.068.068 0 0 0 .002.004.068.068 0 0 0 0 .002.068.068 0 0 0 .002.002.068.068 0 0 0 0 .002.068.068 0 0 0 .002.002.068.068 0 0 0 .002.004.068.068 0 0 0 .002.002.068.068 0 0 0 .002.003.068.068 0 0 0 .002 0 .068.068 0 0 0 .002.004.068.068 0 0 0 0 .002.073.073 0 0 0 .008.008l.002.002a.068.068 0 0 0 .008.004.068.068 0 0 0 .01.008l.246.197.002.002.002.002a.068.068 0 0 0 .006.004h.002l.002.002a.068.068 0 0 0 .002.002.068.068 0 0 0 .002.002.068.068 0 0 0 .004.002.068.068 0 0 0 .002.002.068.068 0 0 0 .004.002.068.068 0 0 0 .002.002.068.068 0 0 0 .002 0 .068.068 0 0 0 .002.002.068.068 0 0 0 .002 0 .068.068 0 0 0 .006.002.068.068 0 0 0 .002 0 .068.068 0 0 0 .004.002.068.068 0 0 0 .002 0 .068.068 0 0 0 .004.002.068.068 0 0 0 .004 0 .068.068 0 0 0 .002 0 .068.068 0 0 0 .012.002H234.413a.068.068 0 0 0 .027-.008.068.068 0 0 0 .002-.002.068.068 0 0 0 .002 0l.002-.002a.068.068 0 0 0 .002 0 .068.068 0 0 0 .002 0 .068.068 0 0 0 .002-.002.068.068 0 0 0 .002 0 .068.068 0 0 0 .002 0 .068.068 0 0 0 .002-.002.068.068 0 0 0 .002 0 .068.068 0 0 0 .004-.004.068.068 0 0 0 .004-.002.068.068 0 0 0 .004-.002.068.068 0 0 0 0-.002l.004-.002a.068.068 0 0 0 .006-.004.068.068 0 0 0 .002-.002.068.068 0 0 0 .006-.007v-.002c.001-.002.004-.003.006-.004h.002v-.002a.068.068 0 0 0 .004-.004.068.068 0 0 0 0-.002.068.068 0 0 0 .004-.004.068.068 0 0 0 0-.002.068.068 0 0 0 .002-.002.068.068 0 0 0 .002-.002.068.068 0 0 0 0-.002.068.068 0 0 0 0-.002.068.068 0 0 0 .002-.002.068.068 0 0 0 .002-.002.068.068 0 0 0 0-.002.068.068 0 0 0 .002-.004 2.64 2.64 0 0 1 .256-.34c.099-.113.213-.214.344-.3.128-.086.276-.156.445-.21.165-.051.356-.078.574-.078.273 0 .51.043.711.125a1.409 1.409 0 0 1 .813.84 1.847 1.847 0 0 1 .041 1.1 2.19 2.19 0 0 1-.168.437 2.575 2.575 0 0 1-.256.403c-.098.125-.2.246-.31.36l-.003.003-.002.002h-.002v.002h-.002l-.002.002-.004.004-.002.002-2.789 2.91h-.002l-.002.002-.002.002-.002.002a.068.068 0 0 0-.004.008.068.068 0 0 0-.004.004.068.068 0 0 0 0 .002.068.068 0 0 0-.002.002v.002h-.002a.068.068 0 0 0 0 .002.068.068 0 0 0-.002.002v.004h-.002a.068.068 0 0 0 0 .002.068.068 0 0 0-.002 0 .068.068 0 0 0 0 .002.068.068 0 0 0 0 .002.068.068 0 0 0-.002 0 .068.068 0 0 0-.002.005.068.068 0 0 0 0 .002.068.068 0 0 0 0 .002.068.068 0 0 0-.002.004.068.068 0 0 0 0 .002.068.068 0 0 0-.002.004.068.068 0 0 0 0 .002.068.068 0 0 0-.002.014V57.58a.068.068 0 0 0 .002.013l.004.01a.068.068 0 0 0 .002.004.068.068 0 0 0 0 .002l.002.004a.068.068 0 0 0 0 .002v.002a.068.068 0 0 0 .002.002.068.068 0 0 0 0 .002.068.068 0 0 0 0 .002.068.068 0 0 0 .002.002.068.068 0 0 0 0 .002.068.068 0 0 0 .002.002.068.068 0 0 0 .002.004.068.068 0 0 0 .002.002.068.068 0 0 0 .002.002.068.068 0 0 0 .002.002.068.068 0 0 0 0 .002.068.068 0 0 0 .002.002.068.068 0 0 0 .002.002.068.068 0 0 0 0 .002.068.068 0 0 0 .002.002.068.068 0 0 0 .002.002l.002.002a.068.068 0 0 0 0 .002.068.068 0 0 0 .002.002.068.068 0 0 0 0 .002h.002l.006.008a.068.068 0 0 0 .008.004.068.068 0 0 0 .004.003.068.068 0 0 0 .002 0 .068.068 0 0 0 .002.002.068.068 0 0 0 .002.002.068.068 0 0 0 .002 0l.002.002a.068.068 0 0 0 .002 0 .068.068 0 0 0 .002.002.068.068 0 0 0 .002.002.068.068 0 0 0 .002 0 .068.068 0 0 0 .002 0 .068.068 0 0 0 .006.004.068.068 0 0 0 .004 0 .068.068 0 0 0 .004.002.068.068 0 0 0 .002 0 .068.068 0 0 0 .006.002.068.068 0 0 0 .014.002h4.327a.068.068 0 0 0 .013-.002c.004 0 .006-.002.01-.004.002 0 .004 0 .006-.002a.068.068 0 0 0 .006-.002.068.068 0 0 0 .002 0 .068.068 0 0 0 .006-.002.068.068 0 0 0 .002-.002.068.068 0 0 0 .002 0 .068.068 0 0 0 .002-.002.068.068 0 0 0 .002-.002.068.068 0 0 0 .002 0 .068.068 0 0 0 .002-.002.068.068 0 0 0 .002-.002.068.068 0 0 0 .002 0 .068.068 0 0 0 .002-.002.068.068 0 0 0 .002-.002.068.068 0 0 0 .004-.002l.002-.002a.068.068 0 0 0 .002 0 .068.068 0 0 0 .002-.002l.002-.002a.068.068 0 0 0 .002-.002.068.068 0 0 0 .008-.013l.002-.002-.002.006.006-.006c.002-.002 0-.004.002-.006h.002a.068.068 0 0 0 .002-.002.068.068 0 0 0 .002-.002v-.002l.002-.002a.068.068 0 0 0 0-.002.068.068 0 0 0 0-.002h.002v-.002a.068.068 0 0 0 .002-.002.068.068 0 0 0 0-.002.068.068 0 0 0 .002-.002.068.068 0 0 0 0-.002.068.068 0 0 0 0-.002.068.068 0 0 0 .002-.002.068.068 0 0 0 0-.002.068.068 0 0 0 0-.002.068.068 0 0 0 .002-.004.068.068 0 0 0 0-.002.068.068 0 0 0 .002-.004.068.068 0 0 0 .002-.014V57.215a.068.068 0 0 0-.002-.014c0-.004-.003-.006-.004-.01a.068.068 0 0 0-.002-.004.068.068 0 0 0 0-.002.068.068 0 0 0-.002-.003.068.068 0 0 0 0-.002.068.068 0 0 0 0-.002.068.068 0 0 0 0-.002.068.068 0 0 0-.002 0 .068.068 0 0 0 0-.002.068.068 0 0 0-.002-.002.068.068 0 0 0 0-.002.068.068 0 0 0-.002-.002.068.068 0 0 0-.002-.002.068.068 0 0 0 0-.002.068.068 0 0 0-.002-.004.068.068 0 0 0-.002 0 .068.068 0 0 0 0-.002.068.068 0 0 0-.002-.002.068.068 0 0 0 0-.002.068.068 0 0 0-.002-.002.068.068 0 0 0 0-.002.068.068 0 0 0-.002 0 .068.068 0 0 0 0-.002.068.068 0 0 0-.002-.002.068.068 0 0 0-.002-.004.068.068 0 0 0-.002 0v-.002s0-.002-.002-.002a.068.068 0 0 0-.002-.004l-.002-.002-.002-.002-.002-.002a.068.068 0 0 0-.006-.004.068.068 0 0 0-.002 0 .068.068 0 0 0-.004-.004.068.068 0 0 0-.006-.004.068.068 0 0 0-.002 0 .068.068 0 0 0-.002 0 .068.068 0 0 0-.002-.002.068.068 0 0 0-.002-.002.068.068 0 0 0-.002 0 .068.068 0 0 0 0-.002.068.068 0 0 0-.002 0 .068.068 0 0 0-.002 0 .068.068 0 0 0-.002 0 .068.068 0 0 0-.002-.002.068.068 0 0 0-.002 0 .068.068 0 0 0-.002-.002.068.068 0 0 0-.004 0 .068.068 0 0 0-.004-.002.068.068 0 0 0-.006-.002.068.068 0 0 0-.013-.002H235.084l2.326-2.431c.122-.129.243-.265.36-.41.12-.149.22-.308.31-.477a.068.068 0 0 0 .004-.004.068.068 0 0 0 0-.002.068.068 0 0 0 .002-.002.068.068 0 0 0 0-.002.068.068 0 0 0 .002-.002v-.002a.068.068 0 0 0 .002-.002.068.068 0 0 0 0-.004.068.068 0 0 0 0-.002.068.068 0 0 0 0-.002.068.068 0 0 0 .002-.002.068.068 0 0 0 0-.004l.002-.002c.085-.166.156-.341.21-.527a.068.068 0 0 0 0-.002c.056-.2.083-.41.083-.633 0-.296-.048-.578-.144-.842a1.978 1.978 0 0 0-.432-.695c-.19-.2-.428-.357-.707-.47a2.515 2.515 0 0 0-.957-.173zm6.164 0c-.376 0-.73.074-1.057.227-.329.153-.613.39-.852.697-.239.31-.424.69-.556 1.145-.135.457-.197.989-.197 1.595 0 .607.062 1.142.197 1.602.132.456.317.841.556 1.15.239.308.524.542.852.696.327.152.68.226 1.057.226.375 0 .727-.074 1.052-.226.326-.154.612-.388.85-.696.24-.31.423-.695.555-1.152.131-.46.195-.993.195-1.6 0-.593-.064-1.118-.195-1.574a3.435 3.435 0 0 0-.555-1.148 2.385 2.385 0 0 0-.85-.703 2.376 2.376 0 0 0-1.052-.239zm5.793 0c-.286 0-.545.035-.774.108a2.263 2.263 0 0 0-1.037.672c-.117.134-.215.27-.297.404a.068.068 0 0 0-.004.002l-.002.002a.068.068 0 0 0 0 .002.068.068 0 0 0-.004.004v.002l-.002.002a.068.068 0 0 0-.002.002.068.068 0 0 0-.002.002.068.068 0 0 0 0 .002.068.068 0 0 0-.002.002.068.068 0 0 0 0 .002.068.068 0 0 0-.002 0 .068.068 0 0 0 0 .002.068.068 0 0 0-.004.008.068.068 0 0 0-.002.002.068.068 0 0 0 0 .002.068.068 0 0 0-.002.003.068.068 0 0 0 0 .002.068.068 0 0 0-.002.006.068.068 0 0 0-.002.012v.006a.083.083 0 0 0 0 .01V51.692a.068.068 0 0 0 .002.014.068.068 0 0 0 .002.004.068.068 0 0 0 0 .002.068.068 0 0 0 .002.002.068.068 0 0 0 0 .002.068.068 0 0 0 0 .002.068.068 0 0 0 .002.004.068.068 0 0 0 0 .004.068.068 0 0 0 .002.002.068.068 0 0 0 0 .002.068.068 0 0 0 .002.002.068.068 0 0 0 0 .002.068.068 0 0 0 .002.002.068.068 0 0 0 .002.004.068.068 0 0 0 0 .002.068.068 0 0 0 .002.002.068.068 0 0 0 0 .002.068.068 0 0 0 .002.002.068.068 0 0 0 .002.004.068.068 0 0 0 .002.002.068.068 0 0 0 .002.004.068.068 0 0 0 .002 0 .068.068 0 0 0 .002.002.068.068 0 0 0 0 .002.068.068 0 0 0 0 .002l.006.005.002.002.002.002a.068.068 0 0 0 .008.004.068.068 0 0 0 .01.008l.246.197.002.002.002.002a.068.068 0 0 0 .006.004h.002l.002.002a.068.068 0 0 0 .002.002.068.068 0 0 0 .002.002.068.068 0 0 0 .004.002.068.068 0 0 0 .002.002.068.068 0 0 0 .01.004.068.068 0 0 0 .002.002.068.068 0 0 0 .008.002.068.068 0 0 0 .006.002.068.068 0 0 0 .002 0 .068.068 0 0 0 .006.002.068.068 0 0 0 .014.002H246.37a.068.068 0 0 0 .027-.008.068.068 0 0 0 .002-.002.068.068 0 0 0 .002 0l.002-.002a.068.068 0 0 0 .002 0 .068.068 0 0 0 .002 0 .068.068 0 0 0 .002-.002.068.068 0 0 0 .004 0 .068.068 0 0 0 .002-.002.068.068 0 0 0 .002 0 .068.068 0 0 0 .004-.003.068.068 0 0 0 .004-.002.068.068 0 0 0 .004-.002.068.068 0 0 0 0-.002l.004-.002a.068.068 0 0 0 .006-.004.068.068 0 0 0 .002-.002.068.068 0 0 0 .006-.008v-.002l.006-.004h.002v-.002a.068.068 0 0 0 .004-.004.068.068 0 0 0 0-.002.068.068 0 0 0 .004-.004.068.068 0 0 0 0-.002.068.068 0 0 0 .002-.002.068.068 0 0 0 .002-.002.068.068 0 0 0 0-.002.068.068 0 0 0 0-.002.068.068 0 0 0 .002-.002.068.068 0 0 0 .002-.002.068.068 0 0 0 0-.002.068.068 0 0 0 .002-.004c.074-.117.159-.229.256-.34a1.727 1.727 0 0 1 .79-.51c.164-.051.355-.078.573-.078.273 0 .51.043.711.125a1.409 1.409 0 0 1 .813.84 1.8 1.8 0 0 1 .103.617c0 .172-.022.333-.062.483a2.191 2.191 0 0 1-.168.437 2.582 2.582 0 0 1-.256.403c-.097.125-.2.246-.31.361l-.002.002-.002.002h-.002v.002h-.002l-.002.002-.004.004-.002.002-2.79 2.91-.006.004-.002.002a.068.068 0 0 0-.004.006v.002a.068.068 0 0 0-.004.004.068.068 0 0 0-.004.006.068.068 0 0 0 0 .002.068.068 0 0 0 0 .002.068.068 0 0 0-.002 0 .068.068 0 0 0 0 .002.068.068 0 0 0-.002.002.068.068 0 0 0 0 .002.068.068 0 0 0-.002.002.068.068 0 0 0 0 .002.068.068 0 0 0 0 .002.068.068 0 0 0-.002 0 .068.068 0 0 0 0 .002.068.068 0 0 0 0 .002.068.068 0 0 0-.002.002.068.068 0 0 0 0 .002.068.068 0 0 0 0 .002.068.068 0 0 0-.002.002.068.068 0 0 0 0 .002.068.068 0 0 0-.002.006.068.068 0 0 0-.002.013V57.581a.068.068 0 0 0 .002.014l.004.01a.068.068 0 0 0 .002.003.068.068 0 0 0 0 .002.068.068 0 0 0 .002.004.068.068 0 0 0 0 .002v.002a.068.068 0 0 0 .002.002.068.068 0 0 0 0 .002.068.068 0 0 0 0 .002.068.068 0 0 0 .002.002.068.068 0 0 0 0 .002.068.068 0 0 0 .002.002.068.068 0 0 0 .002.002.068.068 0 0 0 0 .002.068.068 0 0 0 .002.002.068.068 0 0 0 .002.004.068.068 0 0 0 .002.002.068.068 0 0 0 .002.002.068.068 0 0 0 0 .002.068.068 0 0 0 .002 0 .068.068 0 0 0 0 .002.068.068 0 0 0 .002.002.068.068 0 0 0 .002.004l.002.002a.068.068 0 0 0 .002.002.068.068 0 0 0 0 .002h.002l.004.006.002.002a.068.068 0 0 0 .006.004h.002l.002.002a.068.068 0 0 0 .002.002.068.068 0 0 0 .002.002.068.068 0 0 0 .004.002.068.068 0 0 0 .002.002.068.068 0 0 0 .01.004.068.068 0 0 0 .002.002.068.068 0 0 0 .002 0 .068.068 0 0 0 .006.002.068.068 0 0 0 .006.002.068.068 0 0 0 .002 0 .068.068 0 0 0 .006.002.068.068 0 0 0 .014.002h4.327a.068.068 0 0 0 .013-.002l.01-.004.006-.002a.068.068 0 0 0 .006-.002.068.068 0 0 0 .002 0 .068.068 0 0 0 .006-.002.068.068 0 0 0 .002-.002.068.068 0 0 0 .002 0 .068.068 0 0 0 .002-.002.068.068 0 0 0 .002-.002.068.068 0 0 0 .002 0 .068.068 0 0 0 .002-.002.068.068 0 0 0 .002-.002.068.068 0 0 0 .002 0 .068.068 0 0 0 .002-.002.068.068 0 0 0 .002-.002.068.068 0 0 0 .004-.002l.002-.002a.068.068 0 0 0 .002 0 .068.068 0 0 0 0-.002.068.068 0 0 0 .002 0l.002-.002a.068.068 0 0 0 .002-.002.068.068 0 0 0 .008-.014l.002-.002-.002.006.006-.006c.002-.002 0-.003.002-.006h.002a.068.068 0 0 0 .002-.002.068.068 0 0 0 .002-.002v-.002l.002-.002a.068.068 0 0 0 0-.002.068.068 0 0 0 0-.002h.002v-.002a.068.068 0 0 0 .002-.002.068.068 0 0 0 0-.002.068.068 0 0 0 .002-.002.068.068 0 0 0 0-.002.068.068 0 0 0 0-.002.068.068 0 0 0 .002-.002.068.068 0 0 0 0-.002.068.068 0 0 0 0-.002.068.068 0 0 0 .002-.004.068.068 0 0 0 0-.002.068.068 0 0 0 .002-.003.068.068 0 0 0 .002-.014V57.215a.068.068 0 0 0-.002-.013c0-.004-.003-.007-.004-.01a.068.068 0 0 0-.002-.004.068.068 0 0 0 0-.002.068.068 0 0 0-.002-.004.068.068 0 0 0 0-.002.068.068 0 0 0 0-.002.068.068 0 0 0 0-.002.068.068 0 0 0-.002 0 .068.068 0 0 0 0-.002.068.068 0 0 0 0-.002.068.068 0 0 0-.002 0 .068.068 0 0 0 0-.002.068.068 0 0 0-.002-.002.068.068 0 0 0-.002-.002.068.068 0 0 0 0-.002.068.068 0 0 0-.002-.004.068.068 0 0 0-.002 0 .068.068 0 0 0 0-.002.068.068 0 0 0-.002-.002.068.068 0 0 0 0-.002h-.002v-.002a.068.068 0 0 0-.002-.002.068.068 0 0 0 0-.002.068.068 0 0 0-.002-.002.068.068 0 0 0-.002-.004.068.068 0 0 0-.002 0v-.002l-.002-.002a.068.068 0 0 0-.002-.004l-.002-.002-.002-.002-.002-.002a.068.068 0 0 0-.006-.004.068.068 0 0 0-.002 0 .068.068 0 0 0-.004-.003.068.068 0 0 0-.006-.004.068.068 0 0 0-.002 0 .068.068 0 0 0-.002 0 .068.068 0 0 0 0-.002.068.068 0 0 0-.002 0 .068.068 0 0 0-.002-.002.068.068 0 0 0-.002 0 .068.068 0 0 0 0-.002.068.068 0 0 0-.002 0 .068.068 0 0 0-.002 0 .068.068 0 0 0-.002 0 .068.068 0 0 0-.002-.002.068.068 0 0 0-.002 0 .068.068 0 0 0-.002-.002.068.068 0 0 0-.004 0 .068.068 0 0 0-.004-.002.068.068 0 0 0-.006-.002.068.068 0 0 0-.013-.002H247.04l2.326-2.432c.122-.128.243-.264.36-.41.12-.148.22-.308.31-.477a.068.068 0 0 0 .004-.004.068.068 0 0 0 0-.002.068.068 0 0 0 .002-.002.068.068 0 0 0 0-.002.068.068 0 0 0 .002-.002v-.002a.068.068 0 0 0 .002-.002.068.068 0 0 0 0-.003.068.068 0 0 0 0-.002.068.068 0 0 0 0-.002.068.068 0 0 0 .002-.002.068.068 0 0 0 0-.004l.002-.002a2.89 2.89 0 0 0 .21-.528c.056-.2.083-.411.083-.634 0-.297-.047-.579-.144-.842a1.977 1.977 0 0 0-.432-.696c-.19-.2-.428-.356-.707-.47a2.515 2.515 0 0 0-.957-.172zm6.59.006a.068.068 0 0 0-.026.01.068.068 0 0 0-.006.004.068.068 0 0 0-.006.004.068.068 0 0 0-.002.002.068.068 0 0 0-.002 0 .068.068 0 0 0 0 .002.068.068 0 0 0-.004.002l.004-.004-2.56.906-.004.002h-.002l-.004.002-.008.002a.068.068 0 0 0-.002 0 .068.068 0 0 0 0 .002.068.068 0 0 0-.002 0 .068.068 0 0 0-.002.002.068.068 0 0 0-.002 0 .068.068 0 0 0-.002.002.068.068 0 0 0-.002.002.068.068 0 0 0-.002 0 .068.068 0 0 0-.004.002.068.068 0 0 0-.004.002.068.068 0 0 0-.004.004.068.068 0 0 0-.002.002.068.068 0 0 0-.004.002.068.068 0 0 0-.002 0c-.003.002-.004.005-.006.008h-.002a.068.068 0 0 0-.004.006.068.068 0 0 0 0 .002.068.068 0 0 0-.004.004.068.068 0 0 0 0 .002.068.068 0 0 0-.004.004.068.068 0 0 0 0 .002.068.068 0 0 0-.002.002.068.068 0 0 0 0 .002.068.068 0 0 0-.002 0v.002a.068.068 0 0 0 0 .002.068.068 0 0 0-.002 0 .068.068 0 0 0 0 .002.068.068 0 0 0-.002 0 .068.068 0 0 0 0 .002.068.068 0 0 0-.002.002.068.068 0 0 0-.002.003.068.068 0 0 0-.002.002.068.068 0 0 0 0 .004.068.068 0 0 0-.002.002.068.068 0 0 0 0 .004.068.068 0 0 0-.002.004.068.068 0 0 0 0 .002.068.068 0 0 0-.002.01v.406a.068.068 0 0 0 .002.014c0 .004.003.006.004.01a.068.068 0 0 0 .002.004.068.068 0 0 0 0 .002.068.068 0 0 0 .002.004.068.068 0 0 0 0 .002v.002a.068.068 0 0 0 .002.002.068.068 0 0 0 0 .002.068.068 0 0 0 0 .002.068.068 0 0 0 .002.002.068.068 0 0 0 0 .002.068.068 0 0 0 .002.002.068.068 0 0 0 .002.002.068.068 0 0 0 0 .002.068.068 0 0 0 .002.002.068.068 0 0 0 .002.004.068.068 0 0 0 .002.002.068.068 0 0 0 .002.002.068.068 0 0 0 0 .002.068.068 0 0 0 .002 0 .068.068 0 0 0 0 .002.068.068 0 0 0 .002.002.068.068 0 0 0 .002.003l.002.002a.068.068 0 0 0 .002.002.068.068 0 0 0 0 .002h.002c.002.002.002.005.004.006l.002.002a.068.068 0 0 0 .006.004h.002s0 .002.002.002a.068.068 0 0 0 .002.002.068.068 0 0 0 .002.002.068.068 0 0 0 .004.002.068.068 0 0 0 .002.002.068.068 0 0 0 .01.004.068.068 0 0 0 .002.002.068.068 0 0 0 .002 0 .068.068 0 0 0 .006.002.068.068 0 0 0 .008.002.068.068 0 0 0 .006.002.068.068 0 0 0 .013.002H252.141a.068.068 0 0 0 .008-.002.068.068 0 0 0 .006 0 .068.068 0 0 0 .012-.006l.004-.002a.068.068 0 0 0 .004-.002l2.06-.736v5.89H252.162a.068.068 0 0 0-.014.003c-.004 0-.006.002-.01.003l-.004.002-.006.002a.068.068 0 0 0-.002 0 .068.068 0 0 0-.002 0 .068.068 0 0 0-.002.002.068.068 0 0 0-.002 0 .068.068 0 0 0-.002.002.068.068 0 0 0-.002 0 .068.068 0 0 0-.002.002.068.068 0 0 0-.002 0 .068.068 0 0 0 0 .002.068.068 0 0 0-.002 0 .068.068 0 0 0-.002 0 .068.068 0 0 0 0 .002.068.068 0 0 0-.002 0 .068.068 0 0 0 0 .002.068.068 0 0 0-.002 0 .068.068 0 0 0-.002.002.068.068 0 0 0-.002 0 .068.068 0 0 0-.002.002.068.068 0 0 0-.002.002.068.068 0 0 0-.002 0 .068.068 0 0 0-.002 0 .068.068 0 0 0-.002.002.068.068 0 0 0-.002.002.068.068 0 0 0 0 .002.068.068 0 0 0-.004.002.068.068 0 0 0-.002 0l-.006.006-.002.002a.068.068 0 0 0-.004.006.068.068 0 0 0 0 .002.068.068 0 0 0-.004.004.068.068 0 0 0-.002.004.068.068 0 0 0-.002.002.068.068 0 0 0-.002.004.068.068 0 0 0 0 .002.068.068 0 0 0-.002.002.068.068 0 0 0-.002.002.068.068 0 0 0 0 .002.068.068 0 0 0-.002.002.068.068 0 0 0 0 .002.068.068 0 0 0 0 .002.068.068 0 0 0 0 .002.068.068 0 0 0-.002 0 .068.068 0 0 0 0 .002.068.068 0 0 0 0 .004.068.068 0 0 0-.002.004.068.068 0 0 0-.002.004.068.068 0 0 0 0 .006.068.068 0 0 0-.002.01V57.582a.068.068 0 0 0 .002.013l.004.01.002.004.002.008a.068.068 0 0 0 0 .002.068.068 0 0 0 .002.004.068.068 0 0 0 0 .002.068.068 0 0 0 .002.002.068.068 0 0 0 0 .002.068.068 0 0 0 .002.002.068.068 0 0 0 .002.002.068.068 0 0 0 0 .002.068.068 0 0 0 .002.002l.002.004a.068.068 0 0 0 .002.002.068.068 0 0 0 .002.002.068.068 0 0 0 0 .002.068.068 0 0 0 .002 0 .068.068 0 0 0 0 .002.068.068 0 0 0 .004.005.068.068 0 0 0 .002 0 .068.068 0 0 0 0 .002.068.068 0 0 0 .002.002.068.068 0 0 0 .002.004.116.116 0 0 0 .008.008.068.068 0 0 0 .006.004.068.068 0 0 0 .012.008.068.068 0 0 0 .012.006.068.068 0 0 0 .008.002.068.068 0 0 0 .006.002.068.068 0 0 0 .002 0 .068.068 0 0 0 .006.002.068.068 0 0 0 .013.002h4.6a.068.068 0 0 0 .014-.002l.01-.004.006-.002a.068.068 0 0 0 .006-.002.068.068 0 0 0 .002 0 .068.068 0 0 0 .006-.002.068.068 0 0 0 .002-.002.068.068 0 0 0 .002 0 .068.068 0 0 0 .002-.002.068.068 0 0 0 .002-.002.068.068 0 0 0 .002 0 .068.068 0 0 0 .002-.002.068.068 0 0 0 .002-.002.068.068 0 0 0 .002 0 .068.068 0 0 0 .002-.002.068.068 0 0 0 .002-.002.068.068 0 0 0 .004-.002l.002-.002a.068.068 0 0 0 .002 0 .068.068 0 0 0 0-.002.068.068 0 0 0 .002 0l.002-.002a.068.068 0 0 0 .002-.002.068.068 0 0 0 .008-.014l.002-.002-.002.006.006-.006c.002-.002 0-.003.002-.006h.002a.068.068 0 0 0 .002-.002.068.068 0 0 0 .002-.002.068.068 0 0 0 0-.002l.002-.002a.068.068 0 0 0 0-.002s.002 0 .002-.002a.068.068 0 0 0 0-.002.068.068 0 0 0 .002-.002v-.002a.068.068 0 0 0 .002-.002.068.068 0 0 0 0-.002.068.068 0 0 0 0-.002.068.068 0 0 0 .002-.002.068.068 0 0 0 0-.002.068.068 0 0 0 0-.002.068.068 0 0 0 .002-.004.068.068 0 0 0 0-.002.068.068 0 0 0 .002-.003.068.068 0 0 0 .002-.014V57.216a.068.068 0 0 0-.002-.013c0-.004-.003-.007-.004-.01a.068.068 0 0 0-.002-.004.068.068 0 0 0 0-.002.068.068 0 0 0-.002-.004.068.068 0 0 0 0-.002.068.068 0 0 0 0-.002.068.068 0 0 0 0-.002.068.068 0 0 0-.002 0 .068.068 0 0 0 0-.002.068.068 0 0 0-.002-.002.068.068 0 0 0 0-.002.068.068 0 0 0-.002-.002.068.068 0 0 0-.002-.002.068.068 0 0 0 0-.002.068.068 0 0 0-.002-.004.068.068 0 0 0-.002 0 .068.068 0 0 0 0-.002.068.068 0 0 0-.002-.002.068.068 0 0 0 0-.002.068.068 0 0 0-.002-.002.068.068 0 0 0 0-.002.068.068 0 0 0-.002 0 .068.068 0 0 0 0-.002.068.068 0 0 0-.002-.002.068.068 0 0 0-.002-.004.068.068 0 0 0-.002 0 .068.068 0 0 0 0-.002.068.068 0 0 0-.002-.002.068.068 0 0 0-.002-.002.068.068 0 0 0 0-.002l-.002-.002-.002-.002-.002-.002a.068.068 0 0 0-.006-.003.068.068 0 0 0-.002 0 .068.068 0 0 0-.004-.004.068.068 0 0 0-.006-.004.068.068 0 0 0-.002 0 .068.068 0 0 0-.002 0 .068.068 0 0 0-.002-.002.068.068 0 0 0-.002-.002.068.068 0 0 0-.002 0 .068.068 0 0 0 0-.002.068.068 0 0 0-.002 0 .068.068 0 0 0-.002 0 .068.068 0 0 0-.002 0 .068.068 0 0 0-.002-.002.068.068 0 0 0-.002 0 .068.068 0 0 0-.002-.002.068.068 0 0 0-.004 0 .068.068 0 0 0-.004-.002.068.068 0 0 0-.006-.002.068.068 0 0 0-.014-.002H254.843V50.529a.068.068 0 0 0-.003-.013c0-.004-.003-.007-.004-.01a.068.068 0 0 0-.004-.012.068.068 0 0 0 0-.002.068.068 0 0 0 0-.002.068.068 0 0 0-.004-.004.068.068 0 0 0-.002-.002.068.068 0 0 0 0-.002.068.068 0 0 0-.002-.002.068.068 0 0 0 0-.002.068.068 0 0 0 0-.002.068.068 0 0 0-.002-.002.068.068 0 0 0 0-.002.068.068 0 0 0-.002 0 .068.068 0 0 0-.002-.002.068.068 0 0 0 0-.002.068.068 0 0 0-.002-.002.068.068 0 0 0 0-.002.068.068 0 0 0-.002 0v-.002a.068.068 0 0 0-.002-.002.068.068 0 0 0-.002-.004h-.002v-.002a.068.068 0 0 0-.002-.002.068.068 0 0 0-.002-.004l-.002-.002-.002-.002-.002-.002a.068.068 0 0 0-.006-.004.068.068 0 0 0-.002 0 .068.068 0 0 0-.004-.003.068.068 0 0 0-.006-.004.068.068 0 0 0-.002 0 .068.068 0 0 0-.002 0 .068.068 0 0 0-.002-.002.068.068 0 0 0-.002-.002.068.068 0 0 0-.002 0 .068.068 0 0 0 0-.002.068.068 0 0 0-.002 0 .068.068 0 0 0-.002 0 .068.068 0 0 0-.002 0 .068.068 0 0 0-.002-.002.068.068 0 0 0-.002 0 .068.068 0 0 0-.002-.002.068.068 0 0 0-.004 0 .068.068 0 0 0-.004-.002.068.068 0 0 0-.006-.002.068.068 0 0 0-.013-.002h-.038a.068.068 0 0 0-.008 0zm-12.383.592c.29 0 .553.062.797.187s.456.309.638.561a.068.068 0 0 0 0 .002c.182.25.328.568.434.955.106.384.16.838.16 1.361 0 .537-.056.999-.162 1.385-.106.39-.25.707-.432.957a.068.068 0 0 0 0 .002 1.714 1.714 0 0 1-.635.553.068.068 0 0 0-.002 0c-.243.12-.507.18-.798.18-.292 0-.56-.06-.805-.18a1.733 1.733 0 0 1-.639-.555 2.907 2.907 0 0 1-.433-.957.068.068 0 0 0-.004-.012.068.068 0 0 0-.002-.003 5.29 5.29 0 0 1-.159-1.37c0-.525.054-.978.157-1.36a.068.068 0 0 0 .002-.003.068.068 0 0 0 .004-.01.068.068 0 0 0 .002-.006c.106-.388.25-.704.433-.953.184-.25.395-.433.639-.552.246-.121.513-.182.805-.182zm9.715.389.002.002a.068.068 0 0 0-.002.015l.011-.01.03.018.01.01-.069.002.006-.01v.004l.012-.031zm.058.478.008.065h-.006l-.02-.004h-.003l.002-.006a.068.068 0 0 0 .013.002h.002l-.011-.012.015-.045zm-17.58.065v.007l-.002.004a.068.068 0 0 0 .002-.011zm11.957 0v.007l-.002.004a.068.068 0 0 0 .002-.011zm-59.262.796c-.35 0-.68.062-.982.19-.3.125-.564.302-.787.525-.225.225-.4.494-.526.8a2.58 2.58 0 0 0-.187.993c0 .357.061.69.187.996.125.306.301.574.526.797.225.223.49.397.79.522.303.126.63.19.98.19a2.452 2.452 0 0 0 1.245-.33c.18-.107.34-.235.483-.384.048-.05.085-.108.127-.162v.707a.068.068 0 0 0 .002.014c0 .004.003.006.004.01a.068.068 0 0 0 .002.004.068.068 0 0 0 0 .002.068.068 0 0 0 .002.004.068.068 0 0 0 0 .002v.002a.068.068 0 0 0 .002.002.068.068 0 0 0 0 .002.068.068 0 0 0 0 .002.068.068 0 0 0 .002.002.068.068 0 0 0 0 .002.068.068 0 0 0 .002.002.068.068 0 0 0 .002.002.068.068 0 0 0 0 .002.068.068 0 0 0 .002.002.068.068 0 0 0 .002.004.068.068 0 0 0 .002.002.068.068 0 0 0 .002.002.068.068 0 0 0 .002.002.068.068 0 0 0 0 .002.068.068 0 0 0 .002.002.068.068 0 0 0 .002.002.068.068 0 0 0 0 .002l.002.002a.068.068 0 0 0 .002.002.068.068 0 0 0 0 .002h.002l.004.005.002.002a.068.068 0 0 0 .008.004.068.068 0 0 0 .004.004.068.068 0 0 0 .002 0 .068.068 0 0 0 .002.002.068.068 0 0 0 .002.002.068.068 0 0 0 .002 0l.002.002a.068.068 0 0 0 .002 0 .068.068 0 0 0 .002.002.068.068 0 0 0 .002.002.068.068 0 0 0 .002 0 .068.068 0 0 0 .002 0 .068.068 0 0 0 .006.004.068.068 0 0 0 .004 0 .068.068 0 0 0 .006.002.068.068 0 0 0 .006.002.068.068 0 0 0 .014.002H189.536a.068.068 0 0 0 .014-.002c.004 0 .006-.003.01-.004l.006-.002a.068.068 0 0 0 .006-.002.068.068 0 0 0 .002 0 .068.068 0 0 0 .006-.002.068.068 0 0 0 .002-.002.068.068 0 0 0 .002 0 .068.068 0 0 0 .002-.002.068.068 0 0 0 .004-.002l.002-.002.002-.002a.068.068 0 0 0 .002 0v-.002h.002a.068.068 0 0 0 .002-.002l.002-.002h.002l.002-.002.006-.004a.068.068 0 0 0 .002-.002.068.068 0 0 0 .002 0l.006-.006.002-.002a.068.068 0 0 0 .004-.007.068.068 0 0 0 .004-.004.068.068 0 0 0 0-.002.068.068 0 0 0 .002-.002.068.068 0 0 0 .002-.002v-.002l.002-.002a.068.068 0 0 0 0-.002.068.068 0 0 0 0-.002h.002v-.002a.068.068 0 0 0 .002-.002.068.068 0 0 0 0-.002.068.068 0 0 0 .002-.002.068.068 0 0 0 0-.002.068.068 0 0 0 0-.002.068.068 0 0 0 .002-.002.068.068 0 0 0 0-.002.068.068 0 0 0 0-.002.068.068 0 0 0 .002-.004.068.068 0 0 0 0-.002.068.068 0 0 0 .002-.004.068.068 0 0 0 .002-.014V52.902a.068.068 0 0 0-.002-.013c-.001-.006-.004-.01-.006-.014l-.002-.006a.068.068 0 0 0 0-.004.068.068 0 0 0-.002-.002.068.068 0 0 0 0-.002.068.068 0 0 0-.002-.002.068.068 0 0 0-.004-.006.068.068 0 0 0 0-.002v-.002l-.002-.002h-.002l-.002-.002v-.004a.068.068 0 0 0-.004-.004l.002.004s-.003 0-.004-.002l.002-.002v-.002a.068.068 0 0 0-.006-.006.068.068 0 0 0-.004-.007.116.116 0 0 0-.008-.008.068.068 0 0 0-.006-.004.068.068 0 0 0-.004-.002.068.068 0 0 0-.002-.002.068.068 0 0 0-.002 0 .068.068 0 0 0-.004-.004.068.068 0 0 0-.004-.002.068.068 0 0 0-.002 0 .068.068 0 0 0-.002 0 .068.068 0 0 0 0-.002.068.068 0 0 0-.002 0 .068.068 0 0 0-.002 0 .068.068 0 0 0-.002 0 .068.068 0 0 0-.002-.002.068.068 0 0 0-.002 0 .068.068 0 0 0-.002-.002.068.068 0 0 0-.004 0 .068.068 0 0 0-.004-.002.068.068 0 0 0-.006-.002.068.068 0 0 0-.014-.002H189.165a.068.068 0 0 0-.014.002c-.004 0-.006.003-.01.004l-.006.002c-.003 0-.005 0-.008.002a.068.068 0 0 0-.002 0 .068.068 0 0 0 0 .002.068.068 0 0 0-.002 0 .068.068 0 0 0-.002.002.068.068 0 0 0-.002 0 .068.068 0 0 0-.002.002.068.068 0 0 0-.002.002.068.068 0 0 0-.002 0 .068.068 0 0 0-.004.002.068.068 0 0 0-.004.002.068.068 0 0 0 0 .002.068.068 0 0 0-.002 0 .068.068 0 0 0-.002.002.068.068 0 0 0-.002 0 .068.068 0 0 0 0 .002.068.068 0 0 0-.004.002.068.068 0 0 0-.002 0v.002h-.002a.068.068 0 0 0 0 .002.068.068 0 0 0 0 .002.068.068 0 0 0-.002 0 .068.068 0 0 0-.002 0 .068.068 0 0 0-.002 0l-.006.006-.002.002a.068.068 0 0 0-.004.006v.002a.068.068 0 0 0-.004.004.068.068 0 0 0-.002.003.068.068 0 0 0-.002.004.068.068 0 0 0 0 .002.068.068 0 0 0-.002 0 .068.068 0 0 0 0 .002.068.068 0 0 0-.002.002.068.068 0 0 0 0 .002.068.068 0 0 0-.002 0 .068.068 0 0 0 0 .002.068.068 0 0 0 0 .002.068.068 0 0 0 0 .002.068.068 0 0 0-.002 0 .068.068 0 0 0 0 .002.068.068 0 0 0 0 .002.068.068 0 0 0-.002.002.068.068 0 0 0 0 .002.068.068 0 0 0 0 .002.068.068 0 0 0-.002.004.068.068 0 0 0-.002.006.068.068 0 0 0-.002.014v.715c-.042-.055-.079-.113-.127-.164a2.225 2.225 0 0 0-.482-.383 2.42 2.42 0 0 0-1.246-.332zm6.303 0a2.193 2.193 0 0 0-1.11.281 1.982 1.982 0 0 0-.421.32c-.03.03-.053.065-.08.097v-.53a.068.068 0 0 0-.002-.013c-.001-.006-.004-.01-.006-.014a.068.068 0 0 0-.004-.012.068.068 0 0 0-.002-.004.068.068 0 0 0-.004-.007l-.002-.002v-.002a.068.068 0 0 0-.002-.004v.004l-.002-.002v-.004a.068.068 0 0 0-.004-.004l.002.004-.004-.002.002-.002v-.002a.068.068 0 0 0-.006-.006.068.068 0 0 0-.002-.006l-.006-.006-.002-.002a.068.068 0 0 0-.006-.004.068.068 0 0 0-.002 0 .068.068 0 0 0-.004-.004.068.068 0 0 0-.006-.004.068.068 0 0 0-.002 0 .068.068 0 0 0-.002 0 .068.068 0 0 0-.002-.002.068.068 0 0 0-.002-.002.068.068 0 0 0-.002 0 .068.068 0 0 0 0-.002.068.068 0 0 0-.002 0 .068.068 0 0 0-.002 0 .068.068 0 0 0-.002 0 .068.068 0 0 0-.002-.002.068.068 0 0 0-.002 0 .068.068 0 0 0-.002-.002.068.068 0 0 0-.004 0 .068.068 0 0 0-.002-.002.068.068 0 0 0-.002 0 .068.068 0 0 0-.006-.002.068.068 0 0 0-.014-.002H191.398a.068.068 0 0 0-.014.002l-.01.004-.004.002-.006.002a.068.068 0 0 0-.002 0 .068.068 0 0 0-.002 0 .068.068 0 0 0-.002.002.068.068 0 0 0-.002 0 .068.068 0 0 0-.002.002.068.068 0 0 0-.002 0 .068.068 0 0 0-.002.002.068.068 0 0 0-.002.002.068.068 0 0 0-.002 0 .068.068 0 0 0-.002 0 .068.068 0 0 0-.002.002.068.068 0 0 0-.004.002.068.068 0 0 0 0 .002.068.068 0 0 0-.002 0 .068.068 0 0 0-.002.002.068.068 0 0 0-.002 0 .068.068 0 0 0 0 .002.068.068 0 0 0-.002 0 .068.068 0 0 0-.002.002.068.068 0 0 0-.004.002.068.068 0 0 0 0 .002.068.068 0 0 0-.002 0 .068.068 0 0 0-.002.002.068.068 0 0 0-.002 0l-.008.008a.068.068 0 0 0-.004.006v.002a.068.068 0 0 0-.004.004.068.068 0 0 0-.002.004.068.068 0 0 0-.002.002.068.068 0 0 0 0 .002.068.068 0 0 0 0 .002.068.068 0 0 0-.002.002.068.068 0 0 0-.002 0 .068.068 0 0 0 0 .002.068.068 0 0 0 0 .002.068.068 0 0 0-.002.002.068.068 0 0 0 0 .002.068.068 0 0 0 0 .002.068.068 0 0 0-.002 0 .068.068 0 0 0 0 .002.068.068 0 0 0 0 .002.068.068 0 0 0-.002.002.068.068 0 0 0 0 .002.068.068 0 0 0 0 .002.068.068 0 0 0-.002.004.068.068 0 0 0-.002.005.068.068 0 0 0-.002.014v.008a.127.127 0 0 0 0 .01v4.662a.068.068 0 0 0 .002.014c0 .003.003.006.004.01l.002.003c0 .003 0 .005.002.008a.068.068 0 0 0 0 .002.068.068 0 0 0 .002.004.068.068 0 0 0 0 .002.068.068 0 0 0 .002.002.068.068 0 0 0 0 .002.068.068 0 0 0 .002.002.068.068 0 0 0 .002.002.068.068 0 0 0 0 .002.068.068 0 0 0 .002.002.068.068 0 0 0 .002.004.068.068 0 0 0 .002.002.068.068 0 0 0 .002.002.068.068 0 0 0 .002.002.068.068 0 0 0 0 .002.068.068 0 0 0 .002.002.068.068 0 0 0 .002.002.068.068 0 0 0 .002.002s0 .003.002.004a.068.068 0 0 0 .002.004l.008.008a.068.068 0 0 0 .006.003.068.068 0 0 0 .002 0 .068.068 0 0 0 .004.004.068.068 0 0 0 .004.002.068.068 0 0 0 .002.002.068.068 0 0 0 .004.002.068.068 0 0 0 .002.002.068.068 0 0 0 .014.004.068.068 0 0 0 .004.002.068.068 0 0 0 .002 0 .068.068 0 0 0 .002 0 .068.068 0 0 0 .002.002.068.068 0 0 0 .004 0 .068.068 0 0 0 .002 0 .068.068 0 0 0 .011.002H191.773a.068.068 0 0 0 .014-.002c.004 0 .006-.003.01-.004.002 0 .004 0 .006-.002a.068.068 0 0 0 .006-.002.068.068 0 0 0 .002 0 .068.068 0 0 0 .006-.002.068.068 0 0 0 .002-.002.068.068 0 0 0 .002 0 .068.068 0 0 0 .002-.002.068.068 0 0 0 .002-.002.068.068 0 0 0 .002 0 .068.068 0 0 0 .002-.002.068.068 0 0 0 .002-.002.068.068 0 0 0 .002 0 .068.068 0 0 0 .002-.002.068.068 0 0 0 .002-.002.068.068 0 0 0 .004-.002l.002-.002a.068.068 0 0 0 .002 0 .068.068 0 0 0 .002-.002l.002-.002a.068.068 0 0 0 .002-.002.068.068 0 0 0 .008-.013l.002-.002-.002.006.006-.006c.002-.002 0-.004.002-.006h.002a.068.068 0 0 0 .002-.002.068.068 0 0 0 .002-.002v-.002l.002-.002a.068.068 0 0 0 0-.002.068.068 0 0 0 0-.002h.002v-.002a.068.068 0 0 0 .002-.002.068.068 0 0 0 0-.002.068.068 0 0 0 .002-.002.068.068 0 0 0 0-.002.068.068 0 0 0 0-.002.068.068 0 0 0 .002-.002.068.068 0 0 0 0-.002.068.068 0 0 0 0-.002.068.068 0 0 0 .002-.004.068.068 0 0 0 0-.002.068.068 0 0 0 .002-.004.068.068 0 0 0 .002-.014v-2.707c0-.22.038-.425.115-.615a1.468 1.468 0 0 1 .816-.822c.192-.08.407-.12.645-.12.267 0 .498.039.693.112a1.255 1.255 0 0 1 .785.775v.002a.068.068 0 0 0 .002.006.068.068 0 0 0 0 .004c.068.186.102.39.102.623V57.578a.068.068 0 0 0 .002.014c0 .004.003.007.004.01l.002.004c0 .002 0 .005.002.008a.068.068 0 0 0 0 .002.068.068 0 0 0 .002.004.068.068 0 0 0 0 .002.068.068 0 0 0 .002.002.068.068 0 0 0 0 .002.068.068 0 0 0 .002.002.068.068 0 0 0 .002.002.068.068 0 0 0 0 .002.068.068 0 0 0 .002.002.068.068 0 0 0 .002.003.068.068 0 0 0 .002.002.068.068 0 0 0 .002.002.068.068 0 0 0 .002.002.068.068 0 0 0 0 .002.068.068 0 0 0 .002.002.068.068 0 0 0 .002.004h.002v.002a.068.068 0 0 0 .002.002.068.068 0 0 0 .002.004.116.116 0 0 0 .008.008.068.068 0 0 0 .006.004.068.068 0 0 0 .004.002.068.068 0 0 0 .002.002.068.068 0 0 0 .004.002.068.068 0 0 0 .004.002.068.068 0 0 0 .004.002.068.068 0 0 0 .002.002.068.068 0 0 0 .002 0 .068.068 0 0 0 .002 0 .068.068 0 0 0 .002.002.068.068 0 0 0 .004 0 .068.068 0 0 0 .002.002.068.068 0 0 0 .002 0 .068.068 0 0 0 .002 0 .068.068 0 0 0 .002.002.068.068 0 0 0 .002 0 .068.068 0 0 0 .006.002.068.068 0 0 0 .014.002H195.534a.068.068 0 0 0 .014-.002c.004 0 .006-.003.01-.004l.006-.002a.068.068 0 0 0 .006-.002.068.068 0 0 0 .002 0 .068.068 0 0 0 .006-.002.068.068 0 0 0 .002-.002.068.068 0 0 0 .002 0 .068.068 0 0 0 .002-.002.068.068 0 0 0 .002-.002.068.068 0 0 0 .002 0 .068.068 0 0 0 .002-.002.068.068 0 0 0 .002-.002.068.068 0 0 0 .002 0 .068.068 0 0 0 .002-.002.068.068 0 0 0 .002-.002.068.068 0 0 0 .004-.002l.002-.002a.068.068 0 0 0 .002 0 .068.068 0 0 0 .002-.002l.002-.002a.068.068 0 0 0 .002-.002.068.068 0 0 0 .008-.014l.002-.002-.002.006.006-.006c.002-.002 0-.003.002-.006h.002a.068.068 0 0 0 .002-.002.068.068 0 0 0 .002-.002v-.002l.002-.002a.068.068 0 0 0 0-.002.068.068 0 0 0 0-.002h.002v-.002a.068.068 0 0 0 .002-.002.068.068 0 0 0 0-.002.068.068 0 0 0 .002-.002.068.068 0 0 0 0-.002.068.068 0 0 0 0-.002.068.068 0 0 0 .002-.002.068.068 0 0 0 0-.002.068.068 0 0 0 0-.002.068.068 0 0 0 .002-.003.068.068 0 0 0 0-.002.068.068 0 0 0 .002-.004.068.068 0 0 0 .002-.014V54.84c0-.315-.047-.604-.147-.865a1.851 1.851 0 0 0-.412-.647.068.068 0 0 0-.006-.008l-.002-.002v-.002h-.002v-.002a.068.068 0 0 0-.002-.002l-.002-.002s-.003 0-.004-.002c0 0 0-.003-.002-.004l-.002-.002a1.927 1.927 0 0 0-.68-.422 2.553 2.553 0 0 0-.888-.146zm10.727 0c-.35 0-.68.062-.983.19-.3.125-.563.302-.787.525-.224.225-.4.494-.525.8-.126.306-.19.636-.19.993 0 .358.064.69.19.996.125.306.3.574.525.797.224.223.49.397.79.522.302.126.63.19.98.19a2.442 2.442 0 0 0 1.244-.33 2.23 2.23 0 0 0 .484-.384c.049-.05.085-.108.127-.162v.707a.068.068 0 0 0 .002.014l.004.01a.068.068 0 0 0 .002.004.068.068 0 0 0 0 .002.068.068 0 0 0 .002.004.068.068 0 0 0 0 .002v.002a.068.068 0 0 0 .002.002.068.068 0 0 0 0 .002.068.068 0 0 0 0 .002.068.068 0 0 0 .002.002.068.068 0 0 0 0 .002.068.068 0 0 0 .002.002.068.068 0 0 0 .002.002.068.068 0 0 0 0 .002.068.068 0 0 0 .002.002.068.068 0 0 0 .002.004.068.068 0 0 0 .002.002.068.068 0 0 0 .002.002.068.068 0 0 0 0 .002.068.068 0 0 0 .002 0 .068.068 0 0 0 0 .002.068.068 0 0 0 .002.002.068.068 0 0 0 .002.003l.002.002a.068.068 0 0 0 .002.002.068.068 0 0 0 0 .002h.002c.002.003.003.006.006.008a.068.068 0 0 0 .008.004.068.068 0 0 0 .004.004.068.068 0 0 0 .002 0 .068.068 0 0 0 .002.002.068.068 0 0 0 .002.002.068.068 0 0 0 .002 0l.002.002a.068.068 0 0 0 .002 0 .068.068 0 0 0 .002.002.068.068 0 0 0 .002.002.068.068 0 0 0 .002 0 .068.068 0 0 0 .002 0 .068.068 0 0 0 .002.002.068.068 0 0 0 .004.002.068.068 0 0 0 .004 0 .068.068 0 0 0 .004.002.068.068 0 0 0 .002 0 .068.068 0 0 0 .006.002.068.068 0 0 0 .014.002H206.565a.068.068 0 0 0 .014-.002c.004 0 .006-.003.01-.004l.006-.002a.068.068 0 0 0 .006-.002.068.068 0 0 0 .002 0 .068.068 0 0 0 .006-.002.068.068 0 0 0 .002-.002.068.068 0 0 0 .002 0 .068.068 0 0 0 .002-.002.068.068 0 0 0 .002-.002.068.068 0 0 0 .002 0 .068.068 0 0 0 .002-.002.068.068 0 0 0 .002-.002.068.068 0 0 0 .002 0 .068.068 0 0 0 .002-.002.068.068 0 0 0 .002-.002.068.068 0 0 0 .004-.002l.002-.002a.068.068 0 0 0 .002 0 .068.068 0 0 0 .002-.002l.002-.002a.068.068 0 0 0 .002-.002.068.068 0 0 0 .008-.014l.002-.002-.002.006s.004-.002.006-.006c.002-.002 0-.003.002-.005h.002a.068.068 0 0 0 .002-.002.068.068 0 0 0 .002-.002.068.068 0 0 0 0-.002l.002-.002a.068.068 0 0 0 0-.002l.002-.002a.068.068 0 0 0 0-.002.068.068 0 0 0 .002-.002v-.002a.068.068 0 0 0 .002-.002.068.068 0 0 0 0-.002.068.068 0 0 0 0-.002.068.068 0 0 0 .002-.002.068.068 0 0 0 0-.002.068.068 0 0 0 0-.002.068.068 0 0 0 .002-.004.068.068 0 0 0 0-.002.068.068 0 0 0 .002-.004.068.068 0 0 0 .002-.014V52.902a.068.068 0 0 0-.002-.014l-.004-.01a.068.068 0 0 0-.002-.003.068.068 0 0 0 0-.002.068.068 0 0 0-.002-.008.068.068 0 0 0-.002-.002.068.068 0 0 0 0-.002.068.068 0 0 0 0-.002.068.068 0 0 0-.002 0 .068.068 0 0 0 0-.002.068.068 0 0 0-.002-.002.068.068 0 0 0 0-.002.068.068 0 0 0-.002 0 .068.068 0 0 0 0-.002.068.068 0 0 0-.004-.004.068.068 0 0 0 0-.002.068.068 0 0 0-.002-.002.068.068 0 0 0 0-.002h-.002v-.002a.068.068 0 0 0-.002-.002.068.068 0 0 0 0-.002.068.068 0 0 0-.002-.002.068.068 0 0 0 0-.002h-.002v-.002a.068.068 0 0 0-.006-.008l-.002-.002-.006-.006a.068.068 0 0 0-.006-.004.068.068 0 0 0-.004-.002.068.068 0 0 0-.002-.002.068.068 0 0 0-.002 0 .068.068 0 0 0-.004-.003.068.068 0 0 0-.004-.002.068.068 0 0 0-.002 0 .068.068 0 0 0-.002 0 .068.068 0 0 0 0-.002.068.068 0 0 0-.002 0 .068.068 0 0 0-.002 0 .068.068 0 0 0-.002 0 .068.068 0 0 0-.002-.002.068.068 0 0 0-.002 0 .068.068 0 0 0-.002-.002.068.068 0 0 0-.004 0 .068.068 0 0 0-.004-.002.068.068 0 0 0-.006-.002.068.068 0 0 0-.014-.002H206.194a.068.068 0 0 0-.014.002c-.004 0-.006.002-.01.003l-.006.002-.008.002a.068.068 0 0 0-.002 0 .068.068 0 0 0 0 .002.068.068 0 0 0-.002 0 .068.068 0 0 0-.002.002.068.068 0 0 0-.002 0 .068.068 0 0 0-.002.002.068.068 0 0 0-.002.002.068.068 0 0 0-.002 0 .068.068 0 0 0-.002 0s0 .002-.002.002a.068.068 0 0 0-.004.002.068.068 0 0 0 0 .002.068.068 0 0 0-.002 0 .068.068 0 0 0-.002.002.068.068 0 0 0-.002.002.068.068 0 0 0-.002 0 .068.068 0 0 0-.006.004v.002h-.002a.068.068 0 0 0-.002.002.068.068 0 0 0-.002 0l-.006.006-.002.002a.068.068 0 0 0-.004.006v.002a.068.068 0 0 0-.004.004.068.068 0 0 0-.002.004.068.068 0 0 0-.002.004.068.068 0 0 0-.002.002.068.068 0 0 0 0 .002.068.068 0 0 0-.002.002.068.068 0 0 0-.002.004.068.068 0 0 0-.002.002.068.068 0 0 0 0 .002.068.068 0 0 0 0 .002.068.068 0 0 0 0 .002.068.068 0 0 0-.002.002.068.068 0 0 0 0 .002.068.068 0 0 0 0 .002.068.068 0 0 0-.002.002.068.068 0 0 0 0 .002.068.068 0 0 0-.002.004.068.068 0 0 0 0 .002.068.068 0 0 0-.002.013v.716c-.042-.056-.078-.114-.127-.165a2.213 2.213 0 0 0-.484-.383 2.43 2.43 0 0 0-1.244-.332zm8.662 0c-.37 0-.693.09-.961.264-.15.1-.277.222-.39.356v-.452a.068.068 0 0 0-.003-.013c0-.004-.003-.007-.004-.01a.068.068 0 0 0-.002-.004.068.068 0 0 0 0-.002.068.068 0 0 0-.002-.008.068.068 0 0 0 0-.002.068.068 0 0 0-.002 0 .068.068 0 0 0 0-.002.068.068 0 0 0-.002-.002.068.068 0 0 0 0-.002.068.068 0 0 0-.002-.002.068.068 0 0 0 0-.002.068.068 0 0 0-.002 0 .068.068 0 0 0 0-.002.068.068 0 0 0-.004-.004.068.068 0 0 0 0-.002.068.068 0 0 0-.002-.002.068.068 0 0 0 0-.002h-.002v-.002a.068.068 0 0 0-.002-.002.068.068 0 0 0 0-.002.068.068 0 0 0-.002 0 .068.068 0 0 0 0-.002.068.068 0 0 0 0-.002h-.002v-.002a.068.068 0 0 0-.004-.006l-.008-.007a.068.068 0 0 0-.006-.004.068.068 0 0 0-.002 0 .068.068 0 0 0-.004-.004.068.068 0 0 0-.006-.004.068.068 0 0 0-.002 0 .068.068 0 0 0-.002 0 .068.068 0 0 0-.002-.002.068.068 0 0 0-.002-.002.068.068 0 0 0-.002 0 .068.068 0 0 0 0-.002.068.068 0 0 0-.002 0 .068.068 0 0 0-.002 0 .068.068 0 0 0-.002 0 .068.068 0 0 0-.002-.002.068.068 0 0 0-.002 0 .068.068 0 0 0-.002-.002.068.068 0 0 0-.004 0 .068.068 0 0 0-.004-.002.068.068 0 0 0-.006-.002.068.068 0 0 0-.013-.002H211.046a.068.068 0 0 0-.014.002c-.004 0-.006.003-.01.004l-.004.002c-.002 0-.004 0-.006.002a.068.068 0 0 0-.002 0 .068.068 0 0 0-.002 0 .068.068 0 0 0-.002.002.068.068 0 0 0-.002 0 .068.068 0 0 0-.002.002.068.068 0 0 0-.002 0 .068.068 0 0 0-.002.002.068.068 0 0 0-.002.002.068.068 0 0 0-.002 0 .068.068 0 0 0-.002 0 .068.068 0 0 0-.002.002.068.068 0 0 0-.004.002.068.068 0 0 0 0 .002.068.068 0 0 0-.002 0 .068.068 0 0 0-.002.002.068.068 0 0 0-.002 0 .068.068 0 0 0 0 .002.068.068 0 0 0-.002 0 .068.068 0 0 0-.002.002.068.068 0 0 0-.004.004.068.068 0 0 0-.002 0 .068.068 0 0 0-.002.002.068.068 0 0 0-.002 0l-.008.008a.068.068 0 0 0-.004.005.068.068 0 0 0 0 .002.068.068 0 0 0-.004.004.068.068 0 0 0-.002.004.068.068 0 0 0-.002.002.068.068 0 0 0 0 .002.068.068 0 0 0 0 .002.068.068 0 0 0-.002 0 .068.068 0 0 0 0 .002.068.068 0 0 0-.002.002.068.068 0 0 0 0 .002.068.068 0 0 0-.002.002.068.068 0 0 0 0 .002.068.068 0 0 0 0 .002.068.068 0 0 0-.002 0 .068.068 0 0 0 0 .002.068.068 0 0 0 0 .002.068.068 0 0 0-.002.002.068.068 0 0 0 0 .004.068.068 0 0 0-.002.004.068.068 0 0 0-.002.006.068.068 0 0 0-.002.014v.008a.084.084 0 0 0 0 .01v4.661a.068.068 0 0 0 .002.014l.004.01.002.004.002.008a.068.068 0 0 0 0 .002.068.068 0 0 0 .002.003.068.068 0 0 0 0 .002.068.068 0 0 0 .002.002.068.068 0 0 0 0 .002.068.068 0 0 0 .002.002.068.068 0 0 0 .002.002.068.068 0 0 0 0 .002.068.068 0 0 0 .002.002.068.068 0 0 0 .002.004.068.068 0 0 0 .002.002.068.068 0 0 0 .002.002.068.068 0 0 0 0 .002.068.068 0 0 0 .002 0 .068.068 0 0 0 0 .002.068.068 0 0 0 .002.002.068.068 0 0 0 .002.002v.002a.068.068 0 0 0 .002 0 .068.068 0 0 0 .002.002.068.068 0 0 0 0 .002.068.068 0 0 0 .002.004l.008.008a.068.068 0 0 0 .006.004.068.068 0 0 0 .002 0 .068.068 0 0 0 .004.004.068.068 0 0 0 .004.002.068.068 0 0 0 .002.002.068.068 0 0 0 .004.002.068.068 0 0 0 .002.002.068.068 0 0 0 .014.004.068.068 0 0 0 .004.002.068.068 0 0 0 .002 0 .068.068 0 0 0 .002 0 .068.068 0 0 0 .002.002.068.068 0 0 0 .004 0 .068.068 0 0 0 .002 0 .068.068 0 0 0 .012.002H211.418a.068.068 0 0 0 .013-.002l.01-.004.006-.002a.068.068 0 0 0 .006-.002.068.068 0 0 0 .002 0 .068.068 0 0 0 .006-.002.068.068 0 0 0 .002-.002.068.068 0 0 0 .002 0 .068.068 0 0 0 .002-.002.068.068 0 0 0 .002-.002.068.068 0 0 0 .002 0 .068.068 0 0 0 .002-.002.068.068 0 0 0 .002-.002.068.068 0 0 0 .002 0 .068.068 0 0 0 .002-.002.068.068 0 0 0 .002-.002.068.068 0 0 0 .004-.002l.002-.002a.068.068 0 0 0 .002 0 .068.068 0 0 0 .002-.002l.002-.002a.068.068 0 0 0 .002-.002.068.068 0 0 0 .008-.014l.002-.002-.002.006.006-.006c.002-.002 0-.003.002-.006h.002a.068.068 0 0 0 .002-.002.068.068 0 0 0 .002-.002v-.002l.002-.002a.068.068 0 0 0 0-.002.068.068 0 0 0 0-.002h.002v-.002a.068.068 0 0 0 .002-.002.068.068 0 0 0 0-.002.068.068 0 0 0 .002-.002.068.068 0 0 0 0-.002.068.068 0 0 0 0-.002.068.068 0 0 0 .002-.002.068.068 0 0 0 0-.002.068.068 0 0 0 0-.002.068.068 0 0 0 .002-.004.068.068 0 0 0 0-.002.068.068 0 0 0 .002-.003.068.068 0 0 0 .002-.014V54.894c0-.224.032-.431.094-.625s.15-.363.266-.504a1.196 1.196 0 0 1 .963-.453c.14 0 .28.016.415.045.128.028.237.068.336.123h.002a.068.068 0 0 0 .004.004h.002a.068.068 0 0 0 .002.002.068.068 0 0 0 .002.002.068.068 0 0 0 .002.002.068.068 0 0 0 .004.002.068.068 0 0 0 .002.002.068.068 0 0 0 .002 0 .068.068 0 0 0 .008.004.068.068 0 0 0 .008.004.068.068 0 0 0 .002 0 .068.068 0 0 0 .006.002.068.068 0 0 0 .012.002h.034a.068.068 0 0 0 .013-.002l.006-.002.006-.002a.103.103 0 0 1 .006-.002l.004-.002.006-.002.004-.002a.068.068 0 0 0 .002 0 .068.068 0 0 0 .002 0 .068.068 0 0 0 .006-.002.068.068 0 0 0 .002-.002.068.068 0 0 0 .01-.006.068.068 0 0 0 .004-.002.068.068 0 0 0 0-.002.068.068 0 0 0 .004-.002.068.068 0 0 0 .002 0 .083.083 0 0 0 .008-.008.068.068 0 0 0 .004-.006.068.068 0 0 0 .002-.002.068.068 0 0 0 0-.002l.002-.002a.068.068 0 0 0 .002-.002.068.068 0 0 0 0-.002.068.068 0 0 0 .002-.002.068.068 0 0 0 .002-.002.068.068 0 0 0 0-.002.068.068 0 0 0 .004-.004.068.068 0 0 0 .002-.002.068.068 0 0 0 0-.002.068.068 0 0 0 .004-.007.068.068 0 0 0 .002-.002.068.068 0 0 0 .004-.014.068.068 0 0 0 .002-.012l.09-.297a.068.068 0 0 0 .002-.006c.004-.01.004-.015.004-.015a.068.068 0 0 0 .002-.014V53.045a.068.068 0 0 0-.002-.013c0-.006-.004-.01-.006-.014 0-.002 0-.004-.002-.006a.068.068 0 0 0 0-.004.068.068 0 0 0-.002-.002.068.068 0 0 0 0-.002.068.068 0 0 0-.002-.002.068.068 0 0 0-.004-.006l-.004-.003a.068.068 0 0 0 0-.002v-.002a.068.068 0 0 0 0-.002h-.002v-.002a.068.068 0 0 0-.004-.004.068.068 0 0 0 0-.002.068.068 0 0 0-.006-.006s0-.002-.002-.002v-.004h-.002c-.003-.003-.003-.006-.006-.008a.068.068 0 0 0-.006-.004.068.068 0 0 0-.002 0 .068.068 0 0 0-.01-.008.068.068 0 0 0-.01-.006.068.068 0 0 0-.002 0 .068.068 0 0 0-.013-.004.068.068 0 0 0-.01-.002h-.004a1.81 1.81 0 0 0-.424-.15 2.37 2.37 0 0 0-.502-.053zm3.912 0c-.351 0-.68.064-.986.192a2.413 2.413 0 0 0-1.318 1.326c-.127.307-.19.637-.19.99 0 .354.063.686.19.992a2.375 2.375 0 0 0 1.316 1.32c.306.13.637.192.988.192a2.542 2.542 0 0 0 1.789-.717c.224-.222.4-.487.527-.793.128-.307.192-.64.192-.994a2.56 2.56 0 0 0-.192-.992 2.455 2.455 0 0 0-.527-.795 2.462 2.462 0 0 0-.799-.53 2.548 2.548 0 0 0-.99-.19zm8.91.055a.068.068 0 0 0-.025.006l-.012.002c-.003 0-.005.003-.01.004l-.01.002-.008.004-.012.008.006.007c0 .002-.003.002-.004.002l-.008.01-.01.014-.004.006h-.004v.01l-.006.011h.002v.002l-.004.01-.004.008a.068.068 0 0 0-.002.014V52.924a.068.068 0 0 0 .002.016l.002.008v2.719c0 .322.053.618.164.878.11.258.26.478.457.659.196.18.431.316.698.408.265.092.551.135.855.135a2.6 2.6 0 0 0 .856-.135c.265-.092.5-.228.697-.408.196-.18.35-.4.46-.659.113-.26.167-.555.167-.878v-2.764a.068.068 0 0 0-.002-.014l-.004-.01a.068.068 0 0 0-.002-.003.068.068 0 0 0 0-.002.068.068 0 0 0-.002-.008.068.068 0 0 0 0-.002.068.068 0 0 0-.002 0 .068.068 0 0 0 0-.002.068.068 0 0 0-.002-.002.068.068 0 0 0 0-.002.068.068 0 0 0-.002-.002.068.068 0 0 0 0-.002.068.068 0 0 0-.002 0 .068.068 0 0 0 0-.002.068.068 0 0 0-.002-.004.068.068 0 0 0-.002-.004.068.068 0 0 0-.002 0 .068.068 0 0 0 0-.002h-.002v-.002a.068.068 0 0 0 0-.002.068.068 0 0 0-.002 0 .068.068 0 0 0-.002-.002.068.068 0 0 0 0-.002.068.068 0 0 0 0-.002h-.002v-.002a.068.068 0 0 0-.004-.006.116.116 0 0 0-.008-.008.068.068 0 0 0-.006-.004.068.068 0 0 0-.002 0 .068.068 0 0 0-.004-.004.068.068 0 0 0-.006-.003.068.068 0 0 0-.002 0 .068.068 0 0 0-.002 0 .068.068 0 0 0-.002-.002.068.068 0 0 0-.002-.002.068.068 0 0 0-.002 0 .068.068 0 0 0 0-.002.068.068 0 0 0-.002 0 .068.068 0 0 0-.002 0 .068.068 0 0 0-.002 0 .068.068 0 0 0-.002-.002.068.068 0 0 0-.002 0 .068.068 0 0 0-.002-.002.068.068 0 0 0-.004 0 .068.068 0 0 0-.004-.002.068.068 0 0 0-.006-.002.068.068 0 0 0-.014-.002H229.459a.068.068 0 0 0-.014.002c-.004 0-.006.002-.01.003l-.004.002-.006.002a.068.068 0 0 0-.002 0 .068.068 0 0 0-.002 0 .068.068 0 0 0-.002.002.068.068 0 0 0-.002 0 .068.068 0 0 0-.002.002.068.068 0 0 0-.002 0 .068.068 0 0 0-.002.002.068.068 0 0 0-.002.002.068.068 0 0 0-.002 0 .068.068 0 0 0-.002 0 .068.068 0 0 0-.002.002.068.068 0 0 0-.004.002.068.068 0 0 0 0 .002.068.068 0 0 0-.002 0 .068.068 0 0 0-.002.002.068.068 0 0 0-.002.002.068.068 0 0 0-.002 0 .068.068 0 0 0-.002.002.068.068 0 0 0-.004.002v.002h-.002a.068.068 0 0 0-.002.002.068.068 0 0 0-.002 0l-.008.008a.068.068 0 0 0-.004.006.068.068 0 0 0 0 .002.068.068 0 0 0-.004.004.068.068 0 0 0-.002.004.068.068 0 0 0-.002.002.068.068 0 0 0 0 .002.068.068 0 0 0-.002.002.068.068 0 0 0 0 .002.068.068 0 0 0-.002.002.068.068 0 0 0-.002.002.068.068 0 0 0 0 .004.068.068 0 0 0-.002 0 .068.068 0 0 0 0 .002.068.068 0 0 0 0 .002.068.068 0 0 0 0 .002.068.068 0 0 0-.002.002.068.068 0 0 0 0 .002.068.068 0 0 0-.002.004.068.068 0 0 0 0 .002.068.068 0 0 0-.002.004.068.068 0 0 0 0 .002.068.068 0 0 0-.002.013v2.738c0 .246-.04.461-.115.651a1.33 1.33 0 0 1-.813.774c-.193.069-.41.103-.65.103-.24 0-.455-.034-.648-.103a1.385 1.385 0 0 1-.495-.297 1.336 1.336 0 0 1-.318-.477 1.732 1.732 0 0 1-.115-.65V52.903a.068.068 0 0 0-.002-.014l-.004-.01a.068.068 0 0 0-.002-.003.068.068 0 0 0 0-.002.068.068 0 0 0-.002-.008.068.068 0 0 0 0-.002.068.068 0 0 0-.002 0 .068.068 0 0 0 0-.002.068.068 0 0 0 0-.002.068.068 0 0 0-.002 0 .068.068 0 0 0 0-.002.068.068 0 0 0-.002-.002.068.068 0 0 0 0-.002.068.068 0 0 0-.002 0 .068.068 0 0 0 0-.002.068.068 0 0 0-.002-.004.068.068 0 0 0-.002 0 .068.068 0 0 0 0-.002.068.068 0 0 0-.002-.002l-.002-.002v-.002a.068.068 0 0 0-.002-.002.068.068 0 0 0 0-.002.068.068 0 0 0-.002-.002.068.068 0 0 0 0-.002h-.002l-.002-.002h-.002v-.002a.068.068 0 0 0 0-.002.068.068 0 0 0 0-.002l-.008-.008a.068.068 0 0 0-.006-.004h-.002a.068.068 0 0 0-.004-.004.068.068 0 0 0-.006-.003.068.068 0 0 0-.002 0 .068.068 0 0 0-.002 0 .068.068 0 0 0 0-.002.068.068 0 0 0-.002 0 .068.068 0 0 0-.002-.002.068.068 0 0 0-.002 0 .068.068 0 0 0 0-.002.068.068 0 0 0-.002 0 .068.068 0 0 0-.002 0 .068.068 0 0 0-.002 0 .068.068 0 0 0-.002-.002.068.068 0 0 0-.002 0 .068.068 0 0 0-.002-.002.068.068 0 0 0-.004 0 .068.068 0 0 0-.004-.002.068.068 0 0 0-.006-.002.068.068 0 0 0-.014-.002H225.698zm-.05.022.001.004.002.002.01.023a.068.068 0 0 0-.017-.016c0-.002 0-.004.002-.006a.068.068 0 0 0-.004.006.068.068 0 0 0-.006-.004h-.002v-.002l.013-.007zm-.005.029.022.027h.002l-.004.016-.006-.012.008-.004-.012-.002-.01-.025zm-19.533.016.043.015-.064.008v-.002l.006-.006.015-.016zm-18.926.46a1.86 1.86 0 0 1 1.34.551c.166.17.3.374.395.61.094.234.14.488.14.765 0 .278-.046.533-.14.766a1.876 1.876 0 0 1-.395.607 1.86 1.86 0 0 1-1.34.549 1.864 1.864 0 0 1-1.343-.55 1.846 1.846 0 0 1-.393-.61 2.036 2.036 0 0 1-.139-.762c0-.274.046-.526.139-.761.094-.237.224-.44.39-.612s.364-.307.594-.404c.23-.098.48-.149.752-.149zm17.03 0a1.863 1.863 0 0 1 1.34.551c.165.17.296.373.392.61.095.235.143.488.143.765 0 .278-.048.532-.143.766a1.787 1.787 0 0 1-.984 1.008 1.863 1.863 0 0 1-.748.148 1.871 1.871 0 0 1-1.344-.55 1.845 1.845 0 0 1-.393-.61 2.034 2.034 0 0 1-.14-.762c0-.273.047-.525.14-.761.094-.237.225-.44.39-.612a1.77 1.77 0 0 1 .595-.404c.229-.098.478-.149.752-.149zm-22.868.002c.274 0 .521.05.748.147a1.808 1.808 0 0 1 .989 1.016c.093.235.138.487.138.761 0 .275-.045.529-.138.762a1.883 1.883 0 0 1-.393.61 1.78 1.78 0 0 1-.594.404c-.229.097-.476.146-.75.146-.273 0-.522-.049-.75-.146a1.807 1.807 0 0 1-.984-1.01 2.01 2.01 0 0 1-.143-.766c0-.277.048-.532.143-.767a1.87 1.87 0 0 1 .393-.61c.165-.17.362-.302.591-.4.228-.097.477-.147.75-.147zm35.442 0c.273 0 .523.049.752.145a1.844 1.844 0 0 1 1.004 1.008c.096.234.144.491.144.771 0 .281-.048.54-.144.772a1.85 1.85 0 0 1-1.004 1.006c-.23.096-.479.144-.752.144-.27 0-.517-.048-.746-.144a1.822 1.822 0 0 1-.6-.4 1.873 1.873 0 0 1-.396-.606 1.997 1.997 0 0 1-.145-.772c0-.28.048-.537.145-.771.097-.237.229-.439.396-.61a1.897 1.897 0 0 1 1.346-.543zm35.29 3.848.044.016-.065.008v-.002l.006-.006.016-.016zm-72.603.436c.001.011-.005.025-.004.027v.002l-.06-.021.064-.008zm10.143 0c0 .011-.005.025-.004.027v.002l-.012-.004a.068.068 0 0 0 0-.006v-.006l-.008.008-.04-.014.064-.007zm16.533.006.008.064h-.002l-.01-.008-.012-.011v-.002l.016-.043zm28.043 0 .008.064h-.002l-.01-.008-.012-.011v-.002l.016-.043zm11.957 0 .008.064h-.006l-.02-.004h-.003l.002-.006a.068.068 0 0 0 .013.002h.002l-.011-.011.015-.045zm5.969 0 .008.064h-.006l-.02-.004h-.004l.002-.006a.068.068 0 0 0 .014.002l-.01-.011.016-.045z" transform="translate(8.065 .044)"/></svg>