<svg height="32" viewBox="0 0 32 32" width="32" xmlns="http://www.w3.org/2000/svg" xmlns:xlink="http://www.w3.org/1999/xlink"><filter id="a" height="105.5%" width="111.8%" x="-5.9%" y="-2.7%"><feMerge><feMergeNode in="SourceGraphic"/></feMerge></filter><g fill="none" filter="url(#a)" transform="translate(-220 -10)"><g transform="translate(222 10)"><path d="m15.1120313 23.6361832 2.5398674-1.2228992c.320248-.1541935.6982755-.1268093.9929573.0719296l4.9142857 3.3142857c.4164319.2808495.559915.8270268.3352855 1.2762857-.3623255.7246511-.8099675 1.3936125-1.3149502 1.9477009l-.4214295.4383552c-1.7785264 1.769246-4.3653718 2.6452712-6.9146941 2.3903389-.144948-.0144948-.2849792-.0604822-.4102986-.1347456-3.0030344-1.7795759-5.91019673-4.0471625-8.78426809-6.7976403-2.48899936-2.6021357-4.71051316-5.4872186-6.75216241-8.729838-.08246559-.1309747-.13340377-.2793037-.14880435-.4333095-.25493223-2.5493223.62109299-5.1361677 2.36820399-6.89330918l.44388376-.42677076c.57069484-.52102633 1.23965623-.96866833 1.96430728-1.33099385.44925894-.22462947.99543626-.08114643 1.27628572.33528552l3.31428571 4.91428567c.19873884.2946818.22612305.6727093.07192955.9929573l-1.21869395 2.5311336c2.20466749 2.8367508 4.56232669 5.257194 7.17923609 7.3203017zm-11.30429781-14.12846474c-.24942849.18260861-.48262138.38091537-.69684381.59476534-1.38789061 1.2953646-2.12123356 3.262387-1.99187974 5.227296 1.93620218 3.0485639 4.03376946 5.7598869 6.34364128 8.1761498 2.67581118 2.5594716 5.39947828 4.694695 8.19437558 6.3741778 1.9693227.1334857 3.9430652-.6008692 5.2644378-2.0157856.2704686-.2704685.5217451-.5831652.7485457-.9265525l-3.6676006-2.4734981-2.5685941 1.2367305c-.3329554.1603119-.727181.1239354-1.0251793-.0945967-3.3541974-2.4597448-6.29521008-5.4295909-9.00532757-9.0020185-.22687302-.2990599-.26715497-.6999865-.1043104-1.0382021l1.23673047-2.5685941-2.47325813-3.66724478z" fill="#0a77a9"/><g fill="#c1dde9"><path d="m12.5661807 11.8242811c5.8376437-4.00975026 13.5143002-4.11404928 19.458726-.2643763l1.2708745.8230317 1.0871553-1.6787177-1.2708744-.82303172c-6.6224637-4.2887775-15.1747412-4.17258184-21.6782428.29453182l-.8242812.5661807 1.1323615 1.6485623z" transform="matrix(.70710678 .70710678 -.70710678 .70710678 13.353762 -13.105184)"/><path d="m12.4294481 14.9030915c3.7380293-1.7775491 8.067626-1.8260515 11.8445383-.1326888l1.2293901.5511918.818218-1.824971-1.22939-.5511918c-4.3117001-1.9331326-9.2543412-1.8777624-13.5216526.1514768l-.9030915.4294481.8588962 1.806183z" transform="matrix(.70710678 .70710678 -.70710678 .70710678 14.915773 -9.143053)"/></g></g></g></svg>