<?xml version="1.0" encoding="utf-8"?>
<!-- Generator: Adobe Illustrator 21.1.0, SVG Export Plug-In . SVG Version: 6.00 Build 0)  -->
<svg version="1.1" id="Layer_1" xmlns="http://www.w3.org/2000/svg" xmlns:xlink="http://www.w3.org/1999/xlink" x="0px" y="0px"
	 width="32px" height="32px" viewBox="0 0 32 32" style="enable-background:new 0 0 32 32;" xml:space="preserve">
<style type="text/css">
	.st0{fill:#0A77A9;}
</style>
<path id="ic_yt" class="st0" d="M31.7,9.2c-0.1-1.2-0.6-2.4-1.3-3.4c-0.8-0.9-2-1.4-3.2-1.4C22.7,4,16,4,16,4l0,0
	c0,0-6.7,0-11.2,0.3c-1.2,0-2.4,0.5-3.2,1.4C0.9,6.8,0.5,8,0.3,9.2C0.1,11,0,12.9,0,14.7v2.6c0,1.8,0.1,3.7,0.3,5.5
	c0.1,1.2,0.6,2.4,1.3,3.4c0.9,0.9,2.2,1.4,3.5,1.5C7.7,27.9,16,28,16,28s6.7,0,11.2-0.4c1.2,0,2.4-0.5,3.2-1.4
	c0.7-1,1.1-2.2,1.3-3.4c0.2-1.8,0.3-3.7,0.3-5.5v-2.6C32,12.9,31.9,11,31.7,9.2 M13,21V11l9,5L13,21z"/>
</svg>
